%TF.GenerationSoftware,KiCad,Pcbnew,(5.1.6)-1*%
%TF.CreationDate,2021-01-17T16:19:00-06:00*%
%TF.ProjectId,irradiance1,69727261-6469-4616-9e63-65312e6b6963,rev?*%
%TF.SameCoordinates,Original*%
%TF.FileFunction,Copper,L2,Bot*%
%TF.FilePolarity,Positive*%
%FSLAX46Y46*%
G04 Gerber Fmt 4.6, Leading zero omitted, Abs format (unit mm)*
G04 Created by KiCad (PCBNEW (5.1.6)-1) date 2021-01-17 16:19:00*
%MOMM*%
%LPD*%
G01*
G04 APERTURE LIST*
%TA.AperFunction,ComponentPad*%
%ADD10O,2.000000X2.600000*%
%TD*%
%TA.AperFunction,ComponentPad*%
%ADD11R,2.000000X2.600000*%
%TD*%
%TA.AperFunction,ComponentPad*%
%ADD12O,1.700000X1.700000*%
%TD*%
%TA.AperFunction,ComponentPad*%
%ADD13R,1.700000X1.700000*%
%TD*%
%TA.AperFunction,ComponentPad*%
%ADD14R,1.530000X1.530000*%
%TD*%
%TA.AperFunction,ComponentPad*%
%ADD15C,1.530000*%
%TD*%
%TA.AperFunction,ComponentPad*%
%ADD16C,1.600000*%
%TD*%
%TA.AperFunction,ComponentPad*%
%ADD17O,1.600000X1.600000*%
%TD*%
%TA.AperFunction,ComponentPad*%
%ADD18O,1.500000X2.020000*%
%TD*%
%TA.AperFunction,ComponentPad*%
%ADD19R,1.800000X1.800000*%
%TD*%
%TA.AperFunction,ComponentPad*%
%ADD20C,1.800000*%
%TD*%
%TA.AperFunction,ViaPad*%
%ADD21C,0.800000*%
%TD*%
%TA.AperFunction,Conductor*%
%ADD22C,0.500000*%
%TD*%
%TA.AperFunction,Conductor*%
%ADD23C,0.254000*%
%TD*%
G04 APERTURE END LIST*
D10*
%TO.P,J6,2*%
%TO.N,GND*%
X84540000Y-73000000D03*
D11*
%TO.P,J6,1*%
%TO.N,+9VA*%
X82000000Y-73000000D03*
%TD*%
D12*
%TO.P,JP1,2*%
%TO.N,Net-(JP1-Pad2)*%
X41940000Y-91000000D03*
D13*
%TO.P,JP1,1*%
%TO.N,Net-(JP1-Pad1)*%
X39400000Y-91000000D03*
%TD*%
D12*
%TO.P,J0,6*%
%TO.N,I2C_SCL*%
X74900000Y-99800000D03*
%TO.P,J0,5*%
%TO.N,I2C_SDA*%
X74900000Y-97260000D03*
%TO.P,J0,4*%
%TO.N,N/C*%
X74900000Y-94720000D03*
%TO.P,J0,3*%
X74900000Y-92180000D03*
%TO.P,J0,2*%
%TO.N,Net-(J0-Pad2)*%
X74900000Y-89640000D03*
D13*
%TO.P,J0,1*%
%TO.N,vin*%
X74900000Y-87100000D03*
%TD*%
D14*
%TO.P,U2,30*%
%TO.N,+9VA*%
X66040000Y-79035000D03*
D15*
%TO.P,U2,29*%
%TO.N,Net-(J0-Pad2)*%
X66040000Y-81575000D03*
%TO.P,U2,28*%
%TO.N,N/C*%
X66040000Y-84115000D03*
%TO.P,U2,27*%
%TO.N,vin*%
X66040000Y-86655000D03*
%TO.P,U2,26*%
%TO.N,N/C*%
X66040000Y-89195000D03*
%TO.P,U2,25*%
X66040000Y-91735000D03*
%TO.P,U2,24*%
X66040000Y-94275000D03*
%TO.P,U2,23*%
X66040000Y-96815000D03*
%TO.P,U2,22*%
X66040000Y-99355000D03*
%TO.P,U2,21*%
X66040000Y-101895000D03*
%TO.P,U2,20*%
X66040000Y-104435000D03*
%TO.P,U2,19*%
X66040000Y-106975000D03*
%TO.P,U2,18*%
X66040000Y-109515000D03*
%TO.P,U2,17*%
X66040000Y-112055000D03*
%TO.P,U2,16*%
X66040000Y-114595000D03*
D14*
%TO.P,U2,1*%
%TO.N,I2C_SCL*%
X50800000Y-79035000D03*
D15*
%TO.P,U2,2*%
%TO.N,I2C_SDA*%
X50800000Y-81575000D03*
%TO.P,U2,3*%
%TO.N,N/C*%
X50800000Y-84115000D03*
%TO.P,U2,4*%
X50800000Y-86655000D03*
%TO.P,U2,5*%
%TO.N,CAN_Tx*%
X50800000Y-89195000D03*
%TO.P,U2,6*%
%TO.N,Net-(D2-Pad2)*%
X50800000Y-91735000D03*
%TO.P,U2,7*%
%TO.N,N/C*%
X50800000Y-94275000D03*
%TO.P,U2,8*%
X50800000Y-96815000D03*
%TO.P,U2,9*%
X50800000Y-99355000D03*
%TO.P,U2,10*%
X50800000Y-101895000D03*
%TO.P,U2,11*%
X50800000Y-104435000D03*
%TO.P,U2,12*%
X50800000Y-106975000D03*
%TO.P,U2,13*%
%TO.N,CAN_Rx*%
X50800000Y-109515000D03*
%TO.P,U2,14*%
%TO.N,N/C*%
X50800000Y-112055000D03*
%TO.P,U2,15*%
X50800000Y-114595000D03*
%TD*%
D16*
%TO.P,R2,1*%
%TO.N,Net-(D2-Pad1)*%
X56700000Y-125000000D03*
D17*
%TO.P,R2,2*%
%TO.N,GND*%
X66860000Y-125000000D03*
%TD*%
D16*
%TO.P,R1,1*%
%TO.N,Net-(D1-Pad1)*%
X56600000Y-139500000D03*
D17*
%TO.P,R1,2*%
%TO.N,GND*%
X66760000Y-139500000D03*
%TD*%
D16*
%TO.P,R0,1*%
%TO.N,Net-(D0-Pad1)*%
X56700000Y-132100000D03*
D17*
%TO.P,R0,2*%
%TO.N,GND*%
X66860000Y-132100000D03*
%TD*%
D18*
%TO.P,J5,4*%
%TO.N,Net-(J4-Pad4)*%
X41800000Y-72800000D03*
%TO.P,J5,3*%
%TO.N,Net-(J4-Pad3)*%
X38800000Y-72800000D03*
%TO.P,J5,2*%
%TO.N,Net-(C10-Pad2)*%
X35800000Y-72800000D03*
%TO.P,J5,1*%
%TO.N,Net-(C10-Pad1)*%
%TA.AperFunction,ComponentPad*%
G36*
G01*
X32050000Y-73560000D02*
X32050000Y-72040000D01*
G75*
G02*
X32300000Y-71790000I250000J0D01*
G01*
X33300000Y-71790000D01*
G75*
G02*
X33550000Y-72040000I0J-250000D01*
G01*
X33550000Y-73560000D01*
G75*
G02*
X33300000Y-73810000I-250000J0D01*
G01*
X32300000Y-73810000D01*
G75*
G02*
X32050000Y-73560000I0J250000D01*
G01*
G37*
%TD.AperFunction*%
%TD*%
%TO.P,J4,4*%
%TO.N,Net-(J4-Pad4)*%
X41800000Y-82400000D03*
%TO.P,J4,3*%
%TO.N,Net-(J4-Pad3)*%
X38800000Y-82400000D03*
%TO.P,J4,2*%
%TO.N,Net-(C10-Pad2)*%
X35800000Y-82400000D03*
%TO.P,J4,1*%
%TO.N,Net-(C10-Pad1)*%
%TA.AperFunction,ComponentPad*%
G36*
G01*
X32050000Y-83160000D02*
X32050000Y-81640000D01*
G75*
G02*
X32300000Y-81390000I250000J0D01*
G01*
X33300000Y-81390000D01*
G75*
G02*
X33550000Y-81640000I0J-250000D01*
G01*
X33550000Y-83160000D01*
G75*
G02*
X33300000Y-83410000I-250000J0D01*
G01*
X32300000Y-83410000D01*
G75*
G02*
X32050000Y-83160000I0J250000D01*
G01*
G37*
%TD.AperFunction*%
%TD*%
D19*
%TO.P,D2,1*%
%TO.N,Net-(D2-Pad1)*%
X51900000Y-125600000D03*
D20*
%TO.P,D2,2*%
%TO.N,Net-(D2-Pad2)*%
X49360000Y-125600000D03*
%TD*%
D19*
%TO.P,D1,1*%
%TO.N,Net-(D1-Pad1)*%
X51800000Y-140100000D03*
D20*
%TO.P,D1,2*%
%TO.N,CAN_Rx*%
X49260000Y-140100000D03*
%TD*%
D19*
%TO.P,D0,1*%
%TO.N,Net-(D0-Pad1)*%
X51900000Y-132800000D03*
D20*
%TO.P,D0,2*%
%TO.N,CAN_Tx*%
X49360000Y-132800000D03*
%TD*%
D21*
%TO.N,Net-(C10-Pad1)*%
X38400000Y-111800000D03*
X30800000Y-107600000D03*
%TO.N,GND*%
X31900000Y-126000000D03*
X33300000Y-126000000D03*
X43300000Y-126000000D03*
X43700000Y-132900000D03*
X43600000Y-137500000D03*
X28900000Y-133000000D03*
X28900000Y-137500000D03*
X84600000Y-78200000D03*
X74900000Y-81800000D03*
%TO.N,CAN_Tx*%
X42800000Y-130400000D03*
X46800000Y-132800000D03*
X47800000Y-107000000D03*
X47900000Y-114100000D03*
%TO.N,Net-(J4-Pad4)*%
X40800000Y-116400000D03*
X44200000Y-108600000D03*
%TO.N,Net-(J4-Pad3)*%
X39500000Y-116400000D03*
X40500000Y-106800000D03*
X39100000Y-102000000D03*
X38900000Y-87100000D03*
%TO.N,+9VA*%
X72300000Y-72100000D03*
X72300000Y-77000000D03*
%TD*%
D22*
%TO.N,Net-(C10-Pad1)*%
X30800000Y-107600000D02*
X33800000Y-107600000D01*
X38000000Y-111800000D02*
X38400000Y-111800000D01*
X33800000Y-107600000D02*
X38000000Y-111800000D01*
%TO.N,CAN_Tx*%
X45200000Y-132800000D02*
X42800000Y-130400000D01*
X46800000Y-132800000D02*
X45200000Y-132800000D01*
X47900000Y-107100000D02*
X47800000Y-107000000D01*
X47900000Y-114100000D02*
X47900000Y-107100000D01*
%TO.N,Net-(J4-Pad4)*%
X44200000Y-113000000D02*
X40800000Y-116400000D01*
X44200000Y-108600000D02*
X44200000Y-113000000D01*
%TO.N,Net-(J4-Pad3)*%
X40500000Y-106800000D02*
X40500000Y-112800000D01*
X39500000Y-113800000D02*
X39500000Y-116400000D01*
X40500000Y-112800000D02*
X39500000Y-113800000D01*
X39100000Y-102000000D02*
X40500000Y-103400000D01*
X40500000Y-103400000D02*
X40500000Y-106800000D01*
X39100000Y-102000000D02*
X39100000Y-98100000D01*
X39100000Y-98100000D02*
X36800000Y-95800000D01*
X36800000Y-95800000D02*
X35300000Y-95800000D01*
X35300000Y-95800000D02*
X35000000Y-95500000D01*
X35000000Y-95500000D02*
X35000000Y-89300000D01*
X37200000Y-87100000D02*
X38900000Y-87100000D01*
X35000000Y-89300000D02*
X37200000Y-87100000D01*
%TO.N,vin*%
X74900000Y-87100000D02*
X70200000Y-87100000D01*
X69755000Y-86655000D02*
X66040000Y-86655000D01*
X70200000Y-87100000D02*
X69755000Y-86655000D01*
%TO.N,+9VA*%
X72300000Y-72100000D02*
X72300000Y-77100000D01*
%TD*%
D23*
%TO.N,GND*%
G36*
X87340000Y-142340000D02*
G01*
X27660000Y-142340000D01*
X27660000Y-139948816D01*
X47725000Y-139948816D01*
X47725000Y-140251184D01*
X47783989Y-140547743D01*
X47899701Y-140827095D01*
X48067688Y-141078505D01*
X48281495Y-141292312D01*
X48532905Y-141460299D01*
X48812257Y-141576011D01*
X49108816Y-141635000D01*
X49411184Y-141635000D01*
X49707743Y-141576011D01*
X49987095Y-141460299D01*
X50238505Y-141292312D01*
X50304944Y-141225873D01*
X50310498Y-141244180D01*
X50369463Y-141354494D01*
X50448815Y-141451185D01*
X50545506Y-141530537D01*
X50655820Y-141589502D01*
X50775518Y-141625812D01*
X50900000Y-141638072D01*
X52700000Y-141638072D01*
X52824482Y-141625812D01*
X52944180Y-141589502D01*
X53054494Y-141530537D01*
X53151185Y-141451185D01*
X53230537Y-141354494D01*
X53289502Y-141244180D01*
X53325812Y-141124482D01*
X53338072Y-141000000D01*
X53338072Y-139358665D01*
X55165000Y-139358665D01*
X55165000Y-139641335D01*
X55220147Y-139918574D01*
X55328320Y-140179727D01*
X55485363Y-140414759D01*
X55685241Y-140614637D01*
X55920273Y-140771680D01*
X56181426Y-140879853D01*
X56458665Y-140935000D01*
X56741335Y-140935000D01*
X57018574Y-140879853D01*
X57279727Y-140771680D01*
X57514759Y-140614637D01*
X57714637Y-140414759D01*
X57871680Y-140179727D01*
X57979853Y-139918574D01*
X57993684Y-139849039D01*
X65368096Y-139849039D01*
X65408754Y-139983087D01*
X65528963Y-140237420D01*
X65696481Y-140463414D01*
X65904869Y-140652385D01*
X66146119Y-140797070D01*
X66410960Y-140891909D01*
X66633000Y-140770624D01*
X66633000Y-139627000D01*
X66887000Y-139627000D01*
X66887000Y-140770624D01*
X67109040Y-140891909D01*
X67373881Y-140797070D01*
X67615131Y-140652385D01*
X67823519Y-140463414D01*
X67991037Y-140237420D01*
X68111246Y-139983087D01*
X68151904Y-139849039D01*
X68029915Y-139627000D01*
X66887000Y-139627000D01*
X66633000Y-139627000D01*
X65490085Y-139627000D01*
X65368096Y-139849039D01*
X57993684Y-139849039D01*
X58035000Y-139641335D01*
X58035000Y-139358665D01*
X57993685Y-139150961D01*
X65368096Y-139150961D01*
X65490085Y-139373000D01*
X66633000Y-139373000D01*
X66633000Y-138229376D01*
X66887000Y-138229376D01*
X66887000Y-139373000D01*
X68029915Y-139373000D01*
X68151904Y-139150961D01*
X68111246Y-139016913D01*
X67991037Y-138762580D01*
X67823519Y-138536586D01*
X67615131Y-138347615D01*
X67373881Y-138202930D01*
X67109040Y-138108091D01*
X66887000Y-138229376D01*
X66633000Y-138229376D01*
X66410960Y-138108091D01*
X66146119Y-138202930D01*
X65904869Y-138347615D01*
X65696481Y-138536586D01*
X65528963Y-138762580D01*
X65408754Y-139016913D01*
X65368096Y-139150961D01*
X57993685Y-139150961D01*
X57979853Y-139081426D01*
X57871680Y-138820273D01*
X57714637Y-138585241D01*
X57514759Y-138385363D01*
X57279727Y-138228320D01*
X57018574Y-138120147D01*
X56741335Y-138065000D01*
X56458665Y-138065000D01*
X56181426Y-138120147D01*
X55920273Y-138228320D01*
X55685241Y-138385363D01*
X55485363Y-138585241D01*
X55328320Y-138820273D01*
X55220147Y-139081426D01*
X55165000Y-139358665D01*
X53338072Y-139358665D01*
X53338072Y-139200000D01*
X53325812Y-139075518D01*
X53289502Y-138955820D01*
X53230537Y-138845506D01*
X53151185Y-138748815D01*
X53054494Y-138669463D01*
X52944180Y-138610498D01*
X52824482Y-138574188D01*
X52700000Y-138561928D01*
X50900000Y-138561928D01*
X50775518Y-138574188D01*
X50655820Y-138610498D01*
X50545506Y-138669463D01*
X50448815Y-138748815D01*
X50369463Y-138845506D01*
X50310498Y-138955820D01*
X50304944Y-138974127D01*
X50238505Y-138907688D01*
X49987095Y-138739701D01*
X49707743Y-138623989D01*
X49411184Y-138565000D01*
X49108816Y-138565000D01*
X48812257Y-138623989D01*
X48532905Y-138739701D01*
X48281495Y-138907688D01*
X48067688Y-139121495D01*
X47899701Y-139372905D01*
X47783989Y-139652257D01*
X47725000Y-139948816D01*
X27660000Y-139948816D01*
X27660000Y-130298061D01*
X41765000Y-130298061D01*
X41765000Y-130501939D01*
X41804774Y-130701898D01*
X41882795Y-130890256D01*
X41996063Y-131059774D01*
X42140226Y-131203937D01*
X42309744Y-131317205D01*
X42498102Y-131395226D01*
X42554957Y-131406535D01*
X44543470Y-133395049D01*
X44571183Y-133428817D01*
X44604951Y-133456530D01*
X44604953Y-133456532D01*
X44705941Y-133539411D01*
X44859686Y-133621589D01*
X45026510Y-133672195D01*
X45156523Y-133685000D01*
X45156531Y-133685000D01*
X45200000Y-133689281D01*
X45243469Y-133685000D01*
X46261546Y-133685000D01*
X46309744Y-133717205D01*
X46498102Y-133795226D01*
X46698061Y-133835000D01*
X46901939Y-133835000D01*
X47101898Y-133795226D01*
X47290256Y-133717205D01*
X47459774Y-133603937D01*
X47603937Y-133459774D01*
X47717205Y-133290256D01*
X47795226Y-133101898D01*
X47825102Y-132951698D01*
X47883989Y-133247743D01*
X47999701Y-133527095D01*
X48167688Y-133778505D01*
X48381495Y-133992312D01*
X48632905Y-134160299D01*
X48912257Y-134276011D01*
X49208816Y-134335000D01*
X49511184Y-134335000D01*
X49807743Y-134276011D01*
X50087095Y-134160299D01*
X50338505Y-133992312D01*
X50404944Y-133925873D01*
X50410498Y-133944180D01*
X50469463Y-134054494D01*
X50548815Y-134151185D01*
X50645506Y-134230537D01*
X50755820Y-134289502D01*
X50875518Y-134325812D01*
X51000000Y-134338072D01*
X52800000Y-134338072D01*
X52924482Y-134325812D01*
X53044180Y-134289502D01*
X53154494Y-134230537D01*
X53251185Y-134151185D01*
X53330537Y-134054494D01*
X53389502Y-133944180D01*
X53425812Y-133824482D01*
X53438072Y-133700000D01*
X53438072Y-131958665D01*
X55265000Y-131958665D01*
X55265000Y-132241335D01*
X55320147Y-132518574D01*
X55428320Y-132779727D01*
X55585363Y-133014759D01*
X55785241Y-133214637D01*
X56020273Y-133371680D01*
X56281426Y-133479853D01*
X56558665Y-133535000D01*
X56841335Y-133535000D01*
X57118574Y-133479853D01*
X57379727Y-133371680D01*
X57614759Y-133214637D01*
X57814637Y-133014759D01*
X57971680Y-132779727D01*
X58079853Y-132518574D01*
X58093684Y-132449039D01*
X65468096Y-132449039D01*
X65508754Y-132583087D01*
X65628963Y-132837420D01*
X65796481Y-133063414D01*
X66004869Y-133252385D01*
X66246119Y-133397070D01*
X66510960Y-133491909D01*
X66733000Y-133370624D01*
X66733000Y-132227000D01*
X66987000Y-132227000D01*
X66987000Y-133370624D01*
X67209040Y-133491909D01*
X67473881Y-133397070D01*
X67715131Y-133252385D01*
X67923519Y-133063414D01*
X68091037Y-132837420D01*
X68211246Y-132583087D01*
X68251904Y-132449039D01*
X68129915Y-132227000D01*
X66987000Y-132227000D01*
X66733000Y-132227000D01*
X65590085Y-132227000D01*
X65468096Y-132449039D01*
X58093684Y-132449039D01*
X58135000Y-132241335D01*
X58135000Y-131958665D01*
X58093685Y-131750961D01*
X65468096Y-131750961D01*
X65590085Y-131973000D01*
X66733000Y-131973000D01*
X66733000Y-130829376D01*
X66987000Y-130829376D01*
X66987000Y-131973000D01*
X68129915Y-131973000D01*
X68251904Y-131750961D01*
X68211246Y-131616913D01*
X68091037Y-131362580D01*
X67923519Y-131136586D01*
X67715131Y-130947615D01*
X67473881Y-130802930D01*
X67209040Y-130708091D01*
X66987000Y-130829376D01*
X66733000Y-130829376D01*
X66510960Y-130708091D01*
X66246119Y-130802930D01*
X66004869Y-130947615D01*
X65796481Y-131136586D01*
X65628963Y-131362580D01*
X65508754Y-131616913D01*
X65468096Y-131750961D01*
X58093685Y-131750961D01*
X58079853Y-131681426D01*
X57971680Y-131420273D01*
X57814637Y-131185241D01*
X57614759Y-130985363D01*
X57379727Y-130828320D01*
X57118574Y-130720147D01*
X56841335Y-130665000D01*
X56558665Y-130665000D01*
X56281426Y-130720147D01*
X56020273Y-130828320D01*
X55785241Y-130985363D01*
X55585363Y-131185241D01*
X55428320Y-131420273D01*
X55320147Y-131681426D01*
X55265000Y-131958665D01*
X53438072Y-131958665D01*
X53438072Y-131900000D01*
X53425812Y-131775518D01*
X53389502Y-131655820D01*
X53330537Y-131545506D01*
X53251185Y-131448815D01*
X53154494Y-131369463D01*
X53044180Y-131310498D01*
X52924482Y-131274188D01*
X52800000Y-131261928D01*
X51000000Y-131261928D01*
X50875518Y-131274188D01*
X50755820Y-131310498D01*
X50645506Y-131369463D01*
X50548815Y-131448815D01*
X50469463Y-131545506D01*
X50410498Y-131655820D01*
X50404944Y-131674127D01*
X50338505Y-131607688D01*
X50087095Y-131439701D01*
X49807743Y-131323989D01*
X49511184Y-131265000D01*
X49208816Y-131265000D01*
X48912257Y-131323989D01*
X48632905Y-131439701D01*
X48381495Y-131607688D01*
X48167688Y-131821495D01*
X47999701Y-132072905D01*
X47883989Y-132352257D01*
X47825102Y-132648302D01*
X47795226Y-132498102D01*
X47717205Y-132309744D01*
X47603937Y-132140226D01*
X47459774Y-131996063D01*
X47290256Y-131882795D01*
X47101898Y-131804774D01*
X46901939Y-131765000D01*
X46698061Y-131765000D01*
X46498102Y-131804774D01*
X46309744Y-131882795D01*
X46261546Y-131915000D01*
X45566579Y-131915000D01*
X43806535Y-130154957D01*
X43795226Y-130098102D01*
X43717205Y-129909744D01*
X43603937Y-129740226D01*
X43459774Y-129596063D01*
X43290256Y-129482795D01*
X43101898Y-129404774D01*
X42901939Y-129365000D01*
X42698061Y-129365000D01*
X42498102Y-129404774D01*
X42309744Y-129482795D01*
X42140226Y-129596063D01*
X41996063Y-129740226D01*
X41882795Y-129909744D01*
X41804774Y-130098102D01*
X41765000Y-130298061D01*
X27660000Y-130298061D01*
X27660000Y-125448816D01*
X47825000Y-125448816D01*
X47825000Y-125751184D01*
X47883989Y-126047743D01*
X47999701Y-126327095D01*
X48167688Y-126578505D01*
X48381495Y-126792312D01*
X48632905Y-126960299D01*
X48912257Y-127076011D01*
X49208816Y-127135000D01*
X49511184Y-127135000D01*
X49807743Y-127076011D01*
X50087095Y-126960299D01*
X50338505Y-126792312D01*
X50404944Y-126725873D01*
X50410498Y-126744180D01*
X50469463Y-126854494D01*
X50548815Y-126951185D01*
X50645506Y-127030537D01*
X50755820Y-127089502D01*
X50875518Y-127125812D01*
X51000000Y-127138072D01*
X52800000Y-127138072D01*
X52924482Y-127125812D01*
X53044180Y-127089502D01*
X53154494Y-127030537D01*
X53251185Y-126951185D01*
X53330537Y-126854494D01*
X53389502Y-126744180D01*
X53425812Y-126624482D01*
X53438072Y-126500000D01*
X53438072Y-124858665D01*
X55265000Y-124858665D01*
X55265000Y-125141335D01*
X55320147Y-125418574D01*
X55428320Y-125679727D01*
X55585363Y-125914759D01*
X55785241Y-126114637D01*
X56020273Y-126271680D01*
X56281426Y-126379853D01*
X56558665Y-126435000D01*
X56841335Y-126435000D01*
X57118574Y-126379853D01*
X57379727Y-126271680D01*
X57614759Y-126114637D01*
X57814637Y-125914759D01*
X57971680Y-125679727D01*
X58079853Y-125418574D01*
X58093684Y-125349039D01*
X65468096Y-125349039D01*
X65508754Y-125483087D01*
X65628963Y-125737420D01*
X65796481Y-125963414D01*
X66004869Y-126152385D01*
X66246119Y-126297070D01*
X66510960Y-126391909D01*
X66733000Y-126270624D01*
X66733000Y-125127000D01*
X66987000Y-125127000D01*
X66987000Y-126270624D01*
X67209040Y-126391909D01*
X67473881Y-126297070D01*
X67715131Y-126152385D01*
X67923519Y-125963414D01*
X68091037Y-125737420D01*
X68211246Y-125483087D01*
X68251904Y-125349039D01*
X68129915Y-125127000D01*
X66987000Y-125127000D01*
X66733000Y-125127000D01*
X65590085Y-125127000D01*
X65468096Y-125349039D01*
X58093684Y-125349039D01*
X58135000Y-125141335D01*
X58135000Y-124858665D01*
X58093685Y-124650961D01*
X65468096Y-124650961D01*
X65590085Y-124873000D01*
X66733000Y-124873000D01*
X66733000Y-123729376D01*
X66987000Y-123729376D01*
X66987000Y-124873000D01*
X68129915Y-124873000D01*
X68251904Y-124650961D01*
X68211246Y-124516913D01*
X68091037Y-124262580D01*
X67923519Y-124036586D01*
X67715131Y-123847615D01*
X67473881Y-123702930D01*
X67209040Y-123608091D01*
X66987000Y-123729376D01*
X66733000Y-123729376D01*
X66510960Y-123608091D01*
X66246119Y-123702930D01*
X66004869Y-123847615D01*
X65796481Y-124036586D01*
X65628963Y-124262580D01*
X65508754Y-124516913D01*
X65468096Y-124650961D01*
X58093685Y-124650961D01*
X58079853Y-124581426D01*
X57971680Y-124320273D01*
X57814637Y-124085241D01*
X57614759Y-123885363D01*
X57379727Y-123728320D01*
X57118574Y-123620147D01*
X56841335Y-123565000D01*
X56558665Y-123565000D01*
X56281426Y-123620147D01*
X56020273Y-123728320D01*
X55785241Y-123885363D01*
X55585363Y-124085241D01*
X55428320Y-124320273D01*
X55320147Y-124581426D01*
X55265000Y-124858665D01*
X53438072Y-124858665D01*
X53438072Y-124700000D01*
X53425812Y-124575518D01*
X53389502Y-124455820D01*
X53330537Y-124345506D01*
X53251185Y-124248815D01*
X53154494Y-124169463D01*
X53044180Y-124110498D01*
X52924482Y-124074188D01*
X52800000Y-124061928D01*
X51000000Y-124061928D01*
X50875518Y-124074188D01*
X50755820Y-124110498D01*
X50645506Y-124169463D01*
X50548815Y-124248815D01*
X50469463Y-124345506D01*
X50410498Y-124455820D01*
X50404944Y-124474127D01*
X50338505Y-124407688D01*
X50087095Y-124239701D01*
X49807743Y-124123989D01*
X49511184Y-124065000D01*
X49208816Y-124065000D01*
X48912257Y-124123989D01*
X48632905Y-124239701D01*
X48381495Y-124407688D01*
X48167688Y-124621495D01*
X47999701Y-124872905D01*
X47883989Y-125152257D01*
X47825000Y-125448816D01*
X27660000Y-125448816D01*
X27660000Y-107498061D01*
X29765000Y-107498061D01*
X29765000Y-107701939D01*
X29804774Y-107901898D01*
X29882795Y-108090256D01*
X29996063Y-108259774D01*
X30140226Y-108403937D01*
X30309744Y-108517205D01*
X30498102Y-108595226D01*
X30698061Y-108635000D01*
X30901939Y-108635000D01*
X31101898Y-108595226D01*
X31290256Y-108517205D01*
X31338454Y-108485000D01*
X33433422Y-108485000D01*
X37343470Y-112395049D01*
X37371183Y-112428817D01*
X37404951Y-112456530D01*
X37404953Y-112456532D01*
X37413279Y-112463365D01*
X37505941Y-112539411D01*
X37659687Y-112621589D01*
X37775903Y-112656843D01*
X37826509Y-112672195D01*
X37841306Y-112673652D01*
X37845126Y-112674028D01*
X37909744Y-112717205D01*
X38098102Y-112795226D01*
X38298061Y-112835000D01*
X38501939Y-112835000D01*
X38701898Y-112795226D01*
X38890256Y-112717205D01*
X39059774Y-112603937D01*
X39203937Y-112459774D01*
X39317205Y-112290256D01*
X39395226Y-112101898D01*
X39435000Y-111901939D01*
X39435000Y-111698061D01*
X39395226Y-111498102D01*
X39317205Y-111309744D01*
X39203937Y-111140226D01*
X39059774Y-110996063D01*
X38890256Y-110882795D01*
X38701898Y-110804774D01*
X38501939Y-110765000D01*
X38298061Y-110765000D01*
X38230098Y-110778519D01*
X34456534Y-107004956D01*
X34428817Y-106971183D01*
X34294059Y-106860589D01*
X34140313Y-106778411D01*
X33973490Y-106727805D01*
X33843477Y-106715000D01*
X33843469Y-106715000D01*
X33800000Y-106710719D01*
X33756531Y-106715000D01*
X31338454Y-106715000D01*
X31290256Y-106682795D01*
X31101898Y-106604774D01*
X30901939Y-106565000D01*
X30698061Y-106565000D01*
X30498102Y-106604774D01*
X30309744Y-106682795D01*
X30140226Y-106796063D01*
X29996063Y-106940226D01*
X29882795Y-107109744D01*
X29804774Y-107298102D01*
X29765000Y-107498061D01*
X27660000Y-107498061D01*
X27660000Y-89300000D01*
X34110719Y-89300000D01*
X34115001Y-89343479D01*
X34115000Y-95456531D01*
X34110719Y-95500000D01*
X34115000Y-95543469D01*
X34115000Y-95543476D01*
X34127805Y-95673489D01*
X34178411Y-95840312D01*
X34260589Y-95994058D01*
X34371183Y-96128817D01*
X34404956Y-96156534D01*
X34643466Y-96395044D01*
X34671183Y-96428817D01*
X34805941Y-96539411D01*
X34959687Y-96621589D01*
X35126510Y-96672195D01*
X35256523Y-96685000D01*
X35256533Y-96685000D01*
X35299999Y-96689281D01*
X35343466Y-96685000D01*
X36433422Y-96685000D01*
X38215001Y-98466580D01*
X38215000Y-101461545D01*
X38182795Y-101509744D01*
X38104774Y-101698102D01*
X38065000Y-101898061D01*
X38065000Y-102101939D01*
X38104774Y-102301898D01*
X38182795Y-102490256D01*
X38296063Y-102659774D01*
X38440226Y-102803937D01*
X38609744Y-102917205D01*
X38798102Y-102995226D01*
X38854957Y-103006535D01*
X39615000Y-103766579D01*
X39615001Y-106261544D01*
X39582795Y-106309744D01*
X39504774Y-106498102D01*
X39465000Y-106698061D01*
X39465000Y-106901939D01*
X39504774Y-107101898D01*
X39582795Y-107290256D01*
X39615000Y-107338454D01*
X39615001Y-112433420D01*
X38904956Y-113143466D01*
X38871183Y-113171183D01*
X38760589Y-113305942D01*
X38678411Y-113459688D01*
X38627805Y-113626511D01*
X38615000Y-113756524D01*
X38615000Y-113756531D01*
X38610719Y-113800000D01*
X38615000Y-113843469D01*
X38615001Y-115861545D01*
X38582795Y-115909744D01*
X38504774Y-116098102D01*
X38465000Y-116298061D01*
X38465000Y-116501939D01*
X38504774Y-116701898D01*
X38582795Y-116890256D01*
X38696063Y-117059774D01*
X38840226Y-117203937D01*
X39009744Y-117317205D01*
X39198102Y-117395226D01*
X39398061Y-117435000D01*
X39601939Y-117435000D01*
X39801898Y-117395226D01*
X39990256Y-117317205D01*
X40150000Y-117210468D01*
X40309744Y-117317205D01*
X40498102Y-117395226D01*
X40698061Y-117435000D01*
X40901939Y-117435000D01*
X41101898Y-117395226D01*
X41290256Y-117317205D01*
X41459774Y-117203937D01*
X41603937Y-117059774D01*
X41717205Y-116890256D01*
X41795226Y-116701898D01*
X41806535Y-116645043D01*
X44795049Y-113656530D01*
X44828817Y-113628817D01*
X44939411Y-113494059D01*
X45021589Y-113340313D01*
X45072195Y-113173490D01*
X45085000Y-113043477D01*
X45085000Y-113043467D01*
X45089281Y-113000001D01*
X45085000Y-112956535D01*
X45085000Y-109138454D01*
X45117205Y-109090256D01*
X45195226Y-108901898D01*
X45235000Y-108701939D01*
X45235000Y-108498061D01*
X45195226Y-108298102D01*
X45117205Y-108109744D01*
X45003937Y-107940226D01*
X44859774Y-107796063D01*
X44690256Y-107682795D01*
X44501898Y-107604774D01*
X44301939Y-107565000D01*
X44098061Y-107565000D01*
X43898102Y-107604774D01*
X43709744Y-107682795D01*
X43540226Y-107796063D01*
X43396063Y-107940226D01*
X43282795Y-108109744D01*
X43204774Y-108298102D01*
X43165000Y-108498061D01*
X43165000Y-108701939D01*
X43204774Y-108901898D01*
X43282795Y-109090256D01*
X43315000Y-109138455D01*
X43315001Y-112633420D01*
X40554957Y-115393465D01*
X40498102Y-115404774D01*
X40385000Y-115451623D01*
X40385000Y-114166578D01*
X41095049Y-113456530D01*
X41128817Y-113428817D01*
X41239411Y-113294059D01*
X41292359Y-113195000D01*
X41321589Y-113140314D01*
X41372195Y-112973490D01*
X41374760Y-112947448D01*
X41385000Y-112843477D01*
X41385000Y-112843469D01*
X41389281Y-112800000D01*
X41385000Y-112756531D01*
X41385000Y-107338454D01*
X41417205Y-107290256D01*
X41495226Y-107101898D01*
X41535000Y-106901939D01*
X41535000Y-106898061D01*
X46765000Y-106898061D01*
X46765000Y-107101939D01*
X46804774Y-107301898D01*
X46882795Y-107490256D01*
X46996063Y-107659774D01*
X47015001Y-107678712D01*
X47015000Y-113561546D01*
X46982795Y-113609744D01*
X46904774Y-113798102D01*
X46865000Y-113998061D01*
X46865000Y-114201939D01*
X46904774Y-114401898D01*
X46982795Y-114590256D01*
X47096063Y-114759774D01*
X47240226Y-114903937D01*
X47409744Y-115017205D01*
X47598102Y-115095226D01*
X47798061Y-115135000D01*
X48001939Y-115135000D01*
X48201898Y-115095226D01*
X48390256Y-115017205D01*
X48559774Y-114903937D01*
X48703937Y-114759774D01*
X48817205Y-114590256D01*
X48895226Y-114401898D01*
X48935000Y-114201939D01*
X48935000Y-113998061D01*
X48895226Y-113798102D01*
X48817205Y-113609744D01*
X48785000Y-113561546D01*
X48785000Y-107326586D01*
X48795226Y-107301898D01*
X48835000Y-107101939D01*
X48835000Y-106898061D01*
X48795226Y-106698102D01*
X48717205Y-106509744D01*
X48603937Y-106340226D01*
X48459774Y-106196063D01*
X48290256Y-106082795D01*
X48101898Y-106004774D01*
X47901939Y-105965000D01*
X47698061Y-105965000D01*
X47498102Y-106004774D01*
X47309744Y-106082795D01*
X47140226Y-106196063D01*
X46996063Y-106340226D01*
X46882795Y-106509744D01*
X46804774Y-106698102D01*
X46765000Y-106898061D01*
X41535000Y-106898061D01*
X41535000Y-106698061D01*
X41495226Y-106498102D01*
X41417205Y-106309744D01*
X41385000Y-106261546D01*
X41385000Y-103443469D01*
X41389281Y-103400000D01*
X41385000Y-103356531D01*
X41385000Y-103356523D01*
X41372195Y-103226510D01*
X41321589Y-103059687D01*
X41239411Y-102905941D01*
X41211716Y-102872195D01*
X41156532Y-102804953D01*
X41156530Y-102804951D01*
X41128817Y-102771183D01*
X41095050Y-102743471D01*
X40106535Y-101754957D01*
X40095226Y-101698102D01*
X40017205Y-101509744D01*
X39985000Y-101461546D01*
X39985000Y-98143465D01*
X39989281Y-98099999D01*
X39985000Y-98056533D01*
X39985000Y-98056523D01*
X39972195Y-97926510D01*
X39921589Y-97759687D01*
X39839411Y-97605941D01*
X39728817Y-97471183D01*
X39695049Y-97443470D01*
X37456532Y-95204954D01*
X37428817Y-95171183D01*
X37294059Y-95060589D01*
X37140313Y-94978411D01*
X36973490Y-94927805D01*
X36843477Y-94915000D01*
X36843469Y-94915000D01*
X36800000Y-94910719D01*
X36756531Y-94915000D01*
X35885000Y-94915000D01*
X35885000Y-90150000D01*
X37911928Y-90150000D01*
X37911928Y-91850000D01*
X37924188Y-91974482D01*
X37960498Y-92094180D01*
X38019463Y-92204494D01*
X38098815Y-92301185D01*
X38195506Y-92380537D01*
X38305820Y-92439502D01*
X38425518Y-92475812D01*
X38550000Y-92488072D01*
X40250000Y-92488072D01*
X40374482Y-92475812D01*
X40494180Y-92439502D01*
X40604494Y-92380537D01*
X40701185Y-92301185D01*
X40780537Y-92204494D01*
X40839502Y-92094180D01*
X40861513Y-92021620D01*
X40993368Y-92153475D01*
X41236589Y-92315990D01*
X41506842Y-92427932D01*
X41793740Y-92485000D01*
X42086260Y-92485000D01*
X42373158Y-92427932D01*
X42643411Y-92315990D01*
X42886632Y-92153475D01*
X43093475Y-91946632D01*
X43255990Y-91703411D01*
X43367932Y-91433158D01*
X43425000Y-91146260D01*
X43425000Y-90853740D01*
X43367932Y-90566842D01*
X43255990Y-90296589D01*
X43093475Y-90053368D01*
X42886632Y-89846525D01*
X42643411Y-89684010D01*
X42373158Y-89572068D01*
X42086260Y-89515000D01*
X41793740Y-89515000D01*
X41506842Y-89572068D01*
X41236589Y-89684010D01*
X40993368Y-89846525D01*
X40861513Y-89978380D01*
X40839502Y-89905820D01*
X40780537Y-89795506D01*
X40701185Y-89698815D01*
X40604494Y-89619463D01*
X40494180Y-89560498D01*
X40374482Y-89524188D01*
X40250000Y-89511928D01*
X38550000Y-89511928D01*
X38425518Y-89524188D01*
X38305820Y-89560498D01*
X38195506Y-89619463D01*
X38098815Y-89698815D01*
X38019463Y-89795506D01*
X37960498Y-89905820D01*
X37924188Y-90025518D01*
X37911928Y-90150000D01*
X35885000Y-90150000D01*
X35885000Y-89666578D01*
X37566579Y-87985000D01*
X38361546Y-87985000D01*
X38409744Y-88017205D01*
X38598102Y-88095226D01*
X38798061Y-88135000D01*
X39001939Y-88135000D01*
X39201898Y-88095226D01*
X39390256Y-88017205D01*
X39559774Y-87903937D01*
X39703937Y-87759774D01*
X39817205Y-87590256D01*
X39895226Y-87401898D01*
X39935000Y-87201939D01*
X39935000Y-86998061D01*
X39895226Y-86798102D01*
X39817205Y-86609744D01*
X39703937Y-86440226D01*
X39559774Y-86296063D01*
X39390256Y-86182795D01*
X39201898Y-86104774D01*
X39001939Y-86065000D01*
X38798061Y-86065000D01*
X38598102Y-86104774D01*
X38409744Y-86182795D01*
X38361546Y-86215000D01*
X37243469Y-86215000D01*
X37200000Y-86210719D01*
X37156531Y-86215000D01*
X37156523Y-86215000D01*
X37026510Y-86227805D01*
X36859687Y-86278411D01*
X36791819Y-86314687D01*
X36705941Y-86360589D01*
X36604953Y-86443468D01*
X36604951Y-86443470D01*
X36571183Y-86471183D01*
X36543470Y-86504951D01*
X34404951Y-88643471D01*
X34371184Y-88671183D01*
X34343471Y-88704951D01*
X34343468Y-88704954D01*
X34260590Y-88805941D01*
X34178412Y-88959687D01*
X34127805Y-89126510D01*
X34110719Y-89300000D01*
X27660000Y-89300000D01*
X27660000Y-80314916D01*
X28530000Y-80314916D01*
X28530000Y-80565084D01*
X28578805Y-80810445D01*
X28674541Y-81041571D01*
X28813527Y-81249578D01*
X28990422Y-81426473D01*
X29198429Y-81565459D01*
X29429555Y-81661195D01*
X29674916Y-81710000D01*
X29925084Y-81710000D01*
X30170445Y-81661195D01*
X30221614Y-81640000D01*
X31411928Y-81640000D01*
X31411928Y-83160000D01*
X31428992Y-83333254D01*
X31479528Y-83499850D01*
X31561595Y-83653386D01*
X31672038Y-83787962D01*
X31806614Y-83898405D01*
X31960150Y-83980472D01*
X32126746Y-84031008D01*
X32300000Y-84048072D01*
X33300000Y-84048072D01*
X33473254Y-84031008D01*
X33639850Y-83980472D01*
X33793386Y-83898405D01*
X33927962Y-83787962D01*
X34038405Y-83653386D01*
X34120472Y-83499850D01*
X34171008Y-83333254D01*
X34188072Y-83160000D01*
X34188072Y-82071964D01*
X34415000Y-82071964D01*
X34415000Y-82728037D01*
X34435040Y-82931507D01*
X34514236Y-83192581D01*
X34642843Y-83433188D01*
X34815920Y-83644081D01*
X35026813Y-83817157D01*
X35267420Y-83945764D01*
X35528494Y-84024960D01*
X35800000Y-84051701D01*
X36071507Y-84024960D01*
X36332581Y-83945764D01*
X36573188Y-83817157D01*
X36784081Y-83644081D01*
X36957157Y-83433188D01*
X37085764Y-83192581D01*
X37164960Y-82931506D01*
X37185000Y-82728036D01*
X37185000Y-82071964D01*
X37415000Y-82071964D01*
X37415000Y-82728037D01*
X37435040Y-82931507D01*
X37514236Y-83192581D01*
X37642843Y-83433188D01*
X37815920Y-83644081D01*
X38026813Y-83817157D01*
X38267420Y-83945764D01*
X38528494Y-84024960D01*
X38800000Y-84051701D01*
X39071507Y-84024960D01*
X39332581Y-83945764D01*
X39573188Y-83817157D01*
X39784081Y-83644081D01*
X39957157Y-83433188D01*
X40085764Y-83192581D01*
X40164960Y-82931506D01*
X40185000Y-82728036D01*
X40185000Y-82071964D01*
X40415000Y-82071964D01*
X40415000Y-82728037D01*
X40435040Y-82931507D01*
X40514236Y-83192581D01*
X40642843Y-83433188D01*
X40815920Y-83644081D01*
X41026813Y-83817157D01*
X41267420Y-83945764D01*
X41528494Y-84024960D01*
X41800000Y-84051701D01*
X42071507Y-84024960D01*
X42332581Y-83945764D01*
X42573188Y-83817157D01*
X42784081Y-83644081D01*
X42957157Y-83433188D01*
X43085764Y-83192581D01*
X43164960Y-82931506D01*
X43185000Y-82728036D01*
X43185000Y-82071963D01*
X43164960Y-81868493D01*
X43085764Y-81607419D01*
X42957157Y-81366812D01*
X42784080Y-81155919D01*
X42573187Y-80982843D01*
X42332580Y-80854236D01*
X42071506Y-80775040D01*
X41800000Y-80748299D01*
X41528493Y-80775040D01*
X41267419Y-80854236D01*
X41026812Y-80982843D01*
X40815919Y-81155920D01*
X40642843Y-81366813D01*
X40514236Y-81607420D01*
X40435040Y-81868494D01*
X40415000Y-82071964D01*
X40185000Y-82071964D01*
X40185000Y-82071963D01*
X40164960Y-81868493D01*
X40085764Y-81607419D01*
X39957157Y-81366812D01*
X39784080Y-81155919D01*
X39573187Y-80982843D01*
X39332580Y-80854236D01*
X39071506Y-80775040D01*
X38800000Y-80748299D01*
X38528493Y-80775040D01*
X38267419Y-80854236D01*
X38026812Y-80982843D01*
X37815919Y-81155920D01*
X37642843Y-81366813D01*
X37514236Y-81607420D01*
X37435040Y-81868494D01*
X37415000Y-82071964D01*
X37185000Y-82071964D01*
X37185000Y-82071963D01*
X37164960Y-81868493D01*
X37085764Y-81607419D01*
X36957157Y-81366812D01*
X36784080Y-81155919D01*
X36573187Y-80982843D01*
X36332580Y-80854236D01*
X36071506Y-80775040D01*
X35800000Y-80748299D01*
X35528493Y-80775040D01*
X35267419Y-80854236D01*
X35026812Y-80982843D01*
X34815919Y-81155920D01*
X34642843Y-81366813D01*
X34514236Y-81607420D01*
X34435040Y-81868494D01*
X34415000Y-82071964D01*
X34188072Y-82071964D01*
X34188072Y-81640000D01*
X34171008Y-81466746D01*
X34120472Y-81300150D01*
X34038405Y-81146614D01*
X33927962Y-81012038D01*
X33793386Y-80901595D01*
X33639850Y-80819528D01*
X33473254Y-80768992D01*
X33300000Y-80751928D01*
X32300000Y-80751928D01*
X32126746Y-80768992D01*
X31960150Y-80819528D01*
X31806614Y-80901595D01*
X31672038Y-81012038D01*
X31561595Y-81146614D01*
X31479528Y-81300150D01*
X31428992Y-81466746D01*
X31411928Y-81640000D01*
X30221614Y-81640000D01*
X30401571Y-81565459D01*
X30609578Y-81426473D01*
X30786473Y-81249578D01*
X30925459Y-81041571D01*
X31021195Y-80810445D01*
X31070000Y-80565084D01*
X31070000Y-80314916D01*
X43530000Y-80314916D01*
X43530000Y-80565084D01*
X43578805Y-80810445D01*
X43674541Y-81041571D01*
X43813527Y-81249578D01*
X43990422Y-81426473D01*
X44198429Y-81565459D01*
X44429555Y-81661195D01*
X44674916Y-81710000D01*
X44925084Y-81710000D01*
X45170445Y-81661195D01*
X45401571Y-81565459D01*
X45609578Y-81426473D01*
X45786473Y-81249578D01*
X45925459Y-81041571D01*
X46021195Y-80810445D01*
X46070000Y-80565084D01*
X46070000Y-80314916D01*
X46021195Y-80069555D01*
X45925459Y-79838429D01*
X45786473Y-79630422D01*
X45609578Y-79453527D01*
X45401571Y-79314541D01*
X45170445Y-79218805D01*
X44925084Y-79170000D01*
X44674916Y-79170000D01*
X44429555Y-79218805D01*
X44198429Y-79314541D01*
X43990422Y-79453527D01*
X43813527Y-79630422D01*
X43674541Y-79838429D01*
X43578805Y-80069555D01*
X43530000Y-80314916D01*
X31070000Y-80314916D01*
X31021195Y-80069555D01*
X30925459Y-79838429D01*
X30786473Y-79630422D01*
X30609578Y-79453527D01*
X30401571Y-79314541D01*
X30170445Y-79218805D01*
X29925084Y-79170000D01*
X29674916Y-79170000D01*
X29429555Y-79218805D01*
X29198429Y-79314541D01*
X28990422Y-79453527D01*
X28813527Y-79630422D01*
X28674541Y-79838429D01*
X28578805Y-80069555D01*
X28530000Y-80314916D01*
X27660000Y-80314916D01*
X27660000Y-78270000D01*
X49396928Y-78270000D01*
X49396928Y-79800000D01*
X49409188Y-79924482D01*
X49445498Y-80044180D01*
X49504463Y-80154494D01*
X49583815Y-80251185D01*
X49680506Y-80330537D01*
X49790820Y-80389502D01*
X49910518Y-80425812D01*
X49988459Y-80433488D01*
X49907552Y-80487549D01*
X49712549Y-80682552D01*
X49559336Y-80911851D01*
X49453801Y-81166635D01*
X49400000Y-81437112D01*
X49400000Y-81712888D01*
X49453801Y-81983365D01*
X49559336Y-82238149D01*
X49712549Y-82467448D01*
X49907552Y-82662451D01*
X50136851Y-82815664D01*
X50207674Y-82845000D01*
X50136851Y-82874336D01*
X49907552Y-83027549D01*
X49712549Y-83222552D01*
X49559336Y-83451851D01*
X49453801Y-83706635D01*
X49400000Y-83977112D01*
X49400000Y-84252888D01*
X49453801Y-84523365D01*
X49559336Y-84778149D01*
X49712549Y-85007448D01*
X49907552Y-85202451D01*
X50136851Y-85355664D01*
X50207674Y-85385000D01*
X50136851Y-85414336D01*
X49907552Y-85567549D01*
X49712549Y-85762552D01*
X49559336Y-85991851D01*
X49453801Y-86246635D01*
X49400000Y-86517112D01*
X49400000Y-86792888D01*
X49453801Y-87063365D01*
X49559336Y-87318149D01*
X49712549Y-87547448D01*
X49907552Y-87742451D01*
X50136851Y-87895664D01*
X50207674Y-87925000D01*
X50136851Y-87954336D01*
X49907552Y-88107549D01*
X49712549Y-88302552D01*
X49559336Y-88531851D01*
X49453801Y-88786635D01*
X49400000Y-89057112D01*
X49400000Y-89332888D01*
X49453801Y-89603365D01*
X49559336Y-89858149D01*
X49712549Y-90087448D01*
X49907552Y-90282451D01*
X50136851Y-90435664D01*
X50207674Y-90465000D01*
X50136851Y-90494336D01*
X49907552Y-90647549D01*
X49712549Y-90842552D01*
X49559336Y-91071851D01*
X49453801Y-91326635D01*
X49400000Y-91597112D01*
X49400000Y-91872888D01*
X49453801Y-92143365D01*
X49559336Y-92398149D01*
X49712549Y-92627448D01*
X49907552Y-92822451D01*
X50136851Y-92975664D01*
X50207674Y-93005000D01*
X50136851Y-93034336D01*
X49907552Y-93187549D01*
X49712549Y-93382552D01*
X49559336Y-93611851D01*
X49453801Y-93866635D01*
X49400000Y-94137112D01*
X49400000Y-94412888D01*
X49453801Y-94683365D01*
X49559336Y-94938149D01*
X49712549Y-95167448D01*
X49907552Y-95362451D01*
X50136851Y-95515664D01*
X50207674Y-95545000D01*
X50136851Y-95574336D01*
X49907552Y-95727549D01*
X49712549Y-95922552D01*
X49559336Y-96151851D01*
X49453801Y-96406635D01*
X49400000Y-96677112D01*
X49400000Y-96952888D01*
X49453801Y-97223365D01*
X49559336Y-97478149D01*
X49712549Y-97707448D01*
X49907552Y-97902451D01*
X50136851Y-98055664D01*
X50207674Y-98085000D01*
X50136851Y-98114336D01*
X49907552Y-98267549D01*
X49712549Y-98462552D01*
X49559336Y-98691851D01*
X49453801Y-98946635D01*
X49400000Y-99217112D01*
X49400000Y-99492888D01*
X49453801Y-99763365D01*
X49559336Y-100018149D01*
X49712549Y-100247448D01*
X49907552Y-100442451D01*
X50136851Y-100595664D01*
X50207674Y-100625000D01*
X50136851Y-100654336D01*
X49907552Y-100807549D01*
X49712549Y-101002552D01*
X49559336Y-101231851D01*
X49453801Y-101486635D01*
X49400000Y-101757112D01*
X49400000Y-102032888D01*
X49453801Y-102303365D01*
X49559336Y-102558149D01*
X49712549Y-102787448D01*
X49907552Y-102982451D01*
X50136851Y-103135664D01*
X50207674Y-103165000D01*
X50136851Y-103194336D01*
X49907552Y-103347549D01*
X49712549Y-103542552D01*
X49559336Y-103771851D01*
X49453801Y-104026635D01*
X49400000Y-104297112D01*
X49400000Y-104572888D01*
X49453801Y-104843365D01*
X49559336Y-105098149D01*
X49712549Y-105327448D01*
X49907552Y-105522451D01*
X50136851Y-105675664D01*
X50207674Y-105705000D01*
X50136851Y-105734336D01*
X49907552Y-105887549D01*
X49712549Y-106082552D01*
X49559336Y-106311851D01*
X49453801Y-106566635D01*
X49400000Y-106837112D01*
X49400000Y-107112888D01*
X49453801Y-107383365D01*
X49559336Y-107638149D01*
X49712549Y-107867448D01*
X49907552Y-108062451D01*
X50136851Y-108215664D01*
X50207674Y-108245000D01*
X50136851Y-108274336D01*
X49907552Y-108427549D01*
X49712549Y-108622552D01*
X49559336Y-108851851D01*
X49453801Y-109106635D01*
X49400000Y-109377112D01*
X49400000Y-109652888D01*
X49453801Y-109923365D01*
X49559336Y-110178149D01*
X49712549Y-110407448D01*
X49907552Y-110602451D01*
X50136851Y-110755664D01*
X50207674Y-110785000D01*
X50136851Y-110814336D01*
X49907552Y-110967549D01*
X49712549Y-111162552D01*
X49559336Y-111391851D01*
X49453801Y-111646635D01*
X49400000Y-111917112D01*
X49400000Y-112192888D01*
X49453801Y-112463365D01*
X49559336Y-112718149D01*
X49712549Y-112947448D01*
X49907552Y-113142451D01*
X50136851Y-113295664D01*
X50207674Y-113325000D01*
X50136851Y-113354336D01*
X49907552Y-113507549D01*
X49712549Y-113702552D01*
X49559336Y-113931851D01*
X49453801Y-114186635D01*
X49400000Y-114457112D01*
X49400000Y-114732888D01*
X49453801Y-115003365D01*
X49559336Y-115258149D01*
X49712549Y-115487448D01*
X49907552Y-115682451D01*
X50136851Y-115835664D01*
X50391635Y-115941199D01*
X50662112Y-115995000D01*
X50937888Y-115995000D01*
X51208365Y-115941199D01*
X51463149Y-115835664D01*
X51692448Y-115682451D01*
X51887451Y-115487448D01*
X52040664Y-115258149D01*
X52146199Y-115003365D01*
X52200000Y-114732888D01*
X52200000Y-114457112D01*
X52146199Y-114186635D01*
X52040664Y-113931851D01*
X51887451Y-113702552D01*
X51692448Y-113507549D01*
X51463149Y-113354336D01*
X51392326Y-113325000D01*
X51463149Y-113295664D01*
X51692448Y-113142451D01*
X51887451Y-112947448D01*
X52040664Y-112718149D01*
X52146199Y-112463365D01*
X52200000Y-112192888D01*
X52200000Y-111917112D01*
X52146199Y-111646635D01*
X52040664Y-111391851D01*
X51887451Y-111162552D01*
X51692448Y-110967549D01*
X51463149Y-110814336D01*
X51392326Y-110785000D01*
X51463149Y-110755664D01*
X51692448Y-110602451D01*
X51887451Y-110407448D01*
X52040664Y-110178149D01*
X52146199Y-109923365D01*
X52200000Y-109652888D01*
X52200000Y-109377112D01*
X52146199Y-109106635D01*
X52040664Y-108851851D01*
X51887451Y-108622552D01*
X51692448Y-108427549D01*
X51463149Y-108274336D01*
X51392326Y-108245000D01*
X51463149Y-108215664D01*
X51692448Y-108062451D01*
X51887451Y-107867448D01*
X52040664Y-107638149D01*
X52146199Y-107383365D01*
X52200000Y-107112888D01*
X52200000Y-106837112D01*
X52146199Y-106566635D01*
X52040664Y-106311851D01*
X51887451Y-106082552D01*
X51692448Y-105887549D01*
X51463149Y-105734336D01*
X51392326Y-105705000D01*
X51463149Y-105675664D01*
X51692448Y-105522451D01*
X51887451Y-105327448D01*
X52040664Y-105098149D01*
X52146199Y-104843365D01*
X52200000Y-104572888D01*
X52200000Y-104297112D01*
X52146199Y-104026635D01*
X52040664Y-103771851D01*
X51887451Y-103542552D01*
X51692448Y-103347549D01*
X51463149Y-103194336D01*
X51392326Y-103165000D01*
X51463149Y-103135664D01*
X51692448Y-102982451D01*
X51887451Y-102787448D01*
X52040664Y-102558149D01*
X52146199Y-102303365D01*
X52200000Y-102032888D01*
X52200000Y-101757112D01*
X52146199Y-101486635D01*
X52040664Y-101231851D01*
X51887451Y-101002552D01*
X51692448Y-100807549D01*
X51463149Y-100654336D01*
X51392326Y-100625000D01*
X51463149Y-100595664D01*
X51692448Y-100442451D01*
X51887451Y-100247448D01*
X52040664Y-100018149D01*
X52146199Y-99763365D01*
X52200000Y-99492888D01*
X52200000Y-99217112D01*
X52146199Y-98946635D01*
X52040664Y-98691851D01*
X51887451Y-98462552D01*
X51692448Y-98267549D01*
X51463149Y-98114336D01*
X51392326Y-98085000D01*
X51463149Y-98055664D01*
X51692448Y-97902451D01*
X51887451Y-97707448D01*
X52040664Y-97478149D01*
X52146199Y-97223365D01*
X52200000Y-96952888D01*
X52200000Y-96677112D01*
X52146199Y-96406635D01*
X52040664Y-96151851D01*
X51887451Y-95922552D01*
X51692448Y-95727549D01*
X51463149Y-95574336D01*
X51392326Y-95545000D01*
X51463149Y-95515664D01*
X51692448Y-95362451D01*
X51887451Y-95167448D01*
X52040664Y-94938149D01*
X52146199Y-94683365D01*
X52200000Y-94412888D01*
X52200000Y-94137112D01*
X52146199Y-93866635D01*
X52040664Y-93611851D01*
X51887451Y-93382552D01*
X51692448Y-93187549D01*
X51463149Y-93034336D01*
X51392326Y-93005000D01*
X51463149Y-92975664D01*
X51692448Y-92822451D01*
X51887451Y-92627448D01*
X52040664Y-92398149D01*
X52146199Y-92143365D01*
X52200000Y-91872888D01*
X52200000Y-91597112D01*
X52146199Y-91326635D01*
X52040664Y-91071851D01*
X51887451Y-90842552D01*
X51692448Y-90647549D01*
X51463149Y-90494336D01*
X51392326Y-90465000D01*
X51463149Y-90435664D01*
X51692448Y-90282451D01*
X51887451Y-90087448D01*
X52040664Y-89858149D01*
X52146199Y-89603365D01*
X52200000Y-89332888D01*
X52200000Y-89057112D01*
X52146199Y-88786635D01*
X52040664Y-88531851D01*
X51887451Y-88302552D01*
X51692448Y-88107549D01*
X51463149Y-87954336D01*
X51392326Y-87925000D01*
X51463149Y-87895664D01*
X51692448Y-87742451D01*
X51887451Y-87547448D01*
X52040664Y-87318149D01*
X52146199Y-87063365D01*
X52200000Y-86792888D01*
X52200000Y-86517112D01*
X52146199Y-86246635D01*
X52040664Y-85991851D01*
X51887451Y-85762552D01*
X51692448Y-85567549D01*
X51463149Y-85414336D01*
X51392326Y-85385000D01*
X51463149Y-85355664D01*
X51692448Y-85202451D01*
X51887451Y-85007448D01*
X52040664Y-84778149D01*
X52146199Y-84523365D01*
X52200000Y-84252888D01*
X52200000Y-83977112D01*
X52146199Y-83706635D01*
X52040664Y-83451851D01*
X51887451Y-83222552D01*
X51692448Y-83027549D01*
X51463149Y-82874336D01*
X51392326Y-82845000D01*
X51463149Y-82815664D01*
X51692448Y-82662451D01*
X51887451Y-82467448D01*
X52040664Y-82238149D01*
X52146199Y-81983365D01*
X52200000Y-81712888D01*
X52200000Y-81437112D01*
X52146199Y-81166635D01*
X52040664Y-80911851D01*
X51887451Y-80682552D01*
X51692448Y-80487549D01*
X51611541Y-80433488D01*
X51689482Y-80425812D01*
X51809180Y-80389502D01*
X51919494Y-80330537D01*
X52016185Y-80251185D01*
X52095537Y-80154494D01*
X52154502Y-80044180D01*
X52190812Y-79924482D01*
X52203072Y-79800000D01*
X52203072Y-78270000D01*
X64636928Y-78270000D01*
X64636928Y-79800000D01*
X64649188Y-79924482D01*
X64685498Y-80044180D01*
X64744463Y-80154494D01*
X64823815Y-80251185D01*
X64920506Y-80330537D01*
X65030820Y-80389502D01*
X65150518Y-80425812D01*
X65228459Y-80433488D01*
X65147552Y-80487549D01*
X64952549Y-80682552D01*
X64799336Y-80911851D01*
X64693801Y-81166635D01*
X64640000Y-81437112D01*
X64640000Y-81712888D01*
X64693801Y-81983365D01*
X64799336Y-82238149D01*
X64952549Y-82467448D01*
X65147552Y-82662451D01*
X65376851Y-82815664D01*
X65447674Y-82845000D01*
X65376851Y-82874336D01*
X65147552Y-83027549D01*
X64952549Y-83222552D01*
X64799336Y-83451851D01*
X64693801Y-83706635D01*
X64640000Y-83977112D01*
X64640000Y-84252888D01*
X64693801Y-84523365D01*
X64799336Y-84778149D01*
X64952549Y-85007448D01*
X65147552Y-85202451D01*
X65376851Y-85355664D01*
X65447674Y-85385000D01*
X65376851Y-85414336D01*
X65147552Y-85567549D01*
X64952549Y-85762552D01*
X64799336Y-85991851D01*
X64693801Y-86246635D01*
X64640000Y-86517112D01*
X64640000Y-86792888D01*
X64693801Y-87063365D01*
X64799336Y-87318149D01*
X64952549Y-87547448D01*
X65147552Y-87742451D01*
X65376851Y-87895664D01*
X65447674Y-87925000D01*
X65376851Y-87954336D01*
X65147552Y-88107549D01*
X64952549Y-88302552D01*
X64799336Y-88531851D01*
X64693801Y-88786635D01*
X64640000Y-89057112D01*
X64640000Y-89332888D01*
X64693801Y-89603365D01*
X64799336Y-89858149D01*
X64952549Y-90087448D01*
X65147552Y-90282451D01*
X65376851Y-90435664D01*
X65447674Y-90465000D01*
X65376851Y-90494336D01*
X65147552Y-90647549D01*
X64952549Y-90842552D01*
X64799336Y-91071851D01*
X64693801Y-91326635D01*
X64640000Y-91597112D01*
X64640000Y-91872888D01*
X64693801Y-92143365D01*
X64799336Y-92398149D01*
X64952549Y-92627448D01*
X65147552Y-92822451D01*
X65376851Y-92975664D01*
X65447674Y-93005000D01*
X65376851Y-93034336D01*
X65147552Y-93187549D01*
X64952549Y-93382552D01*
X64799336Y-93611851D01*
X64693801Y-93866635D01*
X64640000Y-94137112D01*
X64640000Y-94412888D01*
X64693801Y-94683365D01*
X64799336Y-94938149D01*
X64952549Y-95167448D01*
X65147552Y-95362451D01*
X65376851Y-95515664D01*
X65447674Y-95545000D01*
X65376851Y-95574336D01*
X65147552Y-95727549D01*
X64952549Y-95922552D01*
X64799336Y-96151851D01*
X64693801Y-96406635D01*
X64640000Y-96677112D01*
X64640000Y-96952888D01*
X64693801Y-97223365D01*
X64799336Y-97478149D01*
X64952549Y-97707448D01*
X65147552Y-97902451D01*
X65376851Y-98055664D01*
X65447674Y-98085000D01*
X65376851Y-98114336D01*
X65147552Y-98267549D01*
X64952549Y-98462552D01*
X64799336Y-98691851D01*
X64693801Y-98946635D01*
X64640000Y-99217112D01*
X64640000Y-99492888D01*
X64693801Y-99763365D01*
X64799336Y-100018149D01*
X64952549Y-100247448D01*
X65147552Y-100442451D01*
X65376851Y-100595664D01*
X65447674Y-100625000D01*
X65376851Y-100654336D01*
X65147552Y-100807549D01*
X64952549Y-101002552D01*
X64799336Y-101231851D01*
X64693801Y-101486635D01*
X64640000Y-101757112D01*
X64640000Y-102032888D01*
X64693801Y-102303365D01*
X64799336Y-102558149D01*
X64952549Y-102787448D01*
X65147552Y-102982451D01*
X65376851Y-103135664D01*
X65447674Y-103165000D01*
X65376851Y-103194336D01*
X65147552Y-103347549D01*
X64952549Y-103542552D01*
X64799336Y-103771851D01*
X64693801Y-104026635D01*
X64640000Y-104297112D01*
X64640000Y-104572888D01*
X64693801Y-104843365D01*
X64799336Y-105098149D01*
X64952549Y-105327448D01*
X65147552Y-105522451D01*
X65376851Y-105675664D01*
X65447674Y-105705000D01*
X65376851Y-105734336D01*
X65147552Y-105887549D01*
X64952549Y-106082552D01*
X64799336Y-106311851D01*
X64693801Y-106566635D01*
X64640000Y-106837112D01*
X64640000Y-107112888D01*
X64693801Y-107383365D01*
X64799336Y-107638149D01*
X64952549Y-107867448D01*
X65147552Y-108062451D01*
X65376851Y-108215664D01*
X65447674Y-108245000D01*
X65376851Y-108274336D01*
X65147552Y-108427549D01*
X64952549Y-108622552D01*
X64799336Y-108851851D01*
X64693801Y-109106635D01*
X64640000Y-109377112D01*
X64640000Y-109652888D01*
X64693801Y-109923365D01*
X64799336Y-110178149D01*
X64952549Y-110407448D01*
X65147552Y-110602451D01*
X65376851Y-110755664D01*
X65447674Y-110785000D01*
X65376851Y-110814336D01*
X65147552Y-110967549D01*
X64952549Y-111162552D01*
X64799336Y-111391851D01*
X64693801Y-111646635D01*
X64640000Y-111917112D01*
X64640000Y-112192888D01*
X64693801Y-112463365D01*
X64799336Y-112718149D01*
X64952549Y-112947448D01*
X65147552Y-113142451D01*
X65376851Y-113295664D01*
X65447674Y-113325000D01*
X65376851Y-113354336D01*
X65147552Y-113507549D01*
X64952549Y-113702552D01*
X64799336Y-113931851D01*
X64693801Y-114186635D01*
X64640000Y-114457112D01*
X64640000Y-114732888D01*
X64693801Y-115003365D01*
X64799336Y-115258149D01*
X64952549Y-115487448D01*
X65147552Y-115682451D01*
X65376851Y-115835664D01*
X65631635Y-115941199D01*
X65902112Y-115995000D01*
X66177888Y-115995000D01*
X66448365Y-115941199D01*
X66703149Y-115835664D01*
X66932448Y-115682451D01*
X67127451Y-115487448D01*
X67280664Y-115258149D01*
X67386199Y-115003365D01*
X67440000Y-114732888D01*
X67440000Y-114457112D01*
X67386199Y-114186635D01*
X67280664Y-113931851D01*
X67127451Y-113702552D01*
X66932448Y-113507549D01*
X66703149Y-113354336D01*
X66632326Y-113325000D01*
X66703149Y-113295664D01*
X66932448Y-113142451D01*
X67127451Y-112947448D01*
X67280664Y-112718149D01*
X67386199Y-112463365D01*
X67440000Y-112192888D01*
X67440000Y-111917112D01*
X67386199Y-111646635D01*
X67280664Y-111391851D01*
X67127451Y-111162552D01*
X66932448Y-110967549D01*
X66703149Y-110814336D01*
X66632326Y-110785000D01*
X66703149Y-110755664D01*
X66932448Y-110602451D01*
X67127451Y-110407448D01*
X67280664Y-110178149D01*
X67386199Y-109923365D01*
X67440000Y-109652888D01*
X67440000Y-109377112D01*
X67386199Y-109106635D01*
X67280664Y-108851851D01*
X67127451Y-108622552D01*
X66932448Y-108427549D01*
X66703149Y-108274336D01*
X66632326Y-108245000D01*
X66703149Y-108215664D01*
X66932448Y-108062451D01*
X67127451Y-107867448D01*
X67280664Y-107638149D01*
X67386199Y-107383365D01*
X67440000Y-107112888D01*
X67440000Y-106837112D01*
X67386199Y-106566635D01*
X67280664Y-106311851D01*
X67127451Y-106082552D01*
X66932448Y-105887549D01*
X66703149Y-105734336D01*
X66632326Y-105705000D01*
X66703149Y-105675664D01*
X66932448Y-105522451D01*
X67127451Y-105327448D01*
X67280664Y-105098149D01*
X67386199Y-104843365D01*
X67440000Y-104572888D01*
X67440000Y-104297112D01*
X67386199Y-104026635D01*
X67280664Y-103771851D01*
X67127451Y-103542552D01*
X66932448Y-103347549D01*
X66703149Y-103194336D01*
X66632326Y-103165000D01*
X66703149Y-103135664D01*
X66932448Y-102982451D01*
X67127451Y-102787448D01*
X67280664Y-102558149D01*
X67386199Y-102303365D01*
X67440000Y-102032888D01*
X67440000Y-101757112D01*
X67386199Y-101486635D01*
X67280664Y-101231851D01*
X67127451Y-101002552D01*
X66932448Y-100807549D01*
X66703149Y-100654336D01*
X66632326Y-100625000D01*
X66703149Y-100595664D01*
X66932448Y-100442451D01*
X67127451Y-100247448D01*
X67280664Y-100018149D01*
X67386199Y-99763365D01*
X67440000Y-99492888D01*
X67440000Y-99217112D01*
X67386199Y-98946635D01*
X67280664Y-98691851D01*
X67127451Y-98462552D01*
X66932448Y-98267549D01*
X66703149Y-98114336D01*
X66632326Y-98085000D01*
X66703149Y-98055664D01*
X66932448Y-97902451D01*
X67127451Y-97707448D01*
X67280664Y-97478149D01*
X67386199Y-97223365D01*
X67440000Y-96952888D01*
X67440000Y-96677112D01*
X67386199Y-96406635D01*
X67280664Y-96151851D01*
X67127451Y-95922552D01*
X66932448Y-95727549D01*
X66703149Y-95574336D01*
X66632326Y-95545000D01*
X66703149Y-95515664D01*
X66932448Y-95362451D01*
X67127451Y-95167448D01*
X67280664Y-94938149D01*
X67386199Y-94683365D01*
X67440000Y-94412888D01*
X67440000Y-94137112D01*
X67386199Y-93866635D01*
X67280664Y-93611851D01*
X67127451Y-93382552D01*
X66932448Y-93187549D01*
X66703149Y-93034336D01*
X66632326Y-93005000D01*
X66703149Y-92975664D01*
X66932448Y-92822451D01*
X67127451Y-92627448D01*
X67280664Y-92398149D01*
X67386199Y-92143365D01*
X67440000Y-91872888D01*
X67440000Y-91597112D01*
X67386199Y-91326635D01*
X67280664Y-91071851D01*
X67127451Y-90842552D01*
X66932448Y-90647549D01*
X66703149Y-90494336D01*
X66632326Y-90465000D01*
X66703149Y-90435664D01*
X66932448Y-90282451D01*
X67127451Y-90087448D01*
X67280664Y-89858149D01*
X67386199Y-89603365D01*
X67440000Y-89332888D01*
X67440000Y-89057112D01*
X67386199Y-88786635D01*
X67280664Y-88531851D01*
X67127451Y-88302552D01*
X66932448Y-88107549D01*
X66703149Y-87954336D01*
X66632326Y-87925000D01*
X66703149Y-87895664D01*
X66932448Y-87742451D01*
X67127451Y-87547448D01*
X67132428Y-87540000D01*
X69388422Y-87540000D01*
X69543466Y-87695044D01*
X69571183Y-87728817D01*
X69705941Y-87839411D01*
X69859687Y-87921589D01*
X70026510Y-87972195D01*
X70156523Y-87985000D01*
X70156533Y-87985000D01*
X70199999Y-87989281D01*
X70243466Y-87985000D01*
X73415375Y-87985000D01*
X73424188Y-88074482D01*
X73460498Y-88194180D01*
X73519463Y-88304494D01*
X73598815Y-88401185D01*
X73695506Y-88480537D01*
X73805820Y-88539502D01*
X73878380Y-88561513D01*
X73746525Y-88693368D01*
X73584010Y-88936589D01*
X73472068Y-89206842D01*
X73415000Y-89493740D01*
X73415000Y-89786260D01*
X73472068Y-90073158D01*
X73584010Y-90343411D01*
X73746525Y-90586632D01*
X73953368Y-90793475D01*
X74127760Y-90910000D01*
X73953368Y-91026525D01*
X73746525Y-91233368D01*
X73584010Y-91476589D01*
X73472068Y-91746842D01*
X73415000Y-92033740D01*
X73415000Y-92326260D01*
X73472068Y-92613158D01*
X73584010Y-92883411D01*
X73746525Y-93126632D01*
X73953368Y-93333475D01*
X74127760Y-93450000D01*
X73953368Y-93566525D01*
X73746525Y-93773368D01*
X73584010Y-94016589D01*
X73472068Y-94286842D01*
X73415000Y-94573740D01*
X73415000Y-94866260D01*
X73472068Y-95153158D01*
X73584010Y-95423411D01*
X73746525Y-95666632D01*
X73953368Y-95873475D01*
X74127760Y-95990000D01*
X73953368Y-96106525D01*
X73746525Y-96313368D01*
X73584010Y-96556589D01*
X73472068Y-96826842D01*
X73415000Y-97113740D01*
X73415000Y-97406260D01*
X73472068Y-97693158D01*
X73584010Y-97963411D01*
X73746525Y-98206632D01*
X73953368Y-98413475D01*
X74127760Y-98530000D01*
X73953368Y-98646525D01*
X73746525Y-98853368D01*
X73584010Y-99096589D01*
X73472068Y-99366842D01*
X73415000Y-99653740D01*
X73415000Y-99946260D01*
X73472068Y-100233158D01*
X73584010Y-100503411D01*
X73746525Y-100746632D01*
X73953368Y-100953475D01*
X74196589Y-101115990D01*
X74466842Y-101227932D01*
X74753740Y-101285000D01*
X75046260Y-101285000D01*
X75333158Y-101227932D01*
X75603411Y-101115990D01*
X75846632Y-100953475D01*
X76053475Y-100746632D01*
X76215990Y-100503411D01*
X76327932Y-100233158D01*
X76371458Y-100014337D01*
X82308520Y-100014337D01*
X82308520Y-100356103D01*
X82375195Y-100691301D01*
X82505983Y-101007051D01*
X82695857Y-101291218D01*
X82937522Y-101532883D01*
X83221689Y-101722757D01*
X83537439Y-101853545D01*
X83872637Y-101920220D01*
X84214403Y-101920220D01*
X84549601Y-101853545D01*
X84865351Y-101722757D01*
X85149518Y-101532883D01*
X85391183Y-101291218D01*
X85581057Y-101007051D01*
X85711845Y-100691301D01*
X85778520Y-100356103D01*
X85778520Y-100014337D01*
X85711845Y-99679139D01*
X85581057Y-99363389D01*
X85391183Y-99079222D01*
X85149518Y-98837557D01*
X84865351Y-98647683D01*
X84549601Y-98516895D01*
X84214403Y-98450220D01*
X83872637Y-98450220D01*
X83537439Y-98516895D01*
X83221689Y-98647683D01*
X82937522Y-98837557D01*
X82695857Y-99079222D01*
X82505983Y-99363389D01*
X82375195Y-99679139D01*
X82308520Y-100014337D01*
X76371458Y-100014337D01*
X76385000Y-99946260D01*
X76385000Y-99653740D01*
X76327932Y-99366842D01*
X76215990Y-99096589D01*
X76053475Y-98853368D01*
X75846632Y-98646525D01*
X75672240Y-98530000D01*
X75846632Y-98413475D01*
X76053475Y-98206632D01*
X76215990Y-97963411D01*
X76327932Y-97693158D01*
X76385000Y-97406260D01*
X76385000Y-97113740D01*
X76327932Y-96826842D01*
X76215990Y-96556589D01*
X76053475Y-96313368D01*
X75846632Y-96106525D01*
X75672240Y-95990000D01*
X75846632Y-95873475D01*
X76053475Y-95666632D01*
X76215990Y-95423411D01*
X76327932Y-95153158D01*
X76385000Y-94866260D01*
X76385000Y-94573740D01*
X76327932Y-94286842D01*
X76215990Y-94016589D01*
X76053475Y-93773368D01*
X75846632Y-93566525D01*
X75672240Y-93450000D01*
X75846632Y-93333475D01*
X76053475Y-93126632D01*
X76215990Y-92883411D01*
X76327932Y-92613158D01*
X76385000Y-92326260D01*
X76385000Y-92033740D01*
X76327932Y-91746842D01*
X76215990Y-91476589D01*
X76053475Y-91233368D01*
X75846632Y-91026525D01*
X75672240Y-90910000D01*
X75846632Y-90793475D01*
X76053475Y-90586632D01*
X76215990Y-90343411D01*
X76327932Y-90073158D01*
X76385000Y-89786260D01*
X76385000Y-89493740D01*
X76327932Y-89206842D01*
X76215990Y-88936589D01*
X76053475Y-88693368D01*
X75921620Y-88561513D01*
X75994180Y-88539502D01*
X76104494Y-88480537D01*
X76201185Y-88401185D01*
X76280537Y-88304494D01*
X76339502Y-88194180D01*
X76375812Y-88074482D01*
X76388072Y-87950000D01*
X76388072Y-86532017D01*
X82311060Y-86532017D01*
X82311060Y-86873783D01*
X82377735Y-87208981D01*
X82508523Y-87524731D01*
X82698397Y-87808898D01*
X82940062Y-88050563D01*
X83224229Y-88240437D01*
X83539979Y-88371225D01*
X83875177Y-88437900D01*
X84216943Y-88437900D01*
X84552141Y-88371225D01*
X84867891Y-88240437D01*
X85152058Y-88050563D01*
X85393723Y-87808898D01*
X85583597Y-87524731D01*
X85714385Y-87208981D01*
X85781060Y-86873783D01*
X85781060Y-86532017D01*
X85714385Y-86196819D01*
X85583597Y-85881069D01*
X85393723Y-85596902D01*
X85152058Y-85355237D01*
X84867891Y-85165363D01*
X84552141Y-85034575D01*
X84216943Y-84967900D01*
X83875177Y-84967900D01*
X83539979Y-85034575D01*
X83224229Y-85165363D01*
X82940062Y-85355237D01*
X82698397Y-85596902D01*
X82508523Y-85881069D01*
X82377735Y-86196819D01*
X82311060Y-86532017D01*
X76388072Y-86532017D01*
X76388072Y-86250000D01*
X76375812Y-86125518D01*
X76339502Y-86005820D01*
X76280537Y-85895506D01*
X76201185Y-85798815D01*
X76104494Y-85719463D01*
X75994180Y-85660498D01*
X75874482Y-85624188D01*
X75750000Y-85611928D01*
X74050000Y-85611928D01*
X73925518Y-85624188D01*
X73805820Y-85660498D01*
X73695506Y-85719463D01*
X73598815Y-85798815D01*
X73519463Y-85895506D01*
X73460498Y-86005820D01*
X73424188Y-86125518D01*
X73415375Y-86215000D01*
X70566578Y-86215000D01*
X70411534Y-86059956D01*
X70383817Y-86026183D01*
X70249059Y-85915589D01*
X70095313Y-85833411D01*
X69928490Y-85782805D01*
X69798477Y-85770000D01*
X69798469Y-85770000D01*
X69755000Y-85765719D01*
X69711531Y-85770000D01*
X67132428Y-85770000D01*
X67127451Y-85762552D01*
X66932448Y-85567549D01*
X66703149Y-85414336D01*
X66632326Y-85385000D01*
X66703149Y-85355664D01*
X66932448Y-85202451D01*
X67127451Y-85007448D01*
X67280664Y-84778149D01*
X67386199Y-84523365D01*
X67440000Y-84252888D01*
X67440000Y-83977112D01*
X67386199Y-83706635D01*
X67280664Y-83451851D01*
X67127451Y-83222552D01*
X66932448Y-83027549D01*
X66703149Y-82874336D01*
X66632326Y-82845000D01*
X66703149Y-82815664D01*
X66932448Y-82662451D01*
X67127451Y-82467448D01*
X67280664Y-82238149D01*
X67386199Y-81983365D01*
X67440000Y-81712888D01*
X67440000Y-81437112D01*
X67386199Y-81166635D01*
X67280664Y-80911851D01*
X67127451Y-80682552D01*
X66932448Y-80487549D01*
X66851541Y-80433488D01*
X66929482Y-80425812D01*
X67049180Y-80389502D01*
X67159494Y-80330537D01*
X67256185Y-80251185D01*
X67335537Y-80154494D01*
X67394502Y-80044180D01*
X67430812Y-79924482D01*
X67443072Y-79800000D01*
X67443072Y-78270000D01*
X67430812Y-78145518D01*
X67394502Y-78025820D01*
X67335537Y-77915506D01*
X67256185Y-77818815D01*
X67159494Y-77739463D01*
X67049180Y-77680498D01*
X66929482Y-77644188D01*
X66805000Y-77631928D01*
X65275000Y-77631928D01*
X65150518Y-77644188D01*
X65030820Y-77680498D01*
X64920506Y-77739463D01*
X64823815Y-77818815D01*
X64744463Y-77915506D01*
X64685498Y-78025820D01*
X64649188Y-78145518D01*
X64636928Y-78270000D01*
X52203072Y-78270000D01*
X52190812Y-78145518D01*
X52154502Y-78025820D01*
X52095537Y-77915506D01*
X52016185Y-77818815D01*
X51919494Y-77739463D01*
X51809180Y-77680498D01*
X51689482Y-77644188D01*
X51565000Y-77631928D01*
X50035000Y-77631928D01*
X49910518Y-77644188D01*
X49790820Y-77680498D01*
X49680506Y-77739463D01*
X49583815Y-77818815D01*
X49504463Y-77915506D01*
X49445498Y-78025820D01*
X49409188Y-78145518D01*
X49396928Y-78270000D01*
X27660000Y-78270000D01*
X27660000Y-70714916D01*
X28530000Y-70714916D01*
X28530000Y-70965084D01*
X28578805Y-71210445D01*
X28674541Y-71441571D01*
X28813527Y-71649578D01*
X28990422Y-71826473D01*
X29198429Y-71965459D01*
X29429555Y-72061195D01*
X29674916Y-72110000D01*
X29925084Y-72110000D01*
X30170445Y-72061195D01*
X30221614Y-72040000D01*
X31411928Y-72040000D01*
X31411928Y-73560000D01*
X31428992Y-73733254D01*
X31479528Y-73899850D01*
X31561595Y-74053386D01*
X31672038Y-74187962D01*
X31806614Y-74298405D01*
X31960150Y-74380472D01*
X32126746Y-74431008D01*
X32300000Y-74448072D01*
X33300000Y-74448072D01*
X33473254Y-74431008D01*
X33639850Y-74380472D01*
X33793386Y-74298405D01*
X33927962Y-74187962D01*
X34038405Y-74053386D01*
X34120472Y-73899850D01*
X34171008Y-73733254D01*
X34188072Y-73560000D01*
X34188072Y-72471964D01*
X34415000Y-72471964D01*
X34415000Y-73128037D01*
X34435040Y-73331507D01*
X34514236Y-73592581D01*
X34642843Y-73833188D01*
X34815920Y-74044081D01*
X35026813Y-74217157D01*
X35267420Y-74345764D01*
X35528494Y-74424960D01*
X35800000Y-74451701D01*
X36071507Y-74424960D01*
X36332581Y-74345764D01*
X36573188Y-74217157D01*
X36784081Y-74044081D01*
X36957157Y-73833188D01*
X37085764Y-73592581D01*
X37164960Y-73331506D01*
X37185000Y-73128036D01*
X37185000Y-72471964D01*
X37415000Y-72471964D01*
X37415000Y-73128037D01*
X37435040Y-73331507D01*
X37514236Y-73592581D01*
X37642843Y-73833188D01*
X37815920Y-74044081D01*
X38026813Y-74217157D01*
X38267420Y-74345764D01*
X38528494Y-74424960D01*
X38800000Y-74451701D01*
X39071507Y-74424960D01*
X39332581Y-74345764D01*
X39573188Y-74217157D01*
X39784081Y-74044081D01*
X39957157Y-73833188D01*
X40085764Y-73592581D01*
X40164960Y-73331506D01*
X40185000Y-73128036D01*
X40185000Y-72471964D01*
X40415000Y-72471964D01*
X40415000Y-73128037D01*
X40435040Y-73331507D01*
X40514236Y-73592581D01*
X40642843Y-73833188D01*
X40815920Y-74044081D01*
X41026813Y-74217157D01*
X41267420Y-74345764D01*
X41528494Y-74424960D01*
X41800000Y-74451701D01*
X42071507Y-74424960D01*
X42332581Y-74345764D01*
X42573188Y-74217157D01*
X42784081Y-74044081D01*
X42957157Y-73833188D01*
X43085764Y-73592581D01*
X43164960Y-73331506D01*
X43185000Y-73128036D01*
X43185000Y-72471963D01*
X43164960Y-72268493D01*
X43085764Y-72007419D01*
X42957157Y-71766812D01*
X42784080Y-71555919D01*
X42573187Y-71382843D01*
X42332580Y-71254236D01*
X42071506Y-71175040D01*
X41800000Y-71148299D01*
X41528493Y-71175040D01*
X41267419Y-71254236D01*
X41026812Y-71382843D01*
X40815919Y-71555920D01*
X40642843Y-71766813D01*
X40514236Y-72007420D01*
X40435040Y-72268494D01*
X40415000Y-72471964D01*
X40185000Y-72471964D01*
X40185000Y-72471963D01*
X40164960Y-72268493D01*
X40085764Y-72007419D01*
X39957157Y-71766812D01*
X39784080Y-71555919D01*
X39573187Y-71382843D01*
X39332580Y-71254236D01*
X39071506Y-71175040D01*
X38800000Y-71148299D01*
X38528493Y-71175040D01*
X38267419Y-71254236D01*
X38026812Y-71382843D01*
X37815919Y-71555920D01*
X37642843Y-71766813D01*
X37514236Y-72007420D01*
X37435040Y-72268494D01*
X37415000Y-72471964D01*
X37185000Y-72471964D01*
X37185000Y-72471963D01*
X37164960Y-72268493D01*
X37085764Y-72007419D01*
X36957157Y-71766812D01*
X36784080Y-71555919D01*
X36573187Y-71382843D01*
X36332580Y-71254236D01*
X36071506Y-71175040D01*
X35800000Y-71148299D01*
X35528493Y-71175040D01*
X35267419Y-71254236D01*
X35026812Y-71382843D01*
X34815919Y-71555920D01*
X34642843Y-71766813D01*
X34514236Y-72007420D01*
X34435040Y-72268494D01*
X34415000Y-72471964D01*
X34188072Y-72471964D01*
X34188072Y-72040000D01*
X34171008Y-71866746D01*
X34120472Y-71700150D01*
X34038405Y-71546614D01*
X33927962Y-71412038D01*
X33793386Y-71301595D01*
X33639850Y-71219528D01*
X33473254Y-71168992D01*
X33300000Y-71151928D01*
X32300000Y-71151928D01*
X32126746Y-71168992D01*
X31960150Y-71219528D01*
X31806614Y-71301595D01*
X31672038Y-71412038D01*
X31561595Y-71546614D01*
X31479528Y-71700150D01*
X31428992Y-71866746D01*
X31411928Y-72040000D01*
X30221614Y-72040000D01*
X30401571Y-71965459D01*
X30609578Y-71826473D01*
X30786473Y-71649578D01*
X30925459Y-71441571D01*
X31021195Y-71210445D01*
X31070000Y-70965084D01*
X31070000Y-70714916D01*
X43530000Y-70714916D01*
X43530000Y-70965084D01*
X43578805Y-71210445D01*
X43674541Y-71441571D01*
X43813527Y-71649578D01*
X43990422Y-71826473D01*
X44198429Y-71965459D01*
X44429555Y-72061195D01*
X44674916Y-72110000D01*
X44925084Y-72110000D01*
X45170445Y-72061195D01*
X45322863Y-71998061D01*
X71265000Y-71998061D01*
X71265000Y-72201939D01*
X71304774Y-72401898D01*
X71382795Y-72590256D01*
X71415000Y-72638454D01*
X71415001Y-76461544D01*
X71382795Y-76509744D01*
X71304774Y-76698102D01*
X71265000Y-76898061D01*
X71265000Y-77101939D01*
X71304774Y-77301898D01*
X71382795Y-77490256D01*
X71496063Y-77659774D01*
X71640226Y-77803937D01*
X71809744Y-77917205D01*
X71998102Y-77995226D01*
X72198061Y-78035000D01*
X72401939Y-78035000D01*
X72601898Y-77995226D01*
X72790256Y-77917205D01*
X72959774Y-77803937D01*
X73103937Y-77659774D01*
X73217205Y-77490256D01*
X73295226Y-77301898D01*
X73335000Y-77101939D01*
X73335000Y-76898061D01*
X73295226Y-76698102D01*
X73217205Y-76509744D01*
X73185000Y-76461546D01*
X73185000Y-72638454D01*
X73217205Y-72590256D01*
X73295226Y-72401898D01*
X73335000Y-72201939D01*
X73335000Y-71998061D01*
X73295226Y-71798102D01*
X73254591Y-71700000D01*
X80361928Y-71700000D01*
X80361928Y-74300000D01*
X80374188Y-74424482D01*
X80410498Y-74544180D01*
X80469463Y-74654494D01*
X80548815Y-74751185D01*
X80645506Y-74830537D01*
X80755820Y-74889502D01*
X80875518Y-74925812D01*
X81000000Y-74938072D01*
X83000000Y-74938072D01*
X83124482Y-74925812D01*
X83244180Y-74889502D01*
X83354494Y-74830537D01*
X83451185Y-74751185D01*
X83530537Y-74654494D01*
X83557338Y-74604353D01*
X83737239Y-74730010D01*
X84031645Y-74859144D01*
X84159566Y-74890124D01*
X84413000Y-74770777D01*
X84413000Y-73127000D01*
X84667000Y-73127000D01*
X84667000Y-74770777D01*
X84920434Y-74890124D01*
X85048355Y-74859144D01*
X85342761Y-74730010D01*
X85606317Y-74545922D01*
X85828895Y-74313954D01*
X86001942Y-74043020D01*
X86118807Y-73743532D01*
X86175000Y-73427000D01*
X86175000Y-73127000D01*
X84667000Y-73127000D01*
X84413000Y-73127000D01*
X84393000Y-73127000D01*
X84393000Y-72873000D01*
X84413000Y-72873000D01*
X84413000Y-71229223D01*
X84667000Y-71229223D01*
X84667000Y-72873000D01*
X86175000Y-72873000D01*
X86175000Y-72573000D01*
X86118807Y-72256468D01*
X86001942Y-71956980D01*
X85828895Y-71686046D01*
X85606317Y-71454078D01*
X85342761Y-71269990D01*
X85048355Y-71140856D01*
X84920434Y-71109876D01*
X84667000Y-71229223D01*
X84413000Y-71229223D01*
X84159566Y-71109876D01*
X84031645Y-71140856D01*
X83737239Y-71269990D01*
X83557338Y-71395647D01*
X83530537Y-71345506D01*
X83451185Y-71248815D01*
X83354494Y-71169463D01*
X83244180Y-71110498D01*
X83124482Y-71074188D01*
X83000000Y-71061928D01*
X81000000Y-71061928D01*
X80875518Y-71074188D01*
X80755820Y-71110498D01*
X80645506Y-71169463D01*
X80548815Y-71248815D01*
X80469463Y-71345506D01*
X80410498Y-71455820D01*
X80374188Y-71575518D01*
X80361928Y-71700000D01*
X73254591Y-71700000D01*
X73217205Y-71609744D01*
X73103937Y-71440226D01*
X72959774Y-71296063D01*
X72790256Y-71182795D01*
X72601898Y-71104774D01*
X72401939Y-71065000D01*
X72198061Y-71065000D01*
X71998102Y-71104774D01*
X71809744Y-71182795D01*
X71640226Y-71296063D01*
X71496063Y-71440226D01*
X71382795Y-71609744D01*
X71304774Y-71798102D01*
X71265000Y-71998061D01*
X45322863Y-71998061D01*
X45401571Y-71965459D01*
X45609578Y-71826473D01*
X45786473Y-71649578D01*
X45925459Y-71441571D01*
X46021195Y-71210445D01*
X46070000Y-70965084D01*
X46070000Y-70714916D01*
X46021195Y-70469555D01*
X45925459Y-70238429D01*
X45786473Y-70030422D01*
X45609578Y-69853527D01*
X45401571Y-69714541D01*
X45170445Y-69618805D01*
X44925084Y-69570000D01*
X44674916Y-69570000D01*
X44429555Y-69618805D01*
X44198429Y-69714541D01*
X43990422Y-69853527D01*
X43813527Y-70030422D01*
X43674541Y-70238429D01*
X43578805Y-70469555D01*
X43530000Y-70714916D01*
X31070000Y-70714916D01*
X31021195Y-70469555D01*
X30925459Y-70238429D01*
X30786473Y-70030422D01*
X30609578Y-69853527D01*
X30401571Y-69714541D01*
X30170445Y-69618805D01*
X29925084Y-69570000D01*
X29674916Y-69570000D01*
X29429555Y-69618805D01*
X29198429Y-69714541D01*
X28990422Y-69853527D01*
X28813527Y-70030422D01*
X28674541Y-70238429D01*
X28578805Y-70469555D01*
X28530000Y-70714916D01*
X27660000Y-70714916D01*
X27660000Y-68660000D01*
X87340001Y-68660000D01*
X87340000Y-142340000D01*
G37*
X87340000Y-142340000D02*
X27660000Y-142340000D01*
X27660000Y-139948816D01*
X47725000Y-139948816D01*
X47725000Y-140251184D01*
X47783989Y-140547743D01*
X47899701Y-140827095D01*
X48067688Y-141078505D01*
X48281495Y-141292312D01*
X48532905Y-141460299D01*
X48812257Y-141576011D01*
X49108816Y-141635000D01*
X49411184Y-141635000D01*
X49707743Y-141576011D01*
X49987095Y-141460299D01*
X50238505Y-141292312D01*
X50304944Y-141225873D01*
X50310498Y-141244180D01*
X50369463Y-141354494D01*
X50448815Y-141451185D01*
X50545506Y-141530537D01*
X50655820Y-141589502D01*
X50775518Y-141625812D01*
X50900000Y-141638072D01*
X52700000Y-141638072D01*
X52824482Y-141625812D01*
X52944180Y-141589502D01*
X53054494Y-141530537D01*
X53151185Y-141451185D01*
X53230537Y-141354494D01*
X53289502Y-141244180D01*
X53325812Y-141124482D01*
X53338072Y-141000000D01*
X53338072Y-139358665D01*
X55165000Y-139358665D01*
X55165000Y-139641335D01*
X55220147Y-139918574D01*
X55328320Y-140179727D01*
X55485363Y-140414759D01*
X55685241Y-140614637D01*
X55920273Y-140771680D01*
X56181426Y-140879853D01*
X56458665Y-140935000D01*
X56741335Y-140935000D01*
X57018574Y-140879853D01*
X57279727Y-140771680D01*
X57514759Y-140614637D01*
X57714637Y-140414759D01*
X57871680Y-140179727D01*
X57979853Y-139918574D01*
X57993684Y-139849039D01*
X65368096Y-139849039D01*
X65408754Y-139983087D01*
X65528963Y-140237420D01*
X65696481Y-140463414D01*
X65904869Y-140652385D01*
X66146119Y-140797070D01*
X66410960Y-140891909D01*
X66633000Y-140770624D01*
X66633000Y-139627000D01*
X66887000Y-139627000D01*
X66887000Y-140770624D01*
X67109040Y-140891909D01*
X67373881Y-140797070D01*
X67615131Y-140652385D01*
X67823519Y-140463414D01*
X67991037Y-140237420D01*
X68111246Y-139983087D01*
X68151904Y-139849039D01*
X68029915Y-139627000D01*
X66887000Y-139627000D01*
X66633000Y-139627000D01*
X65490085Y-139627000D01*
X65368096Y-139849039D01*
X57993684Y-139849039D01*
X58035000Y-139641335D01*
X58035000Y-139358665D01*
X57993685Y-139150961D01*
X65368096Y-139150961D01*
X65490085Y-139373000D01*
X66633000Y-139373000D01*
X66633000Y-138229376D01*
X66887000Y-138229376D01*
X66887000Y-139373000D01*
X68029915Y-139373000D01*
X68151904Y-139150961D01*
X68111246Y-139016913D01*
X67991037Y-138762580D01*
X67823519Y-138536586D01*
X67615131Y-138347615D01*
X67373881Y-138202930D01*
X67109040Y-138108091D01*
X66887000Y-138229376D01*
X66633000Y-138229376D01*
X66410960Y-138108091D01*
X66146119Y-138202930D01*
X65904869Y-138347615D01*
X65696481Y-138536586D01*
X65528963Y-138762580D01*
X65408754Y-139016913D01*
X65368096Y-139150961D01*
X57993685Y-139150961D01*
X57979853Y-139081426D01*
X57871680Y-138820273D01*
X57714637Y-138585241D01*
X57514759Y-138385363D01*
X57279727Y-138228320D01*
X57018574Y-138120147D01*
X56741335Y-138065000D01*
X56458665Y-138065000D01*
X56181426Y-138120147D01*
X55920273Y-138228320D01*
X55685241Y-138385363D01*
X55485363Y-138585241D01*
X55328320Y-138820273D01*
X55220147Y-139081426D01*
X55165000Y-139358665D01*
X53338072Y-139358665D01*
X53338072Y-139200000D01*
X53325812Y-139075518D01*
X53289502Y-138955820D01*
X53230537Y-138845506D01*
X53151185Y-138748815D01*
X53054494Y-138669463D01*
X52944180Y-138610498D01*
X52824482Y-138574188D01*
X52700000Y-138561928D01*
X50900000Y-138561928D01*
X50775518Y-138574188D01*
X50655820Y-138610498D01*
X50545506Y-138669463D01*
X50448815Y-138748815D01*
X50369463Y-138845506D01*
X50310498Y-138955820D01*
X50304944Y-138974127D01*
X50238505Y-138907688D01*
X49987095Y-138739701D01*
X49707743Y-138623989D01*
X49411184Y-138565000D01*
X49108816Y-138565000D01*
X48812257Y-138623989D01*
X48532905Y-138739701D01*
X48281495Y-138907688D01*
X48067688Y-139121495D01*
X47899701Y-139372905D01*
X47783989Y-139652257D01*
X47725000Y-139948816D01*
X27660000Y-139948816D01*
X27660000Y-130298061D01*
X41765000Y-130298061D01*
X41765000Y-130501939D01*
X41804774Y-130701898D01*
X41882795Y-130890256D01*
X41996063Y-131059774D01*
X42140226Y-131203937D01*
X42309744Y-131317205D01*
X42498102Y-131395226D01*
X42554957Y-131406535D01*
X44543470Y-133395049D01*
X44571183Y-133428817D01*
X44604951Y-133456530D01*
X44604953Y-133456532D01*
X44705941Y-133539411D01*
X44859686Y-133621589D01*
X45026510Y-133672195D01*
X45156523Y-133685000D01*
X45156531Y-133685000D01*
X45200000Y-133689281D01*
X45243469Y-133685000D01*
X46261546Y-133685000D01*
X46309744Y-133717205D01*
X46498102Y-133795226D01*
X46698061Y-133835000D01*
X46901939Y-133835000D01*
X47101898Y-133795226D01*
X47290256Y-133717205D01*
X47459774Y-133603937D01*
X47603937Y-133459774D01*
X47717205Y-133290256D01*
X47795226Y-133101898D01*
X47825102Y-132951698D01*
X47883989Y-133247743D01*
X47999701Y-133527095D01*
X48167688Y-133778505D01*
X48381495Y-133992312D01*
X48632905Y-134160299D01*
X48912257Y-134276011D01*
X49208816Y-134335000D01*
X49511184Y-134335000D01*
X49807743Y-134276011D01*
X50087095Y-134160299D01*
X50338505Y-133992312D01*
X50404944Y-133925873D01*
X50410498Y-133944180D01*
X50469463Y-134054494D01*
X50548815Y-134151185D01*
X50645506Y-134230537D01*
X50755820Y-134289502D01*
X50875518Y-134325812D01*
X51000000Y-134338072D01*
X52800000Y-134338072D01*
X52924482Y-134325812D01*
X53044180Y-134289502D01*
X53154494Y-134230537D01*
X53251185Y-134151185D01*
X53330537Y-134054494D01*
X53389502Y-133944180D01*
X53425812Y-133824482D01*
X53438072Y-133700000D01*
X53438072Y-131958665D01*
X55265000Y-131958665D01*
X55265000Y-132241335D01*
X55320147Y-132518574D01*
X55428320Y-132779727D01*
X55585363Y-133014759D01*
X55785241Y-133214637D01*
X56020273Y-133371680D01*
X56281426Y-133479853D01*
X56558665Y-133535000D01*
X56841335Y-133535000D01*
X57118574Y-133479853D01*
X57379727Y-133371680D01*
X57614759Y-133214637D01*
X57814637Y-133014759D01*
X57971680Y-132779727D01*
X58079853Y-132518574D01*
X58093684Y-132449039D01*
X65468096Y-132449039D01*
X65508754Y-132583087D01*
X65628963Y-132837420D01*
X65796481Y-133063414D01*
X66004869Y-133252385D01*
X66246119Y-133397070D01*
X66510960Y-133491909D01*
X66733000Y-133370624D01*
X66733000Y-132227000D01*
X66987000Y-132227000D01*
X66987000Y-133370624D01*
X67209040Y-133491909D01*
X67473881Y-133397070D01*
X67715131Y-133252385D01*
X67923519Y-133063414D01*
X68091037Y-132837420D01*
X68211246Y-132583087D01*
X68251904Y-132449039D01*
X68129915Y-132227000D01*
X66987000Y-132227000D01*
X66733000Y-132227000D01*
X65590085Y-132227000D01*
X65468096Y-132449039D01*
X58093684Y-132449039D01*
X58135000Y-132241335D01*
X58135000Y-131958665D01*
X58093685Y-131750961D01*
X65468096Y-131750961D01*
X65590085Y-131973000D01*
X66733000Y-131973000D01*
X66733000Y-130829376D01*
X66987000Y-130829376D01*
X66987000Y-131973000D01*
X68129915Y-131973000D01*
X68251904Y-131750961D01*
X68211246Y-131616913D01*
X68091037Y-131362580D01*
X67923519Y-131136586D01*
X67715131Y-130947615D01*
X67473881Y-130802930D01*
X67209040Y-130708091D01*
X66987000Y-130829376D01*
X66733000Y-130829376D01*
X66510960Y-130708091D01*
X66246119Y-130802930D01*
X66004869Y-130947615D01*
X65796481Y-131136586D01*
X65628963Y-131362580D01*
X65508754Y-131616913D01*
X65468096Y-131750961D01*
X58093685Y-131750961D01*
X58079853Y-131681426D01*
X57971680Y-131420273D01*
X57814637Y-131185241D01*
X57614759Y-130985363D01*
X57379727Y-130828320D01*
X57118574Y-130720147D01*
X56841335Y-130665000D01*
X56558665Y-130665000D01*
X56281426Y-130720147D01*
X56020273Y-130828320D01*
X55785241Y-130985363D01*
X55585363Y-131185241D01*
X55428320Y-131420273D01*
X55320147Y-131681426D01*
X55265000Y-131958665D01*
X53438072Y-131958665D01*
X53438072Y-131900000D01*
X53425812Y-131775518D01*
X53389502Y-131655820D01*
X53330537Y-131545506D01*
X53251185Y-131448815D01*
X53154494Y-131369463D01*
X53044180Y-131310498D01*
X52924482Y-131274188D01*
X52800000Y-131261928D01*
X51000000Y-131261928D01*
X50875518Y-131274188D01*
X50755820Y-131310498D01*
X50645506Y-131369463D01*
X50548815Y-131448815D01*
X50469463Y-131545506D01*
X50410498Y-131655820D01*
X50404944Y-131674127D01*
X50338505Y-131607688D01*
X50087095Y-131439701D01*
X49807743Y-131323989D01*
X49511184Y-131265000D01*
X49208816Y-131265000D01*
X48912257Y-131323989D01*
X48632905Y-131439701D01*
X48381495Y-131607688D01*
X48167688Y-131821495D01*
X47999701Y-132072905D01*
X47883989Y-132352257D01*
X47825102Y-132648302D01*
X47795226Y-132498102D01*
X47717205Y-132309744D01*
X47603937Y-132140226D01*
X47459774Y-131996063D01*
X47290256Y-131882795D01*
X47101898Y-131804774D01*
X46901939Y-131765000D01*
X46698061Y-131765000D01*
X46498102Y-131804774D01*
X46309744Y-131882795D01*
X46261546Y-131915000D01*
X45566579Y-131915000D01*
X43806535Y-130154957D01*
X43795226Y-130098102D01*
X43717205Y-129909744D01*
X43603937Y-129740226D01*
X43459774Y-129596063D01*
X43290256Y-129482795D01*
X43101898Y-129404774D01*
X42901939Y-129365000D01*
X42698061Y-129365000D01*
X42498102Y-129404774D01*
X42309744Y-129482795D01*
X42140226Y-129596063D01*
X41996063Y-129740226D01*
X41882795Y-129909744D01*
X41804774Y-130098102D01*
X41765000Y-130298061D01*
X27660000Y-130298061D01*
X27660000Y-125448816D01*
X47825000Y-125448816D01*
X47825000Y-125751184D01*
X47883989Y-126047743D01*
X47999701Y-126327095D01*
X48167688Y-126578505D01*
X48381495Y-126792312D01*
X48632905Y-126960299D01*
X48912257Y-127076011D01*
X49208816Y-127135000D01*
X49511184Y-127135000D01*
X49807743Y-127076011D01*
X50087095Y-126960299D01*
X50338505Y-126792312D01*
X50404944Y-126725873D01*
X50410498Y-126744180D01*
X50469463Y-126854494D01*
X50548815Y-126951185D01*
X50645506Y-127030537D01*
X50755820Y-127089502D01*
X50875518Y-127125812D01*
X51000000Y-127138072D01*
X52800000Y-127138072D01*
X52924482Y-127125812D01*
X53044180Y-127089502D01*
X53154494Y-127030537D01*
X53251185Y-126951185D01*
X53330537Y-126854494D01*
X53389502Y-126744180D01*
X53425812Y-126624482D01*
X53438072Y-126500000D01*
X53438072Y-124858665D01*
X55265000Y-124858665D01*
X55265000Y-125141335D01*
X55320147Y-125418574D01*
X55428320Y-125679727D01*
X55585363Y-125914759D01*
X55785241Y-126114637D01*
X56020273Y-126271680D01*
X56281426Y-126379853D01*
X56558665Y-126435000D01*
X56841335Y-126435000D01*
X57118574Y-126379853D01*
X57379727Y-126271680D01*
X57614759Y-126114637D01*
X57814637Y-125914759D01*
X57971680Y-125679727D01*
X58079853Y-125418574D01*
X58093684Y-125349039D01*
X65468096Y-125349039D01*
X65508754Y-125483087D01*
X65628963Y-125737420D01*
X65796481Y-125963414D01*
X66004869Y-126152385D01*
X66246119Y-126297070D01*
X66510960Y-126391909D01*
X66733000Y-126270624D01*
X66733000Y-125127000D01*
X66987000Y-125127000D01*
X66987000Y-126270624D01*
X67209040Y-126391909D01*
X67473881Y-126297070D01*
X67715131Y-126152385D01*
X67923519Y-125963414D01*
X68091037Y-125737420D01*
X68211246Y-125483087D01*
X68251904Y-125349039D01*
X68129915Y-125127000D01*
X66987000Y-125127000D01*
X66733000Y-125127000D01*
X65590085Y-125127000D01*
X65468096Y-125349039D01*
X58093684Y-125349039D01*
X58135000Y-125141335D01*
X58135000Y-124858665D01*
X58093685Y-124650961D01*
X65468096Y-124650961D01*
X65590085Y-124873000D01*
X66733000Y-124873000D01*
X66733000Y-123729376D01*
X66987000Y-123729376D01*
X66987000Y-124873000D01*
X68129915Y-124873000D01*
X68251904Y-124650961D01*
X68211246Y-124516913D01*
X68091037Y-124262580D01*
X67923519Y-124036586D01*
X67715131Y-123847615D01*
X67473881Y-123702930D01*
X67209040Y-123608091D01*
X66987000Y-123729376D01*
X66733000Y-123729376D01*
X66510960Y-123608091D01*
X66246119Y-123702930D01*
X66004869Y-123847615D01*
X65796481Y-124036586D01*
X65628963Y-124262580D01*
X65508754Y-124516913D01*
X65468096Y-124650961D01*
X58093685Y-124650961D01*
X58079853Y-124581426D01*
X57971680Y-124320273D01*
X57814637Y-124085241D01*
X57614759Y-123885363D01*
X57379727Y-123728320D01*
X57118574Y-123620147D01*
X56841335Y-123565000D01*
X56558665Y-123565000D01*
X56281426Y-123620147D01*
X56020273Y-123728320D01*
X55785241Y-123885363D01*
X55585363Y-124085241D01*
X55428320Y-124320273D01*
X55320147Y-124581426D01*
X55265000Y-124858665D01*
X53438072Y-124858665D01*
X53438072Y-124700000D01*
X53425812Y-124575518D01*
X53389502Y-124455820D01*
X53330537Y-124345506D01*
X53251185Y-124248815D01*
X53154494Y-124169463D01*
X53044180Y-124110498D01*
X52924482Y-124074188D01*
X52800000Y-124061928D01*
X51000000Y-124061928D01*
X50875518Y-124074188D01*
X50755820Y-124110498D01*
X50645506Y-124169463D01*
X50548815Y-124248815D01*
X50469463Y-124345506D01*
X50410498Y-124455820D01*
X50404944Y-124474127D01*
X50338505Y-124407688D01*
X50087095Y-124239701D01*
X49807743Y-124123989D01*
X49511184Y-124065000D01*
X49208816Y-124065000D01*
X48912257Y-124123989D01*
X48632905Y-124239701D01*
X48381495Y-124407688D01*
X48167688Y-124621495D01*
X47999701Y-124872905D01*
X47883989Y-125152257D01*
X47825000Y-125448816D01*
X27660000Y-125448816D01*
X27660000Y-107498061D01*
X29765000Y-107498061D01*
X29765000Y-107701939D01*
X29804774Y-107901898D01*
X29882795Y-108090256D01*
X29996063Y-108259774D01*
X30140226Y-108403937D01*
X30309744Y-108517205D01*
X30498102Y-108595226D01*
X30698061Y-108635000D01*
X30901939Y-108635000D01*
X31101898Y-108595226D01*
X31290256Y-108517205D01*
X31338454Y-108485000D01*
X33433422Y-108485000D01*
X37343470Y-112395049D01*
X37371183Y-112428817D01*
X37404951Y-112456530D01*
X37404953Y-112456532D01*
X37413279Y-112463365D01*
X37505941Y-112539411D01*
X37659687Y-112621589D01*
X37775903Y-112656843D01*
X37826509Y-112672195D01*
X37841306Y-112673652D01*
X37845126Y-112674028D01*
X37909744Y-112717205D01*
X38098102Y-112795226D01*
X38298061Y-112835000D01*
X38501939Y-112835000D01*
X38701898Y-112795226D01*
X38890256Y-112717205D01*
X39059774Y-112603937D01*
X39203937Y-112459774D01*
X39317205Y-112290256D01*
X39395226Y-112101898D01*
X39435000Y-111901939D01*
X39435000Y-111698061D01*
X39395226Y-111498102D01*
X39317205Y-111309744D01*
X39203937Y-111140226D01*
X39059774Y-110996063D01*
X38890256Y-110882795D01*
X38701898Y-110804774D01*
X38501939Y-110765000D01*
X38298061Y-110765000D01*
X38230098Y-110778519D01*
X34456534Y-107004956D01*
X34428817Y-106971183D01*
X34294059Y-106860589D01*
X34140313Y-106778411D01*
X33973490Y-106727805D01*
X33843477Y-106715000D01*
X33843469Y-106715000D01*
X33800000Y-106710719D01*
X33756531Y-106715000D01*
X31338454Y-106715000D01*
X31290256Y-106682795D01*
X31101898Y-106604774D01*
X30901939Y-106565000D01*
X30698061Y-106565000D01*
X30498102Y-106604774D01*
X30309744Y-106682795D01*
X30140226Y-106796063D01*
X29996063Y-106940226D01*
X29882795Y-107109744D01*
X29804774Y-107298102D01*
X29765000Y-107498061D01*
X27660000Y-107498061D01*
X27660000Y-89300000D01*
X34110719Y-89300000D01*
X34115001Y-89343479D01*
X34115000Y-95456531D01*
X34110719Y-95500000D01*
X34115000Y-95543469D01*
X34115000Y-95543476D01*
X34127805Y-95673489D01*
X34178411Y-95840312D01*
X34260589Y-95994058D01*
X34371183Y-96128817D01*
X34404956Y-96156534D01*
X34643466Y-96395044D01*
X34671183Y-96428817D01*
X34805941Y-96539411D01*
X34959687Y-96621589D01*
X35126510Y-96672195D01*
X35256523Y-96685000D01*
X35256533Y-96685000D01*
X35299999Y-96689281D01*
X35343466Y-96685000D01*
X36433422Y-96685000D01*
X38215001Y-98466580D01*
X38215000Y-101461545D01*
X38182795Y-101509744D01*
X38104774Y-101698102D01*
X38065000Y-101898061D01*
X38065000Y-102101939D01*
X38104774Y-102301898D01*
X38182795Y-102490256D01*
X38296063Y-102659774D01*
X38440226Y-102803937D01*
X38609744Y-102917205D01*
X38798102Y-102995226D01*
X38854957Y-103006535D01*
X39615000Y-103766579D01*
X39615001Y-106261544D01*
X39582795Y-106309744D01*
X39504774Y-106498102D01*
X39465000Y-106698061D01*
X39465000Y-106901939D01*
X39504774Y-107101898D01*
X39582795Y-107290256D01*
X39615000Y-107338454D01*
X39615001Y-112433420D01*
X38904956Y-113143466D01*
X38871183Y-113171183D01*
X38760589Y-113305942D01*
X38678411Y-113459688D01*
X38627805Y-113626511D01*
X38615000Y-113756524D01*
X38615000Y-113756531D01*
X38610719Y-113800000D01*
X38615000Y-113843469D01*
X38615001Y-115861545D01*
X38582795Y-115909744D01*
X38504774Y-116098102D01*
X38465000Y-116298061D01*
X38465000Y-116501939D01*
X38504774Y-116701898D01*
X38582795Y-116890256D01*
X38696063Y-117059774D01*
X38840226Y-117203937D01*
X39009744Y-117317205D01*
X39198102Y-117395226D01*
X39398061Y-117435000D01*
X39601939Y-117435000D01*
X39801898Y-117395226D01*
X39990256Y-117317205D01*
X40150000Y-117210468D01*
X40309744Y-117317205D01*
X40498102Y-117395226D01*
X40698061Y-117435000D01*
X40901939Y-117435000D01*
X41101898Y-117395226D01*
X41290256Y-117317205D01*
X41459774Y-117203937D01*
X41603937Y-117059774D01*
X41717205Y-116890256D01*
X41795226Y-116701898D01*
X41806535Y-116645043D01*
X44795049Y-113656530D01*
X44828817Y-113628817D01*
X44939411Y-113494059D01*
X45021589Y-113340313D01*
X45072195Y-113173490D01*
X45085000Y-113043477D01*
X45085000Y-113043467D01*
X45089281Y-113000001D01*
X45085000Y-112956535D01*
X45085000Y-109138454D01*
X45117205Y-109090256D01*
X45195226Y-108901898D01*
X45235000Y-108701939D01*
X45235000Y-108498061D01*
X45195226Y-108298102D01*
X45117205Y-108109744D01*
X45003937Y-107940226D01*
X44859774Y-107796063D01*
X44690256Y-107682795D01*
X44501898Y-107604774D01*
X44301939Y-107565000D01*
X44098061Y-107565000D01*
X43898102Y-107604774D01*
X43709744Y-107682795D01*
X43540226Y-107796063D01*
X43396063Y-107940226D01*
X43282795Y-108109744D01*
X43204774Y-108298102D01*
X43165000Y-108498061D01*
X43165000Y-108701939D01*
X43204774Y-108901898D01*
X43282795Y-109090256D01*
X43315000Y-109138455D01*
X43315001Y-112633420D01*
X40554957Y-115393465D01*
X40498102Y-115404774D01*
X40385000Y-115451623D01*
X40385000Y-114166578D01*
X41095049Y-113456530D01*
X41128817Y-113428817D01*
X41239411Y-113294059D01*
X41292359Y-113195000D01*
X41321589Y-113140314D01*
X41372195Y-112973490D01*
X41374760Y-112947448D01*
X41385000Y-112843477D01*
X41385000Y-112843469D01*
X41389281Y-112800000D01*
X41385000Y-112756531D01*
X41385000Y-107338454D01*
X41417205Y-107290256D01*
X41495226Y-107101898D01*
X41535000Y-106901939D01*
X41535000Y-106898061D01*
X46765000Y-106898061D01*
X46765000Y-107101939D01*
X46804774Y-107301898D01*
X46882795Y-107490256D01*
X46996063Y-107659774D01*
X47015001Y-107678712D01*
X47015000Y-113561546D01*
X46982795Y-113609744D01*
X46904774Y-113798102D01*
X46865000Y-113998061D01*
X46865000Y-114201939D01*
X46904774Y-114401898D01*
X46982795Y-114590256D01*
X47096063Y-114759774D01*
X47240226Y-114903937D01*
X47409744Y-115017205D01*
X47598102Y-115095226D01*
X47798061Y-115135000D01*
X48001939Y-115135000D01*
X48201898Y-115095226D01*
X48390256Y-115017205D01*
X48559774Y-114903937D01*
X48703937Y-114759774D01*
X48817205Y-114590256D01*
X48895226Y-114401898D01*
X48935000Y-114201939D01*
X48935000Y-113998061D01*
X48895226Y-113798102D01*
X48817205Y-113609744D01*
X48785000Y-113561546D01*
X48785000Y-107326586D01*
X48795226Y-107301898D01*
X48835000Y-107101939D01*
X48835000Y-106898061D01*
X48795226Y-106698102D01*
X48717205Y-106509744D01*
X48603937Y-106340226D01*
X48459774Y-106196063D01*
X48290256Y-106082795D01*
X48101898Y-106004774D01*
X47901939Y-105965000D01*
X47698061Y-105965000D01*
X47498102Y-106004774D01*
X47309744Y-106082795D01*
X47140226Y-106196063D01*
X46996063Y-106340226D01*
X46882795Y-106509744D01*
X46804774Y-106698102D01*
X46765000Y-106898061D01*
X41535000Y-106898061D01*
X41535000Y-106698061D01*
X41495226Y-106498102D01*
X41417205Y-106309744D01*
X41385000Y-106261546D01*
X41385000Y-103443469D01*
X41389281Y-103400000D01*
X41385000Y-103356531D01*
X41385000Y-103356523D01*
X41372195Y-103226510D01*
X41321589Y-103059687D01*
X41239411Y-102905941D01*
X41211716Y-102872195D01*
X41156532Y-102804953D01*
X41156530Y-102804951D01*
X41128817Y-102771183D01*
X41095050Y-102743471D01*
X40106535Y-101754957D01*
X40095226Y-101698102D01*
X40017205Y-101509744D01*
X39985000Y-101461546D01*
X39985000Y-98143465D01*
X39989281Y-98099999D01*
X39985000Y-98056533D01*
X39985000Y-98056523D01*
X39972195Y-97926510D01*
X39921589Y-97759687D01*
X39839411Y-97605941D01*
X39728817Y-97471183D01*
X39695049Y-97443470D01*
X37456532Y-95204954D01*
X37428817Y-95171183D01*
X37294059Y-95060589D01*
X37140313Y-94978411D01*
X36973490Y-94927805D01*
X36843477Y-94915000D01*
X36843469Y-94915000D01*
X36800000Y-94910719D01*
X36756531Y-94915000D01*
X35885000Y-94915000D01*
X35885000Y-90150000D01*
X37911928Y-90150000D01*
X37911928Y-91850000D01*
X37924188Y-91974482D01*
X37960498Y-92094180D01*
X38019463Y-92204494D01*
X38098815Y-92301185D01*
X38195506Y-92380537D01*
X38305820Y-92439502D01*
X38425518Y-92475812D01*
X38550000Y-92488072D01*
X40250000Y-92488072D01*
X40374482Y-92475812D01*
X40494180Y-92439502D01*
X40604494Y-92380537D01*
X40701185Y-92301185D01*
X40780537Y-92204494D01*
X40839502Y-92094180D01*
X40861513Y-92021620D01*
X40993368Y-92153475D01*
X41236589Y-92315990D01*
X41506842Y-92427932D01*
X41793740Y-92485000D01*
X42086260Y-92485000D01*
X42373158Y-92427932D01*
X42643411Y-92315990D01*
X42886632Y-92153475D01*
X43093475Y-91946632D01*
X43255990Y-91703411D01*
X43367932Y-91433158D01*
X43425000Y-91146260D01*
X43425000Y-90853740D01*
X43367932Y-90566842D01*
X43255990Y-90296589D01*
X43093475Y-90053368D01*
X42886632Y-89846525D01*
X42643411Y-89684010D01*
X42373158Y-89572068D01*
X42086260Y-89515000D01*
X41793740Y-89515000D01*
X41506842Y-89572068D01*
X41236589Y-89684010D01*
X40993368Y-89846525D01*
X40861513Y-89978380D01*
X40839502Y-89905820D01*
X40780537Y-89795506D01*
X40701185Y-89698815D01*
X40604494Y-89619463D01*
X40494180Y-89560498D01*
X40374482Y-89524188D01*
X40250000Y-89511928D01*
X38550000Y-89511928D01*
X38425518Y-89524188D01*
X38305820Y-89560498D01*
X38195506Y-89619463D01*
X38098815Y-89698815D01*
X38019463Y-89795506D01*
X37960498Y-89905820D01*
X37924188Y-90025518D01*
X37911928Y-90150000D01*
X35885000Y-90150000D01*
X35885000Y-89666578D01*
X37566579Y-87985000D01*
X38361546Y-87985000D01*
X38409744Y-88017205D01*
X38598102Y-88095226D01*
X38798061Y-88135000D01*
X39001939Y-88135000D01*
X39201898Y-88095226D01*
X39390256Y-88017205D01*
X39559774Y-87903937D01*
X39703937Y-87759774D01*
X39817205Y-87590256D01*
X39895226Y-87401898D01*
X39935000Y-87201939D01*
X39935000Y-86998061D01*
X39895226Y-86798102D01*
X39817205Y-86609744D01*
X39703937Y-86440226D01*
X39559774Y-86296063D01*
X39390256Y-86182795D01*
X39201898Y-86104774D01*
X39001939Y-86065000D01*
X38798061Y-86065000D01*
X38598102Y-86104774D01*
X38409744Y-86182795D01*
X38361546Y-86215000D01*
X37243469Y-86215000D01*
X37200000Y-86210719D01*
X37156531Y-86215000D01*
X37156523Y-86215000D01*
X37026510Y-86227805D01*
X36859687Y-86278411D01*
X36791819Y-86314687D01*
X36705941Y-86360589D01*
X36604953Y-86443468D01*
X36604951Y-86443470D01*
X36571183Y-86471183D01*
X36543470Y-86504951D01*
X34404951Y-88643471D01*
X34371184Y-88671183D01*
X34343471Y-88704951D01*
X34343468Y-88704954D01*
X34260590Y-88805941D01*
X34178412Y-88959687D01*
X34127805Y-89126510D01*
X34110719Y-89300000D01*
X27660000Y-89300000D01*
X27660000Y-80314916D01*
X28530000Y-80314916D01*
X28530000Y-80565084D01*
X28578805Y-80810445D01*
X28674541Y-81041571D01*
X28813527Y-81249578D01*
X28990422Y-81426473D01*
X29198429Y-81565459D01*
X29429555Y-81661195D01*
X29674916Y-81710000D01*
X29925084Y-81710000D01*
X30170445Y-81661195D01*
X30221614Y-81640000D01*
X31411928Y-81640000D01*
X31411928Y-83160000D01*
X31428992Y-83333254D01*
X31479528Y-83499850D01*
X31561595Y-83653386D01*
X31672038Y-83787962D01*
X31806614Y-83898405D01*
X31960150Y-83980472D01*
X32126746Y-84031008D01*
X32300000Y-84048072D01*
X33300000Y-84048072D01*
X33473254Y-84031008D01*
X33639850Y-83980472D01*
X33793386Y-83898405D01*
X33927962Y-83787962D01*
X34038405Y-83653386D01*
X34120472Y-83499850D01*
X34171008Y-83333254D01*
X34188072Y-83160000D01*
X34188072Y-82071964D01*
X34415000Y-82071964D01*
X34415000Y-82728037D01*
X34435040Y-82931507D01*
X34514236Y-83192581D01*
X34642843Y-83433188D01*
X34815920Y-83644081D01*
X35026813Y-83817157D01*
X35267420Y-83945764D01*
X35528494Y-84024960D01*
X35800000Y-84051701D01*
X36071507Y-84024960D01*
X36332581Y-83945764D01*
X36573188Y-83817157D01*
X36784081Y-83644081D01*
X36957157Y-83433188D01*
X37085764Y-83192581D01*
X37164960Y-82931506D01*
X37185000Y-82728036D01*
X37185000Y-82071964D01*
X37415000Y-82071964D01*
X37415000Y-82728037D01*
X37435040Y-82931507D01*
X37514236Y-83192581D01*
X37642843Y-83433188D01*
X37815920Y-83644081D01*
X38026813Y-83817157D01*
X38267420Y-83945764D01*
X38528494Y-84024960D01*
X38800000Y-84051701D01*
X39071507Y-84024960D01*
X39332581Y-83945764D01*
X39573188Y-83817157D01*
X39784081Y-83644081D01*
X39957157Y-83433188D01*
X40085764Y-83192581D01*
X40164960Y-82931506D01*
X40185000Y-82728036D01*
X40185000Y-82071964D01*
X40415000Y-82071964D01*
X40415000Y-82728037D01*
X40435040Y-82931507D01*
X40514236Y-83192581D01*
X40642843Y-83433188D01*
X40815920Y-83644081D01*
X41026813Y-83817157D01*
X41267420Y-83945764D01*
X41528494Y-84024960D01*
X41800000Y-84051701D01*
X42071507Y-84024960D01*
X42332581Y-83945764D01*
X42573188Y-83817157D01*
X42784081Y-83644081D01*
X42957157Y-83433188D01*
X43085764Y-83192581D01*
X43164960Y-82931506D01*
X43185000Y-82728036D01*
X43185000Y-82071963D01*
X43164960Y-81868493D01*
X43085764Y-81607419D01*
X42957157Y-81366812D01*
X42784080Y-81155919D01*
X42573187Y-80982843D01*
X42332580Y-80854236D01*
X42071506Y-80775040D01*
X41800000Y-80748299D01*
X41528493Y-80775040D01*
X41267419Y-80854236D01*
X41026812Y-80982843D01*
X40815919Y-81155920D01*
X40642843Y-81366813D01*
X40514236Y-81607420D01*
X40435040Y-81868494D01*
X40415000Y-82071964D01*
X40185000Y-82071964D01*
X40185000Y-82071963D01*
X40164960Y-81868493D01*
X40085764Y-81607419D01*
X39957157Y-81366812D01*
X39784080Y-81155919D01*
X39573187Y-80982843D01*
X39332580Y-80854236D01*
X39071506Y-80775040D01*
X38800000Y-80748299D01*
X38528493Y-80775040D01*
X38267419Y-80854236D01*
X38026812Y-80982843D01*
X37815919Y-81155920D01*
X37642843Y-81366813D01*
X37514236Y-81607420D01*
X37435040Y-81868494D01*
X37415000Y-82071964D01*
X37185000Y-82071964D01*
X37185000Y-82071963D01*
X37164960Y-81868493D01*
X37085764Y-81607419D01*
X36957157Y-81366812D01*
X36784080Y-81155919D01*
X36573187Y-80982843D01*
X36332580Y-80854236D01*
X36071506Y-80775040D01*
X35800000Y-80748299D01*
X35528493Y-80775040D01*
X35267419Y-80854236D01*
X35026812Y-80982843D01*
X34815919Y-81155920D01*
X34642843Y-81366813D01*
X34514236Y-81607420D01*
X34435040Y-81868494D01*
X34415000Y-82071964D01*
X34188072Y-82071964D01*
X34188072Y-81640000D01*
X34171008Y-81466746D01*
X34120472Y-81300150D01*
X34038405Y-81146614D01*
X33927962Y-81012038D01*
X33793386Y-80901595D01*
X33639850Y-80819528D01*
X33473254Y-80768992D01*
X33300000Y-80751928D01*
X32300000Y-80751928D01*
X32126746Y-80768992D01*
X31960150Y-80819528D01*
X31806614Y-80901595D01*
X31672038Y-81012038D01*
X31561595Y-81146614D01*
X31479528Y-81300150D01*
X31428992Y-81466746D01*
X31411928Y-81640000D01*
X30221614Y-81640000D01*
X30401571Y-81565459D01*
X30609578Y-81426473D01*
X30786473Y-81249578D01*
X30925459Y-81041571D01*
X31021195Y-80810445D01*
X31070000Y-80565084D01*
X31070000Y-80314916D01*
X43530000Y-80314916D01*
X43530000Y-80565084D01*
X43578805Y-80810445D01*
X43674541Y-81041571D01*
X43813527Y-81249578D01*
X43990422Y-81426473D01*
X44198429Y-81565459D01*
X44429555Y-81661195D01*
X44674916Y-81710000D01*
X44925084Y-81710000D01*
X45170445Y-81661195D01*
X45401571Y-81565459D01*
X45609578Y-81426473D01*
X45786473Y-81249578D01*
X45925459Y-81041571D01*
X46021195Y-80810445D01*
X46070000Y-80565084D01*
X46070000Y-80314916D01*
X46021195Y-80069555D01*
X45925459Y-79838429D01*
X45786473Y-79630422D01*
X45609578Y-79453527D01*
X45401571Y-79314541D01*
X45170445Y-79218805D01*
X44925084Y-79170000D01*
X44674916Y-79170000D01*
X44429555Y-79218805D01*
X44198429Y-79314541D01*
X43990422Y-79453527D01*
X43813527Y-79630422D01*
X43674541Y-79838429D01*
X43578805Y-80069555D01*
X43530000Y-80314916D01*
X31070000Y-80314916D01*
X31021195Y-80069555D01*
X30925459Y-79838429D01*
X30786473Y-79630422D01*
X30609578Y-79453527D01*
X30401571Y-79314541D01*
X30170445Y-79218805D01*
X29925084Y-79170000D01*
X29674916Y-79170000D01*
X29429555Y-79218805D01*
X29198429Y-79314541D01*
X28990422Y-79453527D01*
X28813527Y-79630422D01*
X28674541Y-79838429D01*
X28578805Y-80069555D01*
X28530000Y-80314916D01*
X27660000Y-80314916D01*
X27660000Y-78270000D01*
X49396928Y-78270000D01*
X49396928Y-79800000D01*
X49409188Y-79924482D01*
X49445498Y-80044180D01*
X49504463Y-80154494D01*
X49583815Y-80251185D01*
X49680506Y-80330537D01*
X49790820Y-80389502D01*
X49910518Y-80425812D01*
X49988459Y-80433488D01*
X49907552Y-80487549D01*
X49712549Y-80682552D01*
X49559336Y-80911851D01*
X49453801Y-81166635D01*
X49400000Y-81437112D01*
X49400000Y-81712888D01*
X49453801Y-81983365D01*
X49559336Y-82238149D01*
X49712549Y-82467448D01*
X49907552Y-82662451D01*
X50136851Y-82815664D01*
X50207674Y-82845000D01*
X50136851Y-82874336D01*
X49907552Y-83027549D01*
X49712549Y-83222552D01*
X49559336Y-83451851D01*
X49453801Y-83706635D01*
X49400000Y-83977112D01*
X49400000Y-84252888D01*
X49453801Y-84523365D01*
X49559336Y-84778149D01*
X49712549Y-85007448D01*
X49907552Y-85202451D01*
X50136851Y-85355664D01*
X50207674Y-85385000D01*
X50136851Y-85414336D01*
X49907552Y-85567549D01*
X49712549Y-85762552D01*
X49559336Y-85991851D01*
X49453801Y-86246635D01*
X49400000Y-86517112D01*
X49400000Y-86792888D01*
X49453801Y-87063365D01*
X49559336Y-87318149D01*
X49712549Y-87547448D01*
X49907552Y-87742451D01*
X50136851Y-87895664D01*
X50207674Y-87925000D01*
X50136851Y-87954336D01*
X49907552Y-88107549D01*
X49712549Y-88302552D01*
X49559336Y-88531851D01*
X49453801Y-88786635D01*
X49400000Y-89057112D01*
X49400000Y-89332888D01*
X49453801Y-89603365D01*
X49559336Y-89858149D01*
X49712549Y-90087448D01*
X49907552Y-90282451D01*
X50136851Y-90435664D01*
X50207674Y-90465000D01*
X50136851Y-90494336D01*
X49907552Y-90647549D01*
X49712549Y-90842552D01*
X49559336Y-91071851D01*
X49453801Y-91326635D01*
X49400000Y-91597112D01*
X49400000Y-91872888D01*
X49453801Y-92143365D01*
X49559336Y-92398149D01*
X49712549Y-92627448D01*
X49907552Y-92822451D01*
X50136851Y-92975664D01*
X50207674Y-93005000D01*
X50136851Y-93034336D01*
X49907552Y-93187549D01*
X49712549Y-93382552D01*
X49559336Y-93611851D01*
X49453801Y-93866635D01*
X49400000Y-94137112D01*
X49400000Y-94412888D01*
X49453801Y-94683365D01*
X49559336Y-94938149D01*
X49712549Y-95167448D01*
X49907552Y-95362451D01*
X50136851Y-95515664D01*
X50207674Y-95545000D01*
X50136851Y-95574336D01*
X49907552Y-95727549D01*
X49712549Y-95922552D01*
X49559336Y-96151851D01*
X49453801Y-96406635D01*
X49400000Y-96677112D01*
X49400000Y-96952888D01*
X49453801Y-97223365D01*
X49559336Y-97478149D01*
X49712549Y-97707448D01*
X49907552Y-97902451D01*
X50136851Y-98055664D01*
X50207674Y-98085000D01*
X50136851Y-98114336D01*
X49907552Y-98267549D01*
X49712549Y-98462552D01*
X49559336Y-98691851D01*
X49453801Y-98946635D01*
X49400000Y-99217112D01*
X49400000Y-99492888D01*
X49453801Y-99763365D01*
X49559336Y-100018149D01*
X49712549Y-100247448D01*
X49907552Y-100442451D01*
X50136851Y-100595664D01*
X50207674Y-100625000D01*
X50136851Y-100654336D01*
X49907552Y-100807549D01*
X49712549Y-101002552D01*
X49559336Y-101231851D01*
X49453801Y-101486635D01*
X49400000Y-101757112D01*
X49400000Y-102032888D01*
X49453801Y-102303365D01*
X49559336Y-102558149D01*
X49712549Y-102787448D01*
X49907552Y-102982451D01*
X50136851Y-103135664D01*
X50207674Y-103165000D01*
X50136851Y-103194336D01*
X49907552Y-103347549D01*
X49712549Y-103542552D01*
X49559336Y-103771851D01*
X49453801Y-104026635D01*
X49400000Y-104297112D01*
X49400000Y-104572888D01*
X49453801Y-104843365D01*
X49559336Y-105098149D01*
X49712549Y-105327448D01*
X49907552Y-105522451D01*
X50136851Y-105675664D01*
X50207674Y-105705000D01*
X50136851Y-105734336D01*
X49907552Y-105887549D01*
X49712549Y-106082552D01*
X49559336Y-106311851D01*
X49453801Y-106566635D01*
X49400000Y-106837112D01*
X49400000Y-107112888D01*
X49453801Y-107383365D01*
X49559336Y-107638149D01*
X49712549Y-107867448D01*
X49907552Y-108062451D01*
X50136851Y-108215664D01*
X50207674Y-108245000D01*
X50136851Y-108274336D01*
X49907552Y-108427549D01*
X49712549Y-108622552D01*
X49559336Y-108851851D01*
X49453801Y-109106635D01*
X49400000Y-109377112D01*
X49400000Y-109652888D01*
X49453801Y-109923365D01*
X49559336Y-110178149D01*
X49712549Y-110407448D01*
X49907552Y-110602451D01*
X50136851Y-110755664D01*
X50207674Y-110785000D01*
X50136851Y-110814336D01*
X49907552Y-110967549D01*
X49712549Y-111162552D01*
X49559336Y-111391851D01*
X49453801Y-111646635D01*
X49400000Y-111917112D01*
X49400000Y-112192888D01*
X49453801Y-112463365D01*
X49559336Y-112718149D01*
X49712549Y-112947448D01*
X49907552Y-113142451D01*
X50136851Y-113295664D01*
X50207674Y-113325000D01*
X50136851Y-113354336D01*
X49907552Y-113507549D01*
X49712549Y-113702552D01*
X49559336Y-113931851D01*
X49453801Y-114186635D01*
X49400000Y-114457112D01*
X49400000Y-114732888D01*
X49453801Y-115003365D01*
X49559336Y-115258149D01*
X49712549Y-115487448D01*
X49907552Y-115682451D01*
X50136851Y-115835664D01*
X50391635Y-115941199D01*
X50662112Y-115995000D01*
X50937888Y-115995000D01*
X51208365Y-115941199D01*
X51463149Y-115835664D01*
X51692448Y-115682451D01*
X51887451Y-115487448D01*
X52040664Y-115258149D01*
X52146199Y-115003365D01*
X52200000Y-114732888D01*
X52200000Y-114457112D01*
X52146199Y-114186635D01*
X52040664Y-113931851D01*
X51887451Y-113702552D01*
X51692448Y-113507549D01*
X51463149Y-113354336D01*
X51392326Y-113325000D01*
X51463149Y-113295664D01*
X51692448Y-113142451D01*
X51887451Y-112947448D01*
X52040664Y-112718149D01*
X52146199Y-112463365D01*
X52200000Y-112192888D01*
X52200000Y-111917112D01*
X52146199Y-111646635D01*
X52040664Y-111391851D01*
X51887451Y-111162552D01*
X51692448Y-110967549D01*
X51463149Y-110814336D01*
X51392326Y-110785000D01*
X51463149Y-110755664D01*
X51692448Y-110602451D01*
X51887451Y-110407448D01*
X52040664Y-110178149D01*
X52146199Y-109923365D01*
X52200000Y-109652888D01*
X52200000Y-109377112D01*
X52146199Y-109106635D01*
X52040664Y-108851851D01*
X51887451Y-108622552D01*
X51692448Y-108427549D01*
X51463149Y-108274336D01*
X51392326Y-108245000D01*
X51463149Y-108215664D01*
X51692448Y-108062451D01*
X51887451Y-107867448D01*
X52040664Y-107638149D01*
X52146199Y-107383365D01*
X52200000Y-107112888D01*
X52200000Y-106837112D01*
X52146199Y-106566635D01*
X52040664Y-106311851D01*
X51887451Y-106082552D01*
X51692448Y-105887549D01*
X51463149Y-105734336D01*
X51392326Y-105705000D01*
X51463149Y-105675664D01*
X51692448Y-105522451D01*
X51887451Y-105327448D01*
X52040664Y-105098149D01*
X52146199Y-104843365D01*
X52200000Y-104572888D01*
X52200000Y-104297112D01*
X52146199Y-104026635D01*
X52040664Y-103771851D01*
X51887451Y-103542552D01*
X51692448Y-103347549D01*
X51463149Y-103194336D01*
X51392326Y-103165000D01*
X51463149Y-103135664D01*
X51692448Y-102982451D01*
X51887451Y-102787448D01*
X52040664Y-102558149D01*
X52146199Y-102303365D01*
X52200000Y-102032888D01*
X52200000Y-101757112D01*
X52146199Y-101486635D01*
X52040664Y-101231851D01*
X51887451Y-101002552D01*
X51692448Y-100807549D01*
X51463149Y-100654336D01*
X51392326Y-100625000D01*
X51463149Y-100595664D01*
X51692448Y-100442451D01*
X51887451Y-100247448D01*
X52040664Y-100018149D01*
X52146199Y-99763365D01*
X52200000Y-99492888D01*
X52200000Y-99217112D01*
X52146199Y-98946635D01*
X52040664Y-98691851D01*
X51887451Y-98462552D01*
X51692448Y-98267549D01*
X51463149Y-98114336D01*
X51392326Y-98085000D01*
X51463149Y-98055664D01*
X51692448Y-97902451D01*
X51887451Y-97707448D01*
X52040664Y-97478149D01*
X52146199Y-97223365D01*
X52200000Y-96952888D01*
X52200000Y-96677112D01*
X52146199Y-96406635D01*
X52040664Y-96151851D01*
X51887451Y-95922552D01*
X51692448Y-95727549D01*
X51463149Y-95574336D01*
X51392326Y-95545000D01*
X51463149Y-95515664D01*
X51692448Y-95362451D01*
X51887451Y-95167448D01*
X52040664Y-94938149D01*
X52146199Y-94683365D01*
X52200000Y-94412888D01*
X52200000Y-94137112D01*
X52146199Y-93866635D01*
X52040664Y-93611851D01*
X51887451Y-93382552D01*
X51692448Y-93187549D01*
X51463149Y-93034336D01*
X51392326Y-93005000D01*
X51463149Y-92975664D01*
X51692448Y-92822451D01*
X51887451Y-92627448D01*
X52040664Y-92398149D01*
X52146199Y-92143365D01*
X52200000Y-91872888D01*
X52200000Y-91597112D01*
X52146199Y-91326635D01*
X52040664Y-91071851D01*
X51887451Y-90842552D01*
X51692448Y-90647549D01*
X51463149Y-90494336D01*
X51392326Y-90465000D01*
X51463149Y-90435664D01*
X51692448Y-90282451D01*
X51887451Y-90087448D01*
X52040664Y-89858149D01*
X52146199Y-89603365D01*
X52200000Y-89332888D01*
X52200000Y-89057112D01*
X52146199Y-88786635D01*
X52040664Y-88531851D01*
X51887451Y-88302552D01*
X51692448Y-88107549D01*
X51463149Y-87954336D01*
X51392326Y-87925000D01*
X51463149Y-87895664D01*
X51692448Y-87742451D01*
X51887451Y-87547448D01*
X52040664Y-87318149D01*
X52146199Y-87063365D01*
X52200000Y-86792888D01*
X52200000Y-86517112D01*
X52146199Y-86246635D01*
X52040664Y-85991851D01*
X51887451Y-85762552D01*
X51692448Y-85567549D01*
X51463149Y-85414336D01*
X51392326Y-85385000D01*
X51463149Y-85355664D01*
X51692448Y-85202451D01*
X51887451Y-85007448D01*
X52040664Y-84778149D01*
X52146199Y-84523365D01*
X52200000Y-84252888D01*
X52200000Y-83977112D01*
X52146199Y-83706635D01*
X52040664Y-83451851D01*
X51887451Y-83222552D01*
X51692448Y-83027549D01*
X51463149Y-82874336D01*
X51392326Y-82845000D01*
X51463149Y-82815664D01*
X51692448Y-82662451D01*
X51887451Y-82467448D01*
X52040664Y-82238149D01*
X52146199Y-81983365D01*
X52200000Y-81712888D01*
X52200000Y-81437112D01*
X52146199Y-81166635D01*
X52040664Y-80911851D01*
X51887451Y-80682552D01*
X51692448Y-80487549D01*
X51611541Y-80433488D01*
X51689482Y-80425812D01*
X51809180Y-80389502D01*
X51919494Y-80330537D01*
X52016185Y-80251185D01*
X52095537Y-80154494D01*
X52154502Y-80044180D01*
X52190812Y-79924482D01*
X52203072Y-79800000D01*
X52203072Y-78270000D01*
X64636928Y-78270000D01*
X64636928Y-79800000D01*
X64649188Y-79924482D01*
X64685498Y-80044180D01*
X64744463Y-80154494D01*
X64823815Y-80251185D01*
X64920506Y-80330537D01*
X65030820Y-80389502D01*
X65150518Y-80425812D01*
X65228459Y-80433488D01*
X65147552Y-80487549D01*
X64952549Y-80682552D01*
X64799336Y-80911851D01*
X64693801Y-81166635D01*
X64640000Y-81437112D01*
X64640000Y-81712888D01*
X64693801Y-81983365D01*
X64799336Y-82238149D01*
X64952549Y-82467448D01*
X65147552Y-82662451D01*
X65376851Y-82815664D01*
X65447674Y-82845000D01*
X65376851Y-82874336D01*
X65147552Y-83027549D01*
X64952549Y-83222552D01*
X64799336Y-83451851D01*
X64693801Y-83706635D01*
X64640000Y-83977112D01*
X64640000Y-84252888D01*
X64693801Y-84523365D01*
X64799336Y-84778149D01*
X64952549Y-85007448D01*
X65147552Y-85202451D01*
X65376851Y-85355664D01*
X65447674Y-85385000D01*
X65376851Y-85414336D01*
X65147552Y-85567549D01*
X64952549Y-85762552D01*
X64799336Y-85991851D01*
X64693801Y-86246635D01*
X64640000Y-86517112D01*
X64640000Y-86792888D01*
X64693801Y-87063365D01*
X64799336Y-87318149D01*
X64952549Y-87547448D01*
X65147552Y-87742451D01*
X65376851Y-87895664D01*
X65447674Y-87925000D01*
X65376851Y-87954336D01*
X65147552Y-88107549D01*
X64952549Y-88302552D01*
X64799336Y-88531851D01*
X64693801Y-88786635D01*
X64640000Y-89057112D01*
X64640000Y-89332888D01*
X64693801Y-89603365D01*
X64799336Y-89858149D01*
X64952549Y-90087448D01*
X65147552Y-90282451D01*
X65376851Y-90435664D01*
X65447674Y-90465000D01*
X65376851Y-90494336D01*
X65147552Y-90647549D01*
X64952549Y-90842552D01*
X64799336Y-91071851D01*
X64693801Y-91326635D01*
X64640000Y-91597112D01*
X64640000Y-91872888D01*
X64693801Y-92143365D01*
X64799336Y-92398149D01*
X64952549Y-92627448D01*
X65147552Y-92822451D01*
X65376851Y-92975664D01*
X65447674Y-93005000D01*
X65376851Y-93034336D01*
X65147552Y-93187549D01*
X64952549Y-93382552D01*
X64799336Y-93611851D01*
X64693801Y-93866635D01*
X64640000Y-94137112D01*
X64640000Y-94412888D01*
X64693801Y-94683365D01*
X64799336Y-94938149D01*
X64952549Y-95167448D01*
X65147552Y-95362451D01*
X65376851Y-95515664D01*
X65447674Y-95545000D01*
X65376851Y-95574336D01*
X65147552Y-95727549D01*
X64952549Y-95922552D01*
X64799336Y-96151851D01*
X64693801Y-96406635D01*
X64640000Y-96677112D01*
X64640000Y-96952888D01*
X64693801Y-97223365D01*
X64799336Y-97478149D01*
X64952549Y-97707448D01*
X65147552Y-97902451D01*
X65376851Y-98055664D01*
X65447674Y-98085000D01*
X65376851Y-98114336D01*
X65147552Y-98267549D01*
X64952549Y-98462552D01*
X64799336Y-98691851D01*
X64693801Y-98946635D01*
X64640000Y-99217112D01*
X64640000Y-99492888D01*
X64693801Y-99763365D01*
X64799336Y-100018149D01*
X64952549Y-100247448D01*
X65147552Y-100442451D01*
X65376851Y-100595664D01*
X65447674Y-100625000D01*
X65376851Y-100654336D01*
X65147552Y-100807549D01*
X64952549Y-101002552D01*
X64799336Y-101231851D01*
X64693801Y-101486635D01*
X64640000Y-101757112D01*
X64640000Y-102032888D01*
X64693801Y-102303365D01*
X64799336Y-102558149D01*
X64952549Y-102787448D01*
X65147552Y-102982451D01*
X65376851Y-103135664D01*
X65447674Y-103165000D01*
X65376851Y-103194336D01*
X65147552Y-103347549D01*
X64952549Y-103542552D01*
X64799336Y-103771851D01*
X64693801Y-104026635D01*
X64640000Y-104297112D01*
X64640000Y-104572888D01*
X64693801Y-104843365D01*
X64799336Y-105098149D01*
X64952549Y-105327448D01*
X65147552Y-105522451D01*
X65376851Y-105675664D01*
X65447674Y-105705000D01*
X65376851Y-105734336D01*
X65147552Y-105887549D01*
X64952549Y-106082552D01*
X64799336Y-106311851D01*
X64693801Y-106566635D01*
X64640000Y-106837112D01*
X64640000Y-107112888D01*
X64693801Y-107383365D01*
X64799336Y-107638149D01*
X64952549Y-107867448D01*
X65147552Y-108062451D01*
X65376851Y-108215664D01*
X65447674Y-108245000D01*
X65376851Y-108274336D01*
X65147552Y-108427549D01*
X64952549Y-108622552D01*
X64799336Y-108851851D01*
X64693801Y-109106635D01*
X64640000Y-109377112D01*
X64640000Y-109652888D01*
X64693801Y-109923365D01*
X64799336Y-110178149D01*
X64952549Y-110407448D01*
X65147552Y-110602451D01*
X65376851Y-110755664D01*
X65447674Y-110785000D01*
X65376851Y-110814336D01*
X65147552Y-110967549D01*
X64952549Y-111162552D01*
X64799336Y-111391851D01*
X64693801Y-111646635D01*
X64640000Y-111917112D01*
X64640000Y-112192888D01*
X64693801Y-112463365D01*
X64799336Y-112718149D01*
X64952549Y-112947448D01*
X65147552Y-113142451D01*
X65376851Y-113295664D01*
X65447674Y-113325000D01*
X65376851Y-113354336D01*
X65147552Y-113507549D01*
X64952549Y-113702552D01*
X64799336Y-113931851D01*
X64693801Y-114186635D01*
X64640000Y-114457112D01*
X64640000Y-114732888D01*
X64693801Y-115003365D01*
X64799336Y-115258149D01*
X64952549Y-115487448D01*
X65147552Y-115682451D01*
X65376851Y-115835664D01*
X65631635Y-115941199D01*
X65902112Y-115995000D01*
X66177888Y-115995000D01*
X66448365Y-115941199D01*
X66703149Y-115835664D01*
X66932448Y-115682451D01*
X67127451Y-115487448D01*
X67280664Y-115258149D01*
X67386199Y-115003365D01*
X67440000Y-114732888D01*
X67440000Y-114457112D01*
X67386199Y-114186635D01*
X67280664Y-113931851D01*
X67127451Y-113702552D01*
X66932448Y-113507549D01*
X66703149Y-113354336D01*
X66632326Y-113325000D01*
X66703149Y-113295664D01*
X66932448Y-113142451D01*
X67127451Y-112947448D01*
X67280664Y-112718149D01*
X67386199Y-112463365D01*
X67440000Y-112192888D01*
X67440000Y-111917112D01*
X67386199Y-111646635D01*
X67280664Y-111391851D01*
X67127451Y-111162552D01*
X66932448Y-110967549D01*
X66703149Y-110814336D01*
X66632326Y-110785000D01*
X66703149Y-110755664D01*
X66932448Y-110602451D01*
X67127451Y-110407448D01*
X67280664Y-110178149D01*
X67386199Y-109923365D01*
X67440000Y-109652888D01*
X67440000Y-109377112D01*
X67386199Y-109106635D01*
X67280664Y-108851851D01*
X67127451Y-108622552D01*
X66932448Y-108427549D01*
X66703149Y-108274336D01*
X66632326Y-108245000D01*
X66703149Y-108215664D01*
X66932448Y-108062451D01*
X67127451Y-107867448D01*
X67280664Y-107638149D01*
X67386199Y-107383365D01*
X67440000Y-107112888D01*
X67440000Y-106837112D01*
X67386199Y-106566635D01*
X67280664Y-106311851D01*
X67127451Y-106082552D01*
X66932448Y-105887549D01*
X66703149Y-105734336D01*
X66632326Y-105705000D01*
X66703149Y-105675664D01*
X66932448Y-105522451D01*
X67127451Y-105327448D01*
X67280664Y-105098149D01*
X67386199Y-104843365D01*
X67440000Y-104572888D01*
X67440000Y-104297112D01*
X67386199Y-104026635D01*
X67280664Y-103771851D01*
X67127451Y-103542552D01*
X66932448Y-103347549D01*
X66703149Y-103194336D01*
X66632326Y-103165000D01*
X66703149Y-103135664D01*
X66932448Y-102982451D01*
X67127451Y-102787448D01*
X67280664Y-102558149D01*
X67386199Y-102303365D01*
X67440000Y-102032888D01*
X67440000Y-101757112D01*
X67386199Y-101486635D01*
X67280664Y-101231851D01*
X67127451Y-101002552D01*
X66932448Y-100807549D01*
X66703149Y-100654336D01*
X66632326Y-100625000D01*
X66703149Y-100595664D01*
X66932448Y-100442451D01*
X67127451Y-100247448D01*
X67280664Y-100018149D01*
X67386199Y-99763365D01*
X67440000Y-99492888D01*
X67440000Y-99217112D01*
X67386199Y-98946635D01*
X67280664Y-98691851D01*
X67127451Y-98462552D01*
X66932448Y-98267549D01*
X66703149Y-98114336D01*
X66632326Y-98085000D01*
X66703149Y-98055664D01*
X66932448Y-97902451D01*
X67127451Y-97707448D01*
X67280664Y-97478149D01*
X67386199Y-97223365D01*
X67440000Y-96952888D01*
X67440000Y-96677112D01*
X67386199Y-96406635D01*
X67280664Y-96151851D01*
X67127451Y-95922552D01*
X66932448Y-95727549D01*
X66703149Y-95574336D01*
X66632326Y-95545000D01*
X66703149Y-95515664D01*
X66932448Y-95362451D01*
X67127451Y-95167448D01*
X67280664Y-94938149D01*
X67386199Y-94683365D01*
X67440000Y-94412888D01*
X67440000Y-94137112D01*
X67386199Y-93866635D01*
X67280664Y-93611851D01*
X67127451Y-93382552D01*
X66932448Y-93187549D01*
X66703149Y-93034336D01*
X66632326Y-93005000D01*
X66703149Y-92975664D01*
X66932448Y-92822451D01*
X67127451Y-92627448D01*
X67280664Y-92398149D01*
X67386199Y-92143365D01*
X67440000Y-91872888D01*
X67440000Y-91597112D01*
X67386199Y-91326635D01*
X67280664Y-91071851D01*
X67127451Y-90842552D01*
X66932448Y-90647549D01*
X66703149Y-90494336D01*
X66632326Y-90465000D01*
X66703149Y-90435664D01*
X66932448Y-90282451D01*
X67127451Y-90087448D01*
X67280664Y-89858149D01*
X67386199Y-89603365D01*
X67440000Y-89332888D01*
X67440000Y-89057112D01*
X67386199Y-88786635D01*
X67280664Y-88531851D01*
X67127451Y-88302552D01*
X66932448Y-88107549D01*
X66703149Y-87954336D01*
X66632326Y-87925000D01*
X66703149Y-87895664D01*
X66932448Y-87742451D01*
X67127451Y-87547448D01*
X67132428Y-87540000D01*
X69388422Y-87540000D01*
X69543466Y-87695044D01*
X69571183Y-87728817D01*
X69705941Y-87839411D01*
X69859687Y-87921589D01*
X70026510Y-87972195D01*
X70156523Y-87985000D01*
X70156533Y-87985000D01*
X70199999Y-87989281D01*
X70243466Y-87985000D01*
X73415375Y-87985000D01*
X73424188Y-88074482D01*
X73460498Y-88194180D01*
X73519463Y-88304494D01*
X73598815Y-88401185D01*
X73695506Y-88480537D01*
X73805820Y-88539502D01*
X73878380Y-88561513D01*
X73746525Y-88693368D01*
X73584010Y-88936589D01*
X73472068Y-89206842D01*
X73415000Y-89493740D01*
X73415000Y-89786260D01*
X73472068Y-90073158D01*
X73584010Y-90343411D01*
X73746525Y-90586632D01*
X73953368Y-90793475D01*
X74127760Y-90910000D01*
X73953368Y-91026525D01*
X73746525Y-91233368D01*
X73584010Y-91476589D01*
X73472068Y-91746842D01*
X73415000Y-92033740D01*
X73415000Y-92326260D01*
X73472068Y-92613158D01*
X73584010Y-92883411D01*
X73746525Y-93126632D01*
X73953368Y-93333475D01*
X74127760Y-93450000D01*
X73953368Y-93566525D01*
X73746525Y-93773368D01*
X73584010Y-94016589D01*
X73472068Y-94286842D01*
X73415000Y-94573740D01*
X73415000Y-94866260D01*
X73472068Y-95153158D01*
X73584010Y-95423411D01*
X73746525Y-95666632D01*
X73953368Y-95873475D01*
X74127760Y-95990000D01*
X73953368Y-96106525D01*
X73746525Y-96313368D01*
X73584010Y-96556589D01*
X73472068Y-96826842D01*
X73415000Y-97113740D01*
X73415000Y-97406260D01*
X73472068Y-97693158D01*
X73584010Y-97963411D01*
X73746525Y-98206632D01*
X73953368Y-98413475D01*
X74127760Y-98530000D01*
X73953368Y-98646525D01*
X73746525Y-98853368D01*
X73584010Y-99096589D01*
X73472068Y-99366842D01*
X73415000Y-99653740D01*
X73415000Y-99946260D01*
X73472068Y-100233158D01*
X73584010Y-100503411D01*
X73746525Y-100746632D01*
X73953368Y-100953475D01*
X74196589Y-101115990D01*
X74466842Y-101227932D01*
X74753740Y-101285000D01*
X75046260Y-101285000D01*
X75333158Y-101227932D01*
X75603411Y-101115990D01*
X75846632Y-100953475D01*
X76053475Y-100746632D01*
X76215990Y-100503411D01*
X76327932Y-100233158D01*
X76371458Y-100014337D01*
X82308520Y-100014337D01*
X82308520Y-100356103D01*
X82375195Y-100691301D01*
X82505983Y-101007051D01*
X82695857Y-101291218D01*
X82937522Y-101532883D01*
X83221689Y-101722757D01*
X83537439Y-101853545D01*
X83872637Y-101920220D01*
X84214403Y-101920220D01*
X84549601Y-101853545D01*
X84865351Y-101722757D01*
X85149518Y-101532883D01*
X85391183Y-101291218D01*
X85581057Y-101007051D01*
X85711845Y-100691301D01*
X85778520Y-100356103D01*
X85778520Y-100014337D01*
X85711845Y-99679139D01*
X85581057Y-99363389D01*
X85391183Y-99079222D01*
X85149518Y-98837557D01*
X84865351Y-98647683D01*
X84549601Y-98516895D01*
X84214403Y-98450220D01*
X83872637Y-98450220D01*
X83537439Y-98516895D01*
X83221689Y-98647683D01*
X82937522Y-98837557D01*
X82695857Y-99079222D01*
X82505983Y-99363389D01*
X82375195Y-99679139D01*
X82308520Y-100014337D01*
X76371458Y-100014337D01*
X76385000Y-99946260D01*
X76385000Y-99653740D01*
X76327932Y-99366842D01*
X76215990Y-99096589D01*
X76053475Y-98853368D01*
X75846632Y-98646525D01*
X75672240Y-98530000D01*
X75846632Y-98413475D01*
X76053475Y-98206632D01*
X76215990Y-97963411D01*
X76327932Y-97693158D01*
X76385000Y-97406260D01*
X76385000Y-97113740D01*
X76327932Y-96826842D01*
X76215990Y-96556589D01*
X76053475Y-96313368D01*
X75846632Y-96106525D01*
X75672240Y-95990000D01*
X75846632Y-95873475D01*
X76053475Y-95666632D01*
X76215990Y-95423411D01*
X76327932Y-95153158D01*
X76385000Y-94866260D01*
X76385000Y-94573740D01*
X76327932Y-94286842D01*
X76215990Y-94016589D01*
X76053475Y-93773368D01*
X75846632Y-93566525D01*
X75672240Y-93450000D01*
X75846632Y-93333475D01*
X76053475Y-93126632D01*
X76215990Y-92883411D01*
X76327932Y-92613158D01*
X76385000Y-92326260D01*
X76385000Y-92033740D01*
X76327932Y-91746842D01*
X76215990Y-91476589D01*
X76053475Y-91233368D01*
X75846632Y-91026525D01*
X75672240Y-90910000D01*
X75846632Y-90793475D01*
X76053475Y-90586632D01*
X76215990Y-90343411D01*
X76327932Y-90073158D01*
X76385000Y-89786260D01*
X76385000Y-89493740D01*
X76327932Y-89206842D01*
X76215990Y-88936589D01*
X76053475Y-88693368D01*
X75921620Y-88561513D01*
X75994180Y-88539502D01*
X76104494Y-88480537D01*
X76201185Y-88401185D01*
X76280537Y-88304494D01*
X76339502Y-88194180D01*
X76375812Y-88074482D01*
X76388072Y-87950000D01*
X76388072Y-86532017D01*
X82311060Y-86532017D01*
X82311060Y-86873783D01*
X82377735Y-87208981D01*
X82508523Y-87524731D01*
X82698397Y-87808898D01*
X82940062Y-88050563D01*
X83224229Y-88240437D01*
X83539979Y-88371225D01*
X83875177Y-88437900D01*
X84216943Y-88437900D01*
X84552141Y-88371225D01*
X84867891Y-88240437D01*
X85152058Y-88050563D01*
X85393723Y-87808898D01*
X85583597Y-87524731D01*
X85714385Y-87208981D01*
X85781060Y-86873783D01*
X85781060Y-86532017D01*
X85714385Y-86196819D01*
X85583597Y-85881069D01*
X85393723Y-85596902D01*
X85152058Y-85355237D01*
X84867891Y-85165363D01*
X84552141Y-85034575D01*
X84216943Y-84967900D01*
X83875177Y-84967900D01*
X83539979Y-85034575D01*
X83224229Y-85165363D01*
X82940062Y-85355237D01*
X82698397Y-85596902D01*
X82508523Y-85881069D01*
X82377735Y-86196819D01*
X82311060Y-86532017D01*
X76388072Y-86532017D01*
X76388072Y-86250000D01*
X76375812Y-86125518D01*
X76339502Y-86005820D01*
X76280537Y-85895506D01*
X76201185Y-85798815D01*
X76104494Y-85719463D01*
X75994180Y-85660498D01*
X75874482Y-85624188D01*
X75750000Y-85611928D01*
X74050000Y-85611928D01*
X73925518Y-85624188D01*
X73805820Y-85660498D01*
X73695506Y-85719463D01*
X73598815Y-85798815D01*
X73519463Y-85895506D01*
X73460498Y-86005820D01*
X73424188Y-86125518D01*
X73415375Y-86215000D01*
X70566578Y-86215000D01*
X70411534Y-86059956D01*
X70383817Y-86026183D01*
X70249059Y-85915589D01*
X70095313Y-85833411D01*
X69928490Y-85782805D01*
X69798477Y-85770000D01*
X69798469Y-85770000D01*
X69755000Y-85765719D01*
X69711531Y-85770000D01*
X67132428Y-85770000D01*
X67127451Y-85762552D01*
X66932448Y-85567549D01*
X66703149Y-85414336D01*
X66632326Y-85385000D01*
X66703149Y-85355664D01*
X66932448Y-85202451D01*
X67127451Y-85007448D01*
X67280664Y-84778149D01*
X67386199Y-84523365D01*
X67440000Y-84252888D01*
X67440000Y-83977112D01*
X67386199Y-83706635D01*
X67280664Y-83451851D01*
X67127451Y-83222552D01*
X66932448Y-83027549D01*
X66703149Y-82874336D01*
X66632326Y-82845000D01*
X66703149Y-82815664D01*
X66932448Y-82662451D01*
X67127451Y-82467448D01*
X67280664Y-82238149D01*
X67386199Y-81983365D01*
X67440000Y-81712888D01*
X67440000Y-81437112D01*
X67386199Y-81166635D01*
X67280664Y-80911851D01*
X67127451Y-80682552D01*
X66932448Y-80487549D01*
X66851541Y-80433488D01*
X66929482Y-80425812D01*
X67049180Y-80389502D01*
X67159494Y-80330537D01*
X67256185Y-80251185D01*
X67335537Y-80154494D01*
X67394502Y-80044180D01*
X67430812Y-79924482D01*
X67443072Y-79800000D01*
X67443072Y-78270000D01*
X67430812Y-78145518D01*
X67394502Y-78025820D01*
X67335537Y-77915506D01*
X67256185Y-77818815D01*
X67159494Y-77739463D01*
X67049180Y-77680498D01*
X66929482Y-77644188D01*
X66805000Y-77631928D01*
X65275000Y-77631928D01*
X65150518Y-77644188D01*
X65030820Y-77680498D01*
X64920506Y-77739463D01*
X64823815Y-77818815D01*
X64744463Y-77915506D01*
X64685498Y-78025820D01*
X64649188Y-78145518D01*
X64636928Y-78270000D01*
X52203072Y-78270000D01*
X52190812Y-78145518D01*
X52154502Y-78025820D01*
X52095537Y-77915506D01*
X52016185Y-77818815D01*
X51919494Y-77739463D01*
X51809180Y-77680498D01*
X51689482Y-77644188D01*
X51565000Y-77631928D01*
X50035000Y-77631928D01*
X49910518Y-77644188D01*
X49790820Y-77680498D01*
X49680506Y-77739463D01*
X49583815Y-77818815D01*
X49504463Y-77915506D01*
X49445498Y-78025820D01*
X49409188Y-78145518D01*
X49396928Y-78270000D01*
X27660000Y-78270000D01*
X27660000Y-70714916D01*
X28530000Y-70714916D01*
X28530000Y-70965084D01*
X28578805Y-71210445D01*
X28674541Y-71441571D01*
X28813527Y-71649578D01*
X28990422Y-71826473D01*
X29198429Y-71965459D01*
X29429555Y-72061195D01*
X29674916Y-72110000D01*
X29925084Y-72110000D01*
X30170445Y-72061195D01*
X30221614Y-72040000D01*
X31411928Y-72040000D01*
X31411928Y-73560000D01*
X31428992Y-73733254D01*
X31479528Y-73899850D01*
X31561595Y-74053386D01*
X31672038Y-74187962D01*
X31806614Y-74298405D01*
X31960150Y-74380472D01*
X32126746Y-74431008D01*
X32300000Y-74448072D01*
X33300000Y-74448072D01*
X33473254Y-74431008D01*
X33639850Y-74380472D01*
X33793386Y-74298405D01*
X33927962Y-74187962D01*
X34038405Y-74053386D01*
X34120472Y-73899850D01*
X34171008Y-73733254D01*
X34188072Y-73560000D01*
X34188072Y-72471964D01*
X34415000Y-72471964D01*
X34415000Y-73128037D01*
X34435040Y-73331507D01*
X34514236Y-73592581D01*
X34642843Y-73833188D01*
X34815920Y-74044081D01*
X35026813Y-74217157D01*
X35267420Y-74345764D01*
X35528494Y-74424960D01*
X35800000Y-74451701D01*
X36071507Y-74424960D01*
X36332581Y-74345764D01*
X36573188Y-74217157D01*
X36784081Y-74044081D01*
X36957157Y-73833188D01*
X37085764Y-73592581D01*
X37164960Y-73331506D01*
X37185000Y-73128036D01*
X37185000Y-72471964D01*
X37415000Y-72471964D01*
X37415000Y-73128037D01*
X37435040Y-73331507D01*
X37514236Y-73592581D01*
X37642843Y-73833188D01*
X37815920Y-74044081D01*
X38026813Y-74217157D01*
X38267420Y-74345764D01*
X38528494Y-74424960D01*
X38800000Y-74451701D01*
X39071507Y-74424960D01*
X39332581Y-74345764D01*
X39573188Y-74217157D01*
X39784081Y-74044081D01*
X39957157Y-73833188D01*
X40085764Y-73592581D01*
X40164960Y-73331506D01*
X40185000Y-73128036D01*
X40185000Y-72471964D01*
X40415000Y-72471964D01*
X40415000Y-73128037D01*
X40435040Y-73331507D01*
X40514236Y-73592581D01*
X40642843Y-73833188D01*
X40815920Y-74044081D01*
X41026813Y-74217157D01*
X41267420Y-74345764D01*
X41528494Y-74424960D01*
X41800000Y-74451701D01*
X42071507Y-74424960D01*
X42332581Y-74345764D01*
X42573188Y-74217157D01*
X42784081Y-74044081D01*
X42957157Y-73833188D01*
X43085764Y-73592581D01*
X43164960Y-73331506D01*
X43185000Y-73128036D01*
X43185000Y-72471963D01*
X43164960Y-72268493D01*
X43085764Y-72007419D01*
X42957157Y-71766812D01*
X42784080Y-71555919D01*
X42573187Y-71382843D01*
X42332580Y-71254236D01*
X42071506Y-71175040D01*
X41800000Y-71148299D01*
X41528493Y-71175040D01*
X41267419Y-71254236D01*
X41026812Y-71382843D01*
X40815919Y-71555920D01*
X40642843Y-71766813D01*
X40514236Y-72007420D01*
X40435040Y-72268494D01*
X40415000Y-72471964D01*
X40185000Y-72471964D01*
X40185000Y-72471963D01*
X40164960Y-72268493D01*
X40085764Y-72007419D01*
X39957157Y-71766812D01*
X39784080Y-71555919D01*
X39573187Y-71382843D01*
X39332580Y-71254236D01*
X39071506Y-71175040D01*
X38800000Y-71148299D01*
X38528493Y-71175040D01*
X38267419Y-71254236D01*
X38026812Y-71382843D01*
X37815919Y-71555920D01*
X37642843Y-71766813D01*
X37514236Y-72007420D01*
X37435040Y-72268494D01*
X37415000Y-72471964D01*
X37185000Y-72471964D01*
X37185000Y-72471963D01*
X37164960Y-72268493D01*
X37085764Y-72007419D01*
X36957157Y-71766812D01*
X36784080Y-71555919D01*
X36573187Y-71382843D01*
X36332580Y-71254236D01*
X36071506Y-71175040D01*
X35800000Y-71148299D01*
X35528493Y-71175040D01*
X35267419Y-71254236D01*
X35026812Y-71382843D01*
X34815919Y-71555920D01*
X34642843Y-71766813D01*
X34514236Y-72007420D01*
X34435040Y-72268494D01*
X34415000Y-72471964D01*
X34188072Y-72471964D01*
X34188072Y-72040000D01*
X34171008Y-71866746D01*
X34120472Y-71700150D01*
X34038405Y-71546614D01*
X33927962Y-71412038D01*
X33793386Y-71301595D01*
X33639850Y-71219528D01*
X33473254Y-71168992D01*
X33300000Y-71151928D01*
X32300000Y-71151928D01*
X32126746Y-71168992D01*
X31960150Y-71219528D01*
X31806614Y-71301595D01*
X31672038Y-71412038D01*
X31561595Y-71546614D01*
X31479528Y-71700150D01*
X31428992Y-71866746D01*
X31411928Y-72040000D01*
X30221614Y-72040000D01*
X30401571Y-71965459D01*
X30609578Y-71826473D01*
X30786473Y-71649578D01*
X30925459Y-71441571D01*
X31021195Y-71210445D01*
X31070000Y-70965084D01*
X31070000Y-70714916D01*
X43530000Y-70714916D01*
X43530000Y-70965084D01*
X43578805Y-71210445D01*
X43674541Y-71441571D01*
X43813527Y-71649578D01*
X43990422Y-71826473D01*
X44198429Y-71965459D01*
X44429555Y-72061195D01*
X44674916Y-72110000D01*
X44925084Y-72110000D01*
X45170445Y-72061195D01*
X45322863Y-71998061D01*
X71265000Y-71998061D01*
X71265000Y-72201939D01*
X71304774Y-72401898D01*
X71382795Y-72590256D01*
X71415000Y-72638454D01*
X71415001Y-76461544D01*
X71382795Y-76509744D01*
X71304774Y-76698102D01*
X71265000Y-76898061D01*
X71265000Y-77101939D01*
X71304774Y-77301898D01*
X71382795Y-77490256D01*
X71496063Y-77659774D01*
X71640226Y-77803937D01*
X71809744Y-77917205D01*
X71998102Y-77995226D01*
X72198061Y-78035000D01*
X72401939Y-78035000D01*
X72601898Y-77995226D01*
X72790256Y-77917205D01*
X72959774Y-77803937D01*
X73103937Y-77659774D01*
X73217205Y-77490256D01*
X73295226Y-77301898D01*
X73335000Y-77101939D01*
X73335000Y-76898061D01*
X73295226Y-76698102D01*
X73217205Y-76509744D01*
X73185000Y-76461546D01*
X73185000Y-72638454D01*
X73217205Y-72590256D01*
X73295226Y-72401898D01*
X73335000Y-72201939D01*
X73335000Y-71998061D01*
X73295226Y-71798102D01*
X73254591Y-71700000D01*
X80361928Y-71700000D01*
X80361928Y-74300000D01*
X80374188Y-74424482D01*
X80410498Y-74544180D01*
X80469463Y-74654494D01*
X80548815Y-74751185D01*
X80645506Y-74830537D01*
X80755820Y-74889502D01*
X80875518Y-74925812D01*
X81000000Y-74938072D01*
X83000000Y-74938072D01*
X83124482Y-74925812D01*
X83244180Y-74889502D01*
X83354494Y-74830537D01*
X83451185Y-74751185D01*
X83530537Y-74654494D01*
X83557338Y-74604353D01*
X83737239Y-74730010D01*
X84031645Y-74859144D01*
X84159566Y-74890124D01*
X84413000Y-74770777D01*
X84413000Y-73127000D01*
X84667000Y-73127000D01*
X84667000Y-74770777D01*
X84920434Y-74890124D01*
X85048355Y-74859144D01*
X85342761Y-74730010D01*
X85606317Y-74545922D01*
X85828895Y-74313954D01*
X86001942Y-74043020D01*
X86118807Y-73743532D01*
X86175000Y-73427000D01*
X86175000Y-73127000D01*
X84667000Y-73127000D01*
X84413000Y-73127000D01*
X84393000Y-73127000D01*
X84393000Y-72873000D01*
X84413000Y-72873000D01*
X84413000Y-71229223D01*
X84667000Y-71229223D01*
X84667000Y-72873000D01*
X86175000Y-72873000D01*
X86175000Y-72573000D01*
X86118807Y-72256468D01*
X86001942Y-71956980D01*
X85828895Y-71686046D01*
X85606317Y-71454078D01*
X85342761Y-71269990D01*
X85048355Y-71140856D01*
X84920434Y-71109876D01*
X84667000Y-71229223D01*
X84413000Y-71229223D01*
X84159566Y-71109876D01*
X84031645Y-71140856D01*
X83737239Y-71269990D01*
X83557338Y-71395647D01*
X83530537Y-71345506D01*
X83451185Y-71248815D01*
X83354494Y-71169463D01*
X83244180Y-71110498D01*
X83124482Y-71074188D01*
X83000000Y-71061928D01*
X81000000Y-71061928D01*
X80875518Y-71074188D01*
X80755820Y-71110498D01*
X80645506Y-71169463D01*
X80548815Y-71248815D01*
X80469463Y-71345506D01*
X80410498Y-71455820D01*
X80374188Y-71575518D01*
X80361928Y-71700000D01*
X73254591Y-71700000D01*
X73217205Y-71609744D01*
X73103937Y-71440226D01*
X72959774Y-71296063D01*
X72790256Y-71182795D01*
X72601898Y-71104774D01*
X72401939Y-71065000D01*
X72198061Y-71065000D01*
X71998102Y-71104774D01*
X71809744Y-71182795D01*
X71640226Y-71296063D01*
X71496063Y-71440226D01*
X71382795Y-71609744D01*
X71304774Y-71798102D01*
X71265000Y-71998061D01*
X45322863Y-71998061D01*
X45401571Y-71965459D01*
X45609578Y-71826473D01*
X45786473Y-71649578D01*
X45925459Y-71441571D01*
X46021195Y-71210445D01*
X46070000Y-70965084D01*
X46070000Y-70714916D01*
X46021195Y-70469555D01*
X45925459Y-70238429D01*
X45786473Y-70030422D01*
X45609578Y-69853527D01*
X45401571Y-69714541D01*
X45170445Y-69618805D01*
X44925084Y-69570000D01*
X44674916Y-69570000D01*
X44429555Y-69618805D01*
X44198429Y-69714541D01*
X43990422Y-69853527D01*
X43813527Y-70030422D01*
X43674541Y-70238429D01*
X43578805Y-70469555D01*
X43530000Y-70714916D01*
X31070000Y-70714916D01*
X31021195Y-70469555D01*
X30925459Y-70238429D01*
X30786473Y-70030422D01*
X30609578Y-69853527D01*
X30401571Y-69714541D01*
X30170445Y-69618805D01*
X29925084Y-69570000D01*
X29674916Y-69570000D01*
X29429555Y-69618805D01*
X29198429Y-69714541D01*
X28990422Y-69853527D01*
X28813527Y-70030422D01*
X28674541Y-70238429D01*
X28578805Y-70469555D01*
X28530000Y-70714916D01*
X27660000Y-70714916D01*
X27660000Y-68660000D01*
X87340001Y-68660000D01*
X87340000Y-142340000D01*
%TD*%
M02*
