M48
; DRILL file {KiCad (5.1.6)-1} date 01/17/21 16:19:17
; FORMAT={-:-/ absolute / inch / decimal}
; #@! TF.CreationDate,2021-01-17T16:19:17-06:00
; #@! TF.GenerationSoftware,Kicad,Pcbnew,(5.1.6)-1
; #@! TF.FileFunction,Plated,1,2,PTH
FMAT,2
INCH
T1C0.0157
T2C0.0315
T3C0.0354
T4C0.0394
T5C0.0402
T6C0.0472
%
G90
G05
T1
X1.1378Y-5.2362
X1.1378Y-5.4134
X1.2126Y-4.2362
X1.2559Y-4.9606
X1.311Y-4.9606
X1.5118Y-4.4016
X1.5315Y-3.4291
X1.5394Y-4.0157
X1.5551Y-4.5827
X1.5945Y-4.2047
X1.6063Y-4.5827
X1.685Y-5.1339
X1.7047Y-4.9606
X1.7165Y-5.4134
X1.7205Y-5.2323
X1.7402Y-4.2756
X1.8425Y-5.2283
X1.8819Y-4.2126
X1.8858Y-4.4921
X2.8465Y-2.8386
X2.8465Y-3.0315
X2.9488Y-3.2205
X3.3307Y-3.0787
T2
X2.2323Y-5.2008
X2.6323Y-5.2008
X2.2283Y-5.4921
X2.6283Y-5.4921
X2.2323Y-4.9213
X2.6323Y-4.9213
T3
X1.9394Y-5.5157
X2.0394Y-5.5157
X1.9433Y-4.9449
X2.0433Y-4.9449
X1.9433Y-5.2283
X2.0433Y-5.2283
T4
X2.9488Y-3.4291
X2.9488Y-3.5291
X2.9488Y-3.6291
X2.9488Y-3.7291
X2.9488Y-3.8291
X2.9488Y-3.9291
X1.5512Y-3.5827
X1.6512Y-3.5827
T5
X1.2913Y-3.2441
X1.4094Y-3.2441
X1.5276Y-3.2441
X1.6457Y-3.2441
X2.0Y-3.1116
X2.0Y-3.2116
X2.0Y-3.3116
X2.0Y-3.4116
X2.0Y-3.5116
X2.0Y-3.6116
X2.0Y-3.7116
X2.0Y-3.8116
X2.0Y-3.9116
X2.0Y-4.0116
X2.0Y-4.1116
X2.0Y-4.2116
X2.0Y-4.3116
X2.0Y-4.4116
X2.0Y-4.5116
X2.6Y-3.1116
X2.6Y-3.2116
X2.6Y-3.3116
X2.6Y-3.4116
X2.6Y-3.5116
X2.6Y-3.6116
X2.6Y-3.7116
X2.6Y-3.8116
X2.6Y-3.9116
X2.6Y-4.0116
X2.6Y-4.1116
X2.6Y-4.2116
X2.6Y-4.3116
X2.6Y-4.4116
X2.6Y-4.5116
X1.2913Y-2.8661
X1.4094Y-2.8661
X1.5276Y-2.8661
X1.6457Y-2.8661
T6
X3.2283Y-2.874
X3.3283Y-2.874
T0
M30
