%TF.GenerationSoftware,KiCad,Pcbnew,(5.1.6)-1*%
%TF.CreationDate,2021-01-17T16:19:00-06:00*%
%TF.ProjectId,irradiance1,69727261-6469-4616-9e63-65312e6b6963,rev?*%
%TF.SameCoordinates,Original*%
%TF.FileFunction,Soldermask,Bot*%
%TF.FilePolarity,Negative*%
%FSLAX46Y46*%
G04 Gerber Fmt 4.6, Leading zero omitted, Abs format (unit mm)*
G04 Created by KiCad (PCBNEW (5.1.6)-1) date 2021-01-17 16:19:00*
%MOMM*%
%LPD*%
G01*
G04 APERTURE LIST*
%ADD10O,2.100000X2.700000*%
%ADD11R,2.100000X2.700000*%
%ADD12O,1.800000X1.800000*%
%ADD13R,1.800000X1.800000*%
%ADD14R,1.630000X1.630000*%
%ADD15C,1.630000*%
%ADD16C,1.700000*%
%ADD17O,1.700000X1.700000*%
%ADD18O,1.600000X2.120000*%
%ADD19C,1.370000*%
%ADD20C,2.300000*%
%ADD21R,1.900000X1.900000*%
%ADD22C,1.900000*%
G04 APERTURE END LIST*
D10*
%TO.C,J6*%
X84540000Y-73000000D03*
D11*
X82000000Y-73000000D03*
%TD*%
D12*
%TO.C,JP1*%
X41940000Y-91000000D03*
D13*
X39400000Y-91000000D03*
%TD*%
D12*
%TO.C,J0*%
X74900000Y-99800000D03*
X74900000Y-97260000D03*
X74900000Y-94720000D03*
X74900000Y-92180000D03*
X74900000Y-89640000D03*
D13*
X74900000Y-87100000D03*
%TD*%
D14*
%TO.C,U2*%
X66040000Y-79035000D03*
D15*
X66040000Y-81575000D03*
X66040000Y-84115000D03*
X66040000Y-86655000D03*
X66040000Y-89195000D03*
X66040000Y-91735000D03*
X66040000Y-94275000D03*
X66040000Y-96815000D03*
X66040000Y-99355000D03*
X66040000Y-101895000D03*
X66040000Y-104435000D03*
X66040000Y-106975000D03*
X66040000Y-109515000D03*
X66040000Y-112055000D03*
X66040000Y-114595000D03*
D14*
X50800000Y-79035000D03*
D15*
X50800000Y-81575000D03*
X50800000Y-84115000D03*
X50800000Y-86655000D03*
X50800000Y-89195000D03*
X50800000Y-91735000D03*
X50800000Y-94275000D03*
X50800000Y-96815000D03*
X50800000Y-99355000D03*
X50800000Y-101895000D03*
X50800000Y-104435000D03*
X50800000Y-106975000D03*
X50800000Y-109515000D03*
X50800000Y-112055000D03*
X50800000Y-114595000D03*
%TD*%
D16*
%TO.C,R2*%
X56700000Y-125000000D03*
D17*
X66860000Y-125000000D03*
%TD*%
D16*
%TO.C,R1*%
X56600000Y-139500000D03*
D17*
X66760000Y-139500000D03*
%TD*%
D16*
%TO.C,R0*%
X56700000Y-132100000D03*
D17*
X66860000Y-132100000D03*
%TD*%
D18*
%TO.C,J5*%
X41800000Y-72800000D03*
X38800000Y-72800000D03*
X35800000Y-72800000D03*
G36*
G01*
X32000000Y-73593333D02*
X32000000Y-72006667D01*
G75*
G02*
X32266667Y-71740000I266667J0D01*
G01*
X33333333Y-71740000D01*
G75*
G02*
X33600000Y-72006667I0J-266667D01*
G01*
X33600000Y-73593333D01*
G75*
G02*
X33333333Y-73860000I-266667J0D01*
G01*
X32266667Y-73860000D01*
G75*
G02*
X32000000Y-73593333I0J266667D01*
G01*
G37*
D19*
X44800000Y-70840000D03*
X29800000Y-70840000D03*
%TD*%
D18*
%TO.C,J4*%
X41800000Y-82400000D03*
X38800000Y-82400000D03*
X35800000Y-82400000D03*
G36*
G01*
X32000000Y-83193333D02*
X32000000Y-81606667D01*
G75*
G02*
X32266667Y-81340000I266667J0D01*
G01*
X33333333Y-81340000D01*
G75*
G02*
X33600000Y-81606667I0J-266667D01*
G01*
X33600000Y-83193333D01*
G75*
G02*
X33333333Y-83460000I-266667J0D01*
G01*
X32266667Y-83460000D01*
G75*
G02*
X32000000Y-83193333I0J266667D01*
G01*
G37*
D19*
X44800000Y-80440000D03*
X29800000Y-80440000D03*
%TD*%
D20*
%TO.C,H2*%
X84043520Y-100185220D03*
%TD*%
%TO.C,H1*%
X84046060Y-86702900D03*
%TD*%
D21*
%TO.C,D2*%
X51900000Y-125600000D03*
D22*
X49360000Y-125600000D03*
%TD*%
D21*
%TO.C,D1*%
X51800000Y-140100000D03*
D22*
X49260000Y-140100000D03*
%TD*%
D21*
%TO.C,D0*%
X51900000Y-132800000D03*
D22*
X49360000Y-132800000D03*
%TD*%
M02*
