%TF.GenerationSoftware,KiCad,Pcbnew,(5.1.6)-1*%
%TF.CreationDate,2021-01-17T16:19:00-06:00*%
%TF.ProjectId,irradiance1,69727261-6469-4616-9e63-65312e6b6963,rev?*%
%TF.SameCoordinates,Original*%
%TF.FileFunction,Copper,L1,Top*%
%TF.FilePolarity,Positive*%
%FSLAX46Y46*%
G04 Gerber Fmt 4.6, Leading zero omitted, Abs format (unit mm)*
G04 Created by KiCad (PCBNEW (5.1.6)-1) date 2021-01-17 16:19:00*
%MOMM*%
%LPD*%
G01*
G04 APERTURE LIST*
%TA.AperFunction,SMDPad,CuDef*%
%ADD10R,1.500000X1.250000*%
%TD*%
%TA.AperFunction,ComponentPad*%
%ADD11O,2.000000X2.600000*%
%TD*%
%TA.AperFunction,ComponentPad*%
%ADD12R,2.000000X2.600000*%
%TD*%
%TA.AperFunction,ComponentPad*%
%ADD13O,1.700000X1.700000*%
%TD*%
%TA.AperFunction,ComponentPad*%
%ADD14R,1.700000X1.700000*%
%TD*%
%TA.AperFunction,ComponentPad*%
%ADD15R,1.530000X1.530000*%
%TD*%
%TA.AperFunction,ComponentPad*%
%ADD16C,1.530000*%
%TD*%
%TA.AperFunction,SMDPad,CuDef*%
%ADD17R,0.800000X0.900000*%
%TD*%
%TA.AperFunction,SMDPad,CuDef*%
%ADD18R,0.650000X1.800000*%
%TD*%
%TA.AperFunction,SMDPad,CuDef*%
%ADD19R,1.300000X1.500000*%
%TD*%
%TA.AperFunction,SMDPad,CuDef*%
%ADD20R,1.500000X1.300000*%
%TD*%
%TA.AperFunction,ComponentPad*%
%ADD21C,1.600000*%
%TD*%
%TA.AperFunction,ComponentPad*%
%ADD22O,1.600000X1.600000*%
%TD*%
%TA.AperFunction,ComponentPad*%
%ADD23O,1.500000X2.020000*%
%TD*%
%TA.AperFunction,ComponentPad*%
%ADD24R,1.800000X1.800000*%
%TD*%
%TA.AperFunction,ComponentPad*%
%ADD25C,1.800000*%
%TD*%
%TA.AperFunction,SMDPad,CuDef*%
%ADD26R,1.250000X1.500000*%
%TD*%
%TA.AperFunction,ViaPad*%
%ADD27C,0.800000*%
%TD*%
%TA.AperFunction,Conductor*%
%ADD28C,0.500000*%
%TD*%
%TA.AperFunction,Conductor*%
%ADD29C,0.250000*%
%TD*%
G04 APERTURE END LIST*
D10*
%TO.P,C17,1*%
%TO.N,+9VA*%
X72350000Y-79900000D03*
%TO.P,C17,2*%
%TO.N,GND*%
X74850000Y-79900000D03*
%TD*%
D11*
%TO.P,J6,2*%
%TO.N,GND*%
X84540000Y-73000000D03*
D12*
%TO.P,J6,1*%
%TO.N,+9VA*%
X82000000Y-73000000D03*
%TD*%
D13*
%TO.P,JP1,2*%
%TO.N,Net-(JP1-Pad2)*%
X41940000Y-91000000D03*
D14*
%TO.P,JP1,1*%
%TO.N,Net-(JP1-Pad1)*%
X39400000Y-91000000D03*
%TD*%
D13*
%TO.P,J0,6*%
%TO.N,I2C_SCL*%
X74900000Y-99800000D03*
%TO.P,J0,5*%
%TO.N,I2C_SDA*%
X74900000Y-97260000D03*
%TO.P,J0,4*%
%TO.N,N/C*%
X74900000Y-94720000D03*
%TO.P,J0,3*%
X74900000Y-92180000D03*
%TO.P,J0,2*%
%TO.N,Net-(J0-Pad2)*%
X74900000Y-89640000D03*
D14*
%TO.P,J0,1*%
%TO.N,vin*%
X74900000Y-87100000D03*
%TD*%
D15*
%TO.P,U2,30*%
%TO.N,+9VA*%
X66040000Y-79035000D03*
D16*
%TO.P,U2,29*%
%TO.N,Net-(J0-Pad2)*%
X66040000Y-81575000D03*
%TO.P,U2,28*%
%TO.N,N/C*%
X66040000Y-84115000D03*
%TO.P,U2,27*%
%TO.N,vin*%
X66040000Y-86655000D03*
%TO.P,U2,26*%
%TO.N,N/C*%
X66040000Y-89195000D03*
%TO.P,U2,25*%
X66040000Y-91735000D03*
%TO.P,U2,24*%
X66040000Y-94275000D03*
%TO.P,U2,23*%
X66040000Y-96815000D03*
%TO.P,U2,22*%
X66040000Y-99355000D03*
%TO.P,U2,21*%
X66040000Y-101895000D03*
%TO.P,U2,20*%
X66040000Y-104435000D03*
%TO.P,U2,19*%
X66040000Y-106975000D03*
%TO.P,U2,18*%
X66040000Y-109515000D03*
%TO.P,U2,17*%
X66040000Y-112055000D03*
%TO.P,U2,16*%
X66040000Y-114595000D03*
D15*
%TO.P,U2,1*%
%TO.N,I2C_SCL*%
X50800000Y-79035000D03*
D16*
%TO.P,U2,2*%
%TO.N,I2C_SDA*%
X50800000Y-81575000D03*
%TO.P,U2,3*%
%TO.N,N/C*%
X50800000Y-84115000D03*
%TO.P,U2,4*%
X50800000Y-86655000D03*
%TO.P,U2,5*%
%TO.N,CAN_Tx*%
X50800000Y-89195000D03*
%TO.P,U2,6*%
%TO.N,Net-(D2-Pad2)*%
X50800000Y-91735000D03*
%TO.P,U2,7*%
%TO.N,N/C*%
X50800000Y-94275000D03*
%TO.P,U2,8*%
X50800000Y-96815000D03*
%TO.P,U2,9*%
X50800000Y-99355000D03*
%TO.P,U2,10*%
X50800000Y-101895000D03*
%TO.P,U2,11*%
X50800000Y-104435000D03*
%TO.P,U2,12*%
X50800000Y-106975000D03*
%TO.P,U2,13*%
%TO.N,CAN_Rx*%
X50800000Y-109515000D03*
%TO.P,U2,14*%
%TO.N,N/C*%
X50800000Y-112055000D03*
%TO.P,U2,15*%
X50800000Y-114595000D03*
%TD*%
D17*
%TO.P,U7,1*%
%TO.N,Net-(J4-Pad3)*%
X42350000Y-106800000D03*
%TO.P,U7,2*%
%TO.N,Net-(J4-Pad4)*%
X44250000Y-106800000D03*
%TO.P,U7,3*%
%TO.N,Net-(C10-Pad2)*%
X43300000Y-104800000D03*
%TD*%
D18*
%TO.P,U1,1*%
%TO.N,GND*%
X31885000Y-128225000D03*
%TO.P,U1,2*%
X33155000Y-128225000D03*
%TO.P,U1,3*%
%TO.N,+5V*%
X34425000Y-128225000D03*
%TO.P,U1,4*%
%TO.N,+3V3*%
X35695000Y-128225000D03*
%TO.P,U1,5*%
%TO.N,CAN_Rx*%
X36965000Y-128225000D03*
%TO.P,U1,6*%
%TO.N,N/C*%
X38235000Y-128225000D03*
%TO.P,U1,7*%
%TO.N,CAN_Tx*%
X39505000Y-128225000D03*
%TO.P,U1,8*%
%TO.N,N/C*%
X40775000Y-128225000D03*
%TO.P,U1,9*%
X42045000Y-128225000D03*
%TO.P,U1,10*%
%TO.N,GND*%
X43315000Y-128225000D03*
%TO.P,U1,11*%
%TO.N,Net-(C10-Pad2)*%
X43315000Y-118775000D03*
%TO.P,U1,12*%
%TO.N,Net-(R25-Pad2)*%
X42045000Y-118775000D03*
%TO.P,U1,13*%
%TO.N,Net-(J4-Pad4)*%
X40775000Y-118775000D03*
%TO.P,U1,14*%
%TO.N,Net-(J4-Pad3)*%
X39505000Y-118775000D03*
%TO.P,U1,15*%
%TO.N,Net-(C10-Pad2)*%
X38235000Y-118775000D03*
%TO.P,U1,16*%
%TO.N,Net-(C10-Pad1)*%
X36965000Y-118775000D03*
%TO.P,U1,17*%
%TO.N,N/C*%
X35695000Y-118775000D03*
%TO.P,U1,18*%
%TO.N,Net-(C9-Pad2)*%
X34425000Y-118775000D03*
%TO.P,U1,19*%
%TO.N,Net-(C9-Pad1)*%
X33155000Y-118775000D03*
%TO.P,U1,20*%
%TO.N,Net-(C9-Pad2)*%
X31885000Y-118775000D03*
%TD*%
D19*
%TO.P,R25,1*%
%TO.N,Net-(C10-Pad2)*%
X43100000Y-111200000D03*
%TO.P,R25,2*%
%TO.N,Net-(R25-Pad2)*%
X43100000Y-113900000D03*
%TD*%
%TO.P,R10,1*%
%TO.N,Net-(JP1-Pad1)*%
X37400000Y-99300000D03*
%TO.P,R10,2*%
%TO.N,Net-(J4-Pad3)*%
X37400000Y-102000000D03*
%TD*%
D20*
%TO.P,R9,1*%
%TO.N,Net-(JP1-Pad2)*%
X41400000Y-100500000D03*
%TO.P,R9,2*%
%TO.N,Net-(J4-Pad4)*%
X44100000Y-100500000D03*
%TD*%
D21*
%TO.P,R2,1*%
%TO.N,Net-(D2-Pad1)*%
X56700000Y-125000000D03*
D22*
%TO.P,R2,2*%
%TO.N,GND*%
X66860000Y-125000000D03*
%TD*%
D21*
%TO.P,R1,1*%
%TO.N,Net-(D1-Pad1)*%
X56600000Y-139500000D03*
D22*
%TO.P,R1,2*%
%TO.N,GND*%
X66760000Y-139500000D03*
%TD*%
D21*
%TO.P,R0,1*%
%TO.N,Net-(D0-Pad1)*%
X56700000Y-132100000D03*
D22*
%TO.P,R0,2*%
%TO.N,GND*%
X66860000Y-132100000D03*
%TD*%
D20*
%TO.P,L3,1*%
%TO.N,Net-(C10-Pad2)*%
X38400000Y-109400000D03*
%TO.P,L3,2*%
%TO.N,Net-(C9-Pad2)*%
X35700000Y-109400000D03*
%TD*%
%TO.P,L2,1*%
%TO.N,Net-(C10-Pad1)*%
X38400000Y-114100000D03*
%TO.P,L2,2*%
%TO.N,Net-(C9-Pad1)*%
X35700000Y-114100000D03*
%TD*%
D23*
%TO.P,J5,4*%
%TO.N,Net-(J4-Pad4)*%
X41800000Y-72800000D03*
%TO.P,J5,3*%
%TO.N,Net-(J4-Pad3)*%
X38800000Y-72800000D03*
%TO.P,J5,2*%
%TO.N,Net-(C10-Pad2)*%
X35800000Y-72800000D03*
%TO.P,J5,1*%
%TO.N,Net-(C10-Pad1)*%
%TA.AperFunction,ComponentPad*%
G36*
G01*
X32050000Y-73560000D02*
X32050000Y-72040000D01*
G75*
G02*
X32300000Y-71790000I250000J0D01*
G01*
X33300000Y-71790000D01*
G75*
G02*
X33550000Y-72040000I0J-250000D01*
G01*
X33550000Y-73560000D01*
G75*
G02*
X33300000Y-73810000I-250000J0D01*
G01*
X32300000Y-73810000D01*
G75*
G02*
X32050000Y-73560000I0J250000D01*
G01*
G37*
%TD.AperFunction*%
%TD*%
%TO.P,J4,4*%
%TO.N,Net-(J4-Pad4)*%
X41800000Y-82400000D03*
%TO.P,J4,3*%
%TO.N,Net-(J4-Pad3)*%
X38800000Y-82400000D03*
%TO.P,J4,2*%
%TO.N,Net-(C10-Pad2)*%
X35800000Y-82400000D03*
%TO.P,J4,1*%
%TO.N,Net-(C10-Pad1)*%
%TA.AperFunction,ComponentPad*%
G36*
G01*
X32050000Y-83160000D02*
X32050000Y-81640000D01*
G75*
G02*
X32300000Y-81390000I250000J0D01*
G01*
X33300000Y-81390000D01*
G75*
G02*
X33550000Y-81640000I0J-250000D01*
G01*
X33550000Y-83160000D01*
G75*
G02*
X33300000Y-83410000I-250000J0D01*
G01*
X32300000Y-83410000D01*
G75*
G02*
X32050000Y-83160000I0J250000D01*
G01*
G37*
%TD.AperFunction*%
%TD*%
D24*
%TO.P,D2,1*%
%TO.N,Net-(D2-Pad1)*%
X51900000Y-125600000D03*
D25*
%TO.P,D2,2*%
%TO.N,Net-(D2-Pad2)*%
X49360000Y-125600000D03*
%TD*%
D24*
%TO.P,D1,1*%
%TO.N,Net-(D1-Pad1)*%
X51800000Y-140100000D03*
D25*
%TO.P,D1,2*%
%TO.N,CAN_Rx*%
X49260000Y-140100000D03*
%TD*%
D24*
%TO.P,D0,1*%
%TO.N,Net-(D0-Pad1)*%
X51900000Y-132800000D03*
D25*
%TO.P,D0,2*%
%TO.N,CAN_Tx*%
X49360000Y-132800000D03*
%TD*%
D10*
%TO.P,C16,1*%
%TO.N,+3V3*%
X38350000Y-133000000D03*
%TO.P,C16,2*%
%TO.N,GND*%
X40850000Y-133000000D03*
%TD*%
%TO.P,C15,1*%
%TO.N,+3V3*%
X38350000Y-137500000D03*
%TO.P,C15,2*%
%TO.N,GND*%
X40850000Y-137500000D03*
%TD*%
%TO.P,C14,1*%
%TO.N,+5V*%
X33550000Y-133000000D03*
%TO.P,C14,2*%
%TO.N,GND*%
X31050000Y-133000000D03*
%TD*%
%TO.P,C13,1*%
%TO.N,+5V*%
X33550000Y-137500000D03*
%TO.P,C13,2*%
%TO.N,GND*%
X31050000Y-137500000D03*
%TD*%
%TO.P,C12,1*%
%TO.N,Net-(C10-Pad1)*%
X30800000Y-95700000D03*
%TO.P,C12,2*%
%TO.N,Net-(C10-Pad2)*%
X33300000Y-95700000D03*
%TD*%
%TO.P,C11,1*%
%TO.N,Net-(C10-Pad1)*%
X30850000Y-100200000D03*
%TO.P,C11,2*%
%TO.N,Net-(C10-Pad2)*%
X33350000Y-100200000D03*
%TD*%
%TO.P,C10,1*%
%TO.N,Net-(C10-Pad1)*%
X30850000Y-104700000D03*
%TO.P,C10,2*%
%TO.N,Net-(C10-Pad2)*%
X33350000Y-104700000D03*
%TD*%
D26*
%TO.P,C9,1*%
%TO.N,Net-(C9-Pad1)*%
X31100000Y-114100000D03*
%TO.P,C9,2*%
%TO.N,Net-(C9-Pad2)*%
X31100000Y-111600000D03*
%TD*%
D27*
%TO.N,Net-(C10-Pad1)*%
X38400000Y-111800000D03*
X30800000Y-107600000D03*
%TO.N,GND*%
X31900000Y-126000000D03*
X33300000Y-126000000D03*
X43300000Y-126000000D03*
X43700000Y-132900000D03*
X43600000Y-137500000D03*
X28900000Y-133000000D03*
X28900000Y-137500000D03*
X84600000Y-78200000D03*
X74900000Y-81800000D03*
%TO.N,CAN_Tx*%
X42800000Y-130400000D03*
X46800000Y-132800000D03*
X47800000Y-107000000D03*
X47900000Y-114100000D03*
%TO.N,Net-(J4-Pad4)*%
X40800000Y-116400000D03*
X44200000Y-108600000D03*
%TO.N,Net-(J4-Pad3)*%
X39500000Y-116400000D03*
X40500000Y-106800000D03*
X39100000Y-102000000D03*
X38900000Y-87100000D03*
%TO.N,+9VA*%
X72300000Y-72100000D03*
X72300000Y-77000000D03*
%TD*%
D28*
%TO.N,Net-(C9-Pad1)*%
X33155000Y-116645000D02*
X35700000Y-114100000D01*
X33155000Y-118775000D02*
X33155000Y-116645000D01*
X31100000Y-114100000D02*
X35700000Y-114100000D01*
%TO.N,Net-(C9-Pad2)*%
X33300000Y-109400000D02*
X31100000Y-111600000D01*
X35700000Y-109400000D02*
X33300000Y-109400000D01*
X29300000Y-115700000D02*
X29300000Y-111500000D01*
X31000000Y-111500000D02*
X31100000Y-111600000D01*
X29300000Y-111500000D02*
X31000000Y-111500000D01*
X31885000Y-118775000D02*
X31885000Y-118285000D01*
X31885000Y-118285000D02*
X29300000Y-115700000D01*
X34425000Y-119540002D02*
X34400000Y-119565002D01*
X34425000Y-118775000D02*
X34425000Y-119540002D01*
X34400000Y-119565002D02*
X34400000Y-120300000D01*
X34400000Y-120300000D02*
X33600000Y-121100000D01*
X33600000Y-121100000D02*
X32400000Y-121100000D01*
X31885000Y-120585000D02*
X31885000Y-118775000D01*
X32400000Y-121100000D02*
X31885000Y-120585000D01*
%TO.N,Net-(C10-Pad1)*%
X36965000Y-115535000D02*
X38400000Y-114100000D01*
X36965000Y-118775000D02*
X36965000Y-115535000D01*
X38400000Y-114100000D02*
X38400000Y-111800000D01*
X30850000Y-104700000D02*
X30850000Y-100200000D01*
X30850000Y-95750000D02*
X30800000Y-95700000D01*
X30850000Y-100200000D02*
X30850000Y-95750000D01*
X30850000Y-104700000D02*
X30850000Y-107550000D01*
X30850000Y-107550000D02*
X30800000Y-107600000D01*
X30800000Y-95700000D02*
X30800000Y-88200000D01*
X30800000Y-88200000D02*
X32700000Y-86300000D01*
X32700000Y-82500000D02*
X32800000Y-82400000D01*
X32700000Y-86300000D02*
X32700000Y-82500000D01*
X32800000Y-82400000D02*
X32800000Y-72800000D01*
%TO.N,Net-(C10-Pad2)*%
X38235000Y-119540002D02*
X38200000Y-119575002D01*
X38235000Y-118775000D02*
X38235000Y-119540002D01*
X38200000Y-119575002D02*
X38200000Y-120300000D01*
X38200000Y-120300000D02*
X39000000Y-121100000D01*
X39000000Y-121100000D02*
X42700000Y-121100000D01*
X43315000Y-120485000D02*
X43315000Y-118775000D01*
X42700000Y-121100000D02*
X43315000Y-120485000D01*
X43315000Y-118775000D02*
X43315000Y-118285000D01*
X43315000Y-118285000D02*
X44800000Y-116800000D01*
X44800000Y-116800000D02*
X44800000Y-111100000D01*
X43200000Y-111100000D02*
X43100000Y-111200000D01*
X44800000Y-111100000D02*
X43200000Y-111100000D01*
X43100000Y-111200000D02*
X43100000Y-110600000D01*
X41900000Y-109400000D02*
X38400000Y-109400000D01*
X43100000Y-110600000D02*
X41900000Y-109400000D01*
X33350000Y-104700000D02*
X33350000Y-100200000D01*
X33350000Y-95750000D02*
X33300000Y-95700000D01*
X33350000Y-100200000D02*
X33350000Y-95750000D01*
X33350000Y-104700000D02*
X36900000Y-104700000D01*
X36900000Y-104700000D02*
X38300000Y-106100000D01*
X38300000Y-109300000D02*
X38400000Y-109400000D01*
X38300000Y-106100000D02*
X38300000Y-109300000D01*
X37000000Y-104800000D02*
X36900000Y-104700000D01*
X43300000Y-104800000D02*
X37000000Y-104800000D01*
X33300000Y-95700000D02*
X33300000Y-89000000D01*
X35800000Y-86500000D02*
X35800000Y-82400000D01*
X33300000Y-89000000D02*
X35800000Y-86500000D01*
X35800000Y-82400000D02*
X35800000Y-72800000D01*
%TO.N,+5V*%
X34425000Y-132125000D02*
X34425000Y-128225000D01*
X33550000Y-133000000D02*
X34425000Y-132125000D01*
X33550000Y-137500000D02*
X33550000Y-133000000D01*
D29*
%TO.N,GND*%
X31885000Y-128225000D02*
X31885000Y-126015000D01*
X31885000Y-126015000D02*
X31900000Y-126000000D01*
X33155000Y-128225000D02*
X33155000Y-126145000D01*
X33155000Y-126145000D02*
X33300000Y-126000000D01*
X43315000Y-128225000D02*
X43315000Y-126015000D01*
X43315000Y-126015000D02*
X43300000Y-126000000D01*
D28*
X40850000Y-133000000D02*
X43600000Y-133000000D01*
X43600000Y-133000000D02*
X43700000Y-132900000D01*
X40850000Y-137500000D02*
X43600000Y-137500000D01*
X31050000Y-133000000D02*
X28900000Y-133000000D01*
X31050000Y-137500000D02*
X28900000Y-137500000D01*
X84540000Y-78140000D02*
X84600000Y-78200000D01*
X84540000Y-73000000D02*
X84540000Y-78140000D01*
X74900000Y-79950000D02*
X74850000Y-79900000D01*
X74900000Y-81800000D02*
X74900000Y-79950000D01*
%TO.N,+3V3*%
X35695000Y-130345000D02*
X35695000Y-128225000D01*
X38350000Y-133000000D02*
X35695000Y-130345000D01*
X38350000Y-137500000D02*
X38350000Y-133000000D01*
%TO.N,Net-(D0-Pad1)*%
X51900000Y-132800000D02*
X53600000Y-132800000D01*
X54300000Y-132100000D02*
X56700000Y-132100000D01*
X53600000Y-132800000D02*
X54300000Y-132100000D01*
%TO.N,CAN_Tx*%
X39505000Y-129625000D02*
X40280000Y-130400000D01*
X39505000Y-128225000D02*
X39505000Y-129625000D01*
X40280000Y-130400000D02*
X42800000Y-130400000D01*
X50800000Y-89195000D02*
X47705000Y-89195000D01*
X47705000Y-89195000D02*
X47705000Y-106905000D01*
X47705000Y-106905000D02*
X47800000Y-107000000D01*
X47400000Y-114600000D02*
X47900000Y-114100000D01*
X47400000Y-132800000D02*
X46800000Y-132800000D01*
X47400000Y-132800000D02*
X47400000Y-114600000D01*
X49360000Y-132800000D02*
X47400000Y-132800000D01*
%TO.N,Net-(D1-Pad1)*%
X51800000Y-140100000D02*
X53900000Y-140100000D01*
X54500000Y-139500000D02*
X56600000Y-139500000D01*
X53900000Y-140100000D02*
X54500000Y-139500000D01*
%TO.N,CAN_Rx*%
X47300000Y-140100000D02*
X49260000Y-140100000D01*
X45100000Y-137900000D02*
X47300000Y-140100000D01*
X36965000Y-129965000D02*
X38400000Y-131400000D01*
X36965000Y-128225000D02*
X36965000Y-129965000D01*
X44600000Y-131400000D02*
X45100000Y-131900000D01*
X38400000Y-131400000D02*
X44600000Y-131400000D01*
X45100000Y-131900000D02*
X45100000Y-137900000D01*
X44600000Y-131400000D02*
X44600000Y-130800000D01*
X44600000Y-130800000D02*
X46400000Y-129000000D01*
X46400000Y-129000000D02*
X46400000Y-111600000D01*
X48485000Y-109515000D02*
X50800000Y-109515000D01*
X46400000Y-111600000D02*
X48485000Y-109515000D01*
%TO.N,Net-(D2-Pad1)*%
X51900000Y-125600000D02*
X53800000Y-125600000D01*
X54400000Y-125000000D02*
X56700000Y-125000000D01*
X53800000Y-125600000D02*
X54400000Y-125000000D01*
%TO.N,Net-(D2-Pad2)*%
X52235000Y-91735000D02*
X50800000Y-91735000D01*
X53700000Y-116700000D02*
X53700000Y-93200000D01*
X49360000Y-125600000D02*
X49360000Y-121040000D01*
X53700000Y-93200000D02*
X52235000Y-91735000D01*
X49360000Y-121040000D02*
X53700000Y-116700000D01*
%TO.N,Net-(J0-Pad2)*%
X66040000Y-81575000D02*
X68175000Y-81575000D01*
X68175000Y-81575000D02*
X71500000Y-84900000D01*
X71500000Y-84900000D02*
X71500000Y-88500000D01*
X71500000Y-88500000D02*
X72700000Y-89700000D01*
X72760000Y-89640000D02*
X74900000Y-89640000D01*
X72700000Y-89700000D02*
X72760000Y-89640000D01*
%TO.N,I2C_SDA*%
X54425000Y-81575000D02*
X50800000Y-81575000D01*
X60400000Y-75600000D02*
X54425000Y-81575000D01*
X74900000Y-97260000D02*
X77840000Y-97260000D01*
X78900000Y-96200000D02*
X78900000Y-79700000D01*
X77840000Y-97260000D02*
X78900000Y-96200000D01*
X78900000Y-79700000D02*
X74800000Y-75600000D01*
X74800000Y-75600000D02*
X60400000Y-75600000D01*
%TO.N,I2C_SCL*%
X74900000Y-99800000D02*
X77600000Y-99800000D01*
X77600000Y-99800000D02*
X80600000Y-96800000D01*
X80600000Y-96800000D02*
X80600000Y-79000000D01*
X80600000Y-79000000D02*
X75700000Y-74100000D01*
X75700000Y-74100000D02*
X59300000Y-74100000D01*
X59300000Y-74100000D02*
X54400000Y-79000000D01*
X50835000Y-79000000D02*
X50800000Y-79035000D01*
X54400000Y-79000000D02*
X50835000Y-79000000D01*
%TO.N,Net-(J4-Pad4)*%
X40775000Y-118775000D02*
X40775000Y-116425000D01*
X40775000Y-116425000D02*
X40800000Y-116400000D01*
X44250000Y-106800000D02*
X44250000Y-108550000D01*
X44250000Y-108550000D02*
X44200000Y-108600000D01*
X44100000Y-100500000D02*
X45200000Y-100500000D01*
X45200000Y-100500000D02*
X46000000Y-101300000D01*
X46000000Y-101300000D02*
X46000000Y-105800000D01*
X45000000Y-106800000D02*
X44250000Y-106800000D01*
X46000000Y-105800000D02*
X45000000Y-106800000D01*
X46000000Y-101300000D02*
X46000000Y-87300000D01*
X46000000Y-87300000D02*
X44400000Y-87300000D01*
X41800000Y-84700000D02*
X41800000Y-82400000D01*
X44400000Y-87300000D02*
X41800000Y-84700000D01*
X41800000Y-82400000D02*
X41800000Y-72800000D01*
%TO.N,Net-(J4-Pad3)*%
X39505000Y-118775000D02*
X39505000Y-116705000D01*
X39505000Y-116705000D02*
X39500000Y-116700000D01*
X39500000Y-116700000D02*
X39500000Y-116400000D01*
X42350000Y-106800000D02*
X40500000Y-106800000D01*
X37400000Y-102000000D02*
X39100000Y-102000000D01*
X38800000Y-82400000D02*
X38800000Y-87000000D01*
X38800000Y-87000000D02*
X38900000Y-87100000D01*
X38800000Y-82400000D02*
X38800000Y-72800000D01*
%TO.N,Net-(JP1-Pad1)*%
X37400000Y-93000000D02*
X39400000Y-91000000D01*
X37400000Y-99300000D02*
X37400000Y-93000000D01*
%TO.N,Net-(JP1-Pad2)*%
X42880000Y-96020000D02*
X41400000Y-97500000D01*
X41940000Y-91000000D02*
X42880000Y-91940000D01*
X41400000Y-97500000D02*
X41400000Y-100500000D01*
X42880000Y-91940000D02*
X42880000Y-96020000D01*
%TO.N,Net-(R25-Pad2)*%
X42045000Y-114955000D02*
X43100000Y-113900000D01*
X42045000Y-118775000D02*
X42045000Y-114955000D01*
%TO.N,+9VA*%
X82000000Y-73000000D02*
X77200000Y-73000000D01*
X77200000Y-73000000D02*
X76300000Y-72100000D01*
X76300000Y-72100000D02*
X72400000Y-72100000D01*
X72300000Y-79850000D02*
X72350000Y-79900000D01*
X72300000Y-77000000D02*
X72300000Y-79850000D01*
X72350000Y-79900000D02*
X70000000Y-79900000D01*
X69135000Y-79035000D02*
X66040000Y-79035000D01*
X70000000Y-79900000D02*
X69135000Y-79035000D01*
%TD*%
M02*
